{"glyphs":{"0":{"ha":776,"x_min":43,"x_max":744,"o":"m 43 460 q 156 788 51 679 q 388 896 261 896 q 629 783 519 896 q 743 447 739 669 q 743 441 743 444 q 743 435 743 438 q 636 95 744 211 q 397 -22 528 -21 q 395 -22 396 -22 q 393 -22 394 -22 q 153 96 263 -22 q 43 458 43 214 l 43 460 m 383 831 q 294 717 322 826 q 265 471 265 607 q 265 454 265 463 q 265 438 265 446 q 301 165 268 289 q 393 42 335 42 q 394 42 393 42 q 394 42 394 42 q 395 42 394 42 q 396 42 396 42 q 496 162 460 40 q 536 428 532 283 q 536 440 536 435 q 536 451 536 446 q 501 712 536 594 q 389 829 467 829 q 386 829 388 829 q 383 829 385 829 l 383 831 z "},"1":{"ha":776,"x_min":97,"x_max":700,"o":"m 317 700 q 313 734 317 725 q 297 743 308 743 q 282 742 290 744 q 263 736 274 739 q 251 734 257 735 q 240 732 246 733 q 232 729 236 731 q 224 726 228 728 q 176 709 199 717 q 135 701 153 701 q 111 708 121 701 q 99 732 101 715 q 99 735 99 733 q 99 738 99 736 q 144 780 97 764 q 244 808 190 796 q 295 819 271 814 q 339 829 319 824 q 450 874 410 854 q 508 894 490 893 q 532 871 528 894 q 536 786 536 847 l 536 121 q 562 61 536 72 q 618 49 588 50 q 624 49 621 49 q 629 49 626 49 q 676 45 656 49 q 700 21 697 42 q 700 20 700 21 q 700 18 700 19 q 700 16 700 17 q 700 15 700 15 q 683 -8 700 -1 q 636 -14 667 -14 q 588 -12 615 -14 q 532 -7 561 -10 q 469 -2 501 -4 q 404 0 438 0 q 358 -2 383 0 q 308 -7 333 -4 q 303 -8 306 -7 q 299 -8 301 -8 q 252 -12 275 -10 q 208 -14 229 -14 q 153 -7 175 -14 q 131 21 131 0 q 156 49 135 44 q 207 56 178 54 q 215 56 211 56 q 224 56 219 56 q 288 71 258 57 q 317 140 317 85 l 317 700 l 317 700 z "},"2":{"ha":776,"x_min":75,"x_max":722,"o":"m 285 186 l 568 186 q 619 189 601 185 q 646 217 638 193 q 660 244 651 233 q 678 257 668 254 q 683 259 681 258 q 689 260 686 260 q 713 251 703 260 q 722 228 722 242 l 711 43 q 700 5 711 10 q 656 0 689 0 l 110 0 q 83 4 92 0 q 75 17 75 8 q 81 37 75 25 q 99 64 88 49 l 426 460 q 465 519 450 486 q 485 588 479 553 q 488 608 488 597 q 489 628 489 618 q 453 739 489 692 q 339 786 417 786 q 230 756 267 786 q 164 692 193 726 q 147 672 156 682 q 131 654 139 663 q 113 640 121 644 q 97 636 104 636 q 83 643 89 636 q 78 661 78 650 q 83 683 78 671 q 99 710 88 696 q 213 818 147 781 q 349 868 279 856 q 384 872 367 871 q 419 874 401 874 q 595 836 517 874 q 700 742 674 799 q 717 693 711 717 q 722 646 722 669 q 670 500 722 568 q 536 382 618 432 q 341 242 414 300 q 285 185 268 185 l 285 186 z "},"3":{"ha":776,"x_min":49,"x_max":722,"o":"m 372 492 q 410 496 389 493 q 453 499 431 499 q 487 497 469 499 q 521 493 504 496 q 656 431 594 481 q 722 272 717 382 q 722 268 722 271 q 722 263 722 265 q 610 28 722 135 q 363 -122 497 -79 q 293 -140 328 -133 q 226 -146 258 -146 q 138 -132 179 -146 q 65 -87 96 -118 q 53 -67 57 -79 q 49 -42 49 -56 q 49 -33 49 -37 q 50 -25 50 -29 q 78 26 56 3 q 139 51 100 50 q 161 49 150 51 q 186 42 172 47 q 217 18 206 33 q 235 -12 228 3 q 238 -19 236 -15 q 240 -25 239 -22 q 258 -60 247 -44 q 293 -75 269 -75 q 314 -73 303 -75 q 339 -65 325 -71 q 358 -58 349 -62 q 378 -49 368 -54 q 466 38 426 -19 q 506 168 506 96 q 494 239 506 203 q 457 313 482 275 q 442 330 450 321 q 426 349 435 339 q 381 383 404 371 q 333 399 357 394 q 314 402 324 401 q 294 403 304 403 q 242 397 267 403 q 194 386 217 392 q 165 378 178 382 q 142 371 151 374 q 126 367 133 369 q 111 365 118 365 q 89 371 97 365 q 81 385 81 376 q 86 400 81 392 q 103 417 92 408 q 120 426 111 421 q 142 436 129 432 q 193 458 165 444 q 250 486 221 471 q 348 550 301 515 q 415 622 394 585 q 426 646 422 633 q 429 671 429 658 q 429 674 429 672 q 429 678 429 676 q 392 757 426 721 q 304 793 357 793 q 228 772 269 793 q 142 699 186 751 q 135 691 139 694 q 128 686 132 688 q 124 685 126 686 q 121 685 122 685 q 104 692 111 685 q 97 711 97 700 q 101 726 97 718 q 110 742 104 733 q 214 830 149 799 q 349 868 279 861 q 373 870 361 869 q 396 871 385 871 q 546 840 478 871 q 635 753 614 810 q 640 734 638 743 q 642 715 642 725 q 599 628 642 665 q 506 564 557 590 q 422 522 461 540 q 372 490 382 504 l 372 492 z "},"4":{"ha":776,"x_min":22,"x_max":754,"o":"m 722 350 q 750 346 746 349 q 754 326 754 343 l 754 296 q 749 265 754 269 q 711 261 743 261 l 646 263 q 617 256 621 261 q 613 217 613 250 l 613 99 q 633 65 613 72 q 678 56 653 58 q 681 54 679 54 q 683 54 682 54 q 724 46 706 51 q 743 21 743 40 q 724 -7 743 0 q 676 -14 706 -14 q 638 -12 658 -14 q 594 -8 617 -10 q 592 -7 593 -7 q 589 -7 590 -7 q 544 -2 565 -4 q 503 0 522 0 q 474 -2 492 0 q 435 -7 456 -4 q 416 -9 425 -8 q 397 -11 407 -10 q 372 -13 385 -12 q 349 -14 360 -14 q 296 -7 318 -14 q 274 21 274 0 q 290 44 274 39 q 326 50 306 49 q 333 51 329 51 q 339 53 336 51 q 384 65 364 56 q 404 108 404 75 l 404 229 q 397 257 404 253 q 350 261 390 261 l 65 263 q 28 264 33 261 q 22 283 22 267 l 22 306 q 33 340 22 319 q 58 381 43 360 q 62 386 60 383 q 65 392 64 389 l 514 974 q 521 979 514 972 q 539 994 528 986 q 545 999 542 996 q 551 1003 549 1001 q 567 1012 560 1008 q 579 1015 574 1015 l 601 1017 q 631 1003 632 1015 q 617 978 629 992 q 613 973 615 975 q 608 968 611 971 q 605 965 607 967 q 601 961 603 963 l 142 383 q 124 355 121 361 q 136 349 128 349 q 139 349 138 349 q 142 349 140 349 l 361 350 q 394 354 385 349 q 404 392 404 360 l 404 590 q 410 625 404 614 q 449 644 415 636 l 568 678 q 583 680 576 679 q 594 681 589 681 q 610 672 608 681 q 613 644 613 663 l 613 393 q 617 354 613 360 q 646 349 621 349 l 722 350 l 722 350 z "},"5":{"ha":776,"x_min":69,"x_max":722,"o":"m 186 810 q 216 842 194 832 q 263 851 238 851 l 635 886 q 647 880 643 885 q 653 868 651 875 q 656 857 656 863 q 656 851 656 851 l 624 733 q 621 724 624 729 q 613 711 618 718 q 592 695 606 703 q 558 688 578 688 l 229 656 q 211 644 217 654 q 204 621 206 633 q 204 619 204 619 q 204 617 204 618 q 207 598 203 607 q 218 589 211 589 q 238 586 228 588 q 261 583 249 585 q 350 572 300 578 q 451 556 400 567 q 631 476 549 533 q 722 294 713 419 q 722 292 722 293 q 722 289 722 290 q 722 286 722 288 q 722 283 722 285 q 627 70 722 156 q 418 -64 532 -15 q 292 -108 353 -92 q 186 -131 231 -125 q 165 -134 175 -133 q 144 -135 154 -135 q 92 -125 110 -135 q 71 -104 74 -115 q 71 -102 71 -103 q 71 -100 71 -101 q 85 -76 69 -86 q 131 -65 101 -65 q 172 -61 151 -64 q 214 -53 193 -58 q 413 35 322 -29 q 504 193 504 99 q 504 199 504 196 q 504 206 504 201 q 503 211 504 208 q 503 217 503 214 q 436 328 493 290 q 313 383 379 367 q 214 399 261 396 q 142 403 167 403 q 97 409 111 403 q 83 433 83 415 q 85 445 83 439 q 88 458 86 451 l 186 810 l 186 810 z "},"6":{"ha":776,"x_min":56,"x_max":767,"o":"m 492 43 q 545 100 528 49 q 563 217 563 151 q 562 242 563 229 q 560 269 561 256 q 527 406 553 342 q 460 490 501 471 q 443 498 451 496 q 426 500 435 500 q 401 496 414 500 q 378 488 389 492 q 357 479 367 483 q 340 475 347 475 q 333 476 336 475 q 328 479 331 478 q 323 485 325 482 q 319 490 321 488 q 317 496 318 493 q 317 501 317 499 q 337 535 317 519 q 382 561 357 550 q 405 571 393 567 q 426 578 417 575 q 452 583 438 581 q 483 585 467 585 q 531 581 506 585 q 581 569 556 578 q 700 486 644 547 q 765 304 756 425 q 765 301 765 303 q 765 297 765 299 q 765 293 765 294 q 765 289 765 292 q 694 101 767 179 q 533 -6 621 24 q 484 -18 508 -14 q 438 -22 460 -22 q 431 -22 435 -22 q 425 -24 428 -22 q 419 -24 422 -24 q 413 -24 415 -24 q 152 97 247 -24 q 56 382 57 218 q 59 442 56 411 q 69 503 63 472 q 86 563 76 532 q 110 622 96 593 q 117 637 114 629 q 125 651 121 644 q 305 859 186 761 q 554 1001 424 957 q 610 1017 582 1011 q 667 1026 639 1024 q 676 1028 672 1028 q 685 1028 681 1028 q 722 1019 710 1028 q 735 1000 735 1011 q 724 981 736 990 q 689 972 713 972 q 422 822 524 946 q 283 554 321 697 q 268 472 274 513 q 263 392 263 431 q 272 320 263 365 q 296 228 281 275 q 362 95 321 156 q 458 35 403 35 q 475 37 467 35 q 492 42 483 39 l 492 43 z "},"7":{"ha":776,"x_min":43,"x_max":758,"o":"m 558 646 l 76 646 q 70 645 74 644 q 63 649 67 646 q 49 662 56 653 q 43 688 43 671 l 43 831 q 47 864 43 854 q 76 874 51 874 l 296 853 l 733 853 q 753 846 749 851 q 758 831 758 840 q 756 815 758 824 q 751 796 754 806 q 749 792 750 794 q 747 786 749 789 q 745 781 746 783 q 743 775 744 778 l 350 -33 q 339 -55 343 -47 q 331 -68 335 -62 q 317 -75 325 -74 q 296 -76 310 -76 l 274 -76 q 257 -75 264 -76 q 250 -64 250 -74 q 253 -48 250 -58 q 263 -22 257 -37 l 547 579 q 568 628 563 611 q 558 644 574 644 l 558 646 z "},"8":{"ha":776,"x_min":33,"x_max":751,"o":"m 547 525 q 702 407 654 475 q 750 267 750 339 q 655 71 751 158 q 404 -22 558 -17 q 400 -22 403 -22 q 396 -22 397 -22 q 391 -22 393 -22 q 386 -22 389 -22 q 119 47 206 -24 q 33 206 33 118 q 33 209 33 207 q 33 213 33 211 q 86 338 36 278 q 229 425 136 397 q 107 522 147 461 q 65 646 67 582 q 149 818 65 740 q 393 896 233 896 q 621 838 543 896 q 708 710 699 779 q 709 701 708 706 q 710 692 710 696 q 669 589 710 636 q 547 524 628 542 l 547 525 m 296 393 q 244 324 264 369 q 224 226 224 278 q 260 107 222 163 q 383 42 297 51 q 388 42 386 42 q 392 42 390 42 q 403 42 397 42 q 415 43 410 42 q 510 91 467 51 q 554 183 554 131 q 549 219 554 201 q 531 256 543 236 q 449 327 506 292 q 296 392 393 363 l 296 393 m 481 547 q 520 599 506 569 q 539 660 535 628 q 540 671 540 665 q 540 682 540 676 q 502 792 542 743 q 386 840 463 840 q 383 840 385 840 q 379 840 381 840 q 376 840 378 840 q 372 840 374 840 q 349 836 363 840 q 321 824 335 832 q 274 785 296 810 q 251 728 251 760 q 290 650 251 692 q 432 565 328 608 q 455 555 443 560 q 481 546 467 550 l 481 547 z "},"9":{"ha":776,"x_min":44,"x_max":726,"o":"m 339 831 q 253 777 279 824 q 228 669 228 731 q 229 638 228 654 q 233 606 231 622 q 292 449 247 519 q 390 378 336 378 q 403 379 397 378 q 415 382 410 381 q 428 385 422 385 q 439 386 433 386 q 465 381 454 386 q 476 364 476 375 q 473 352 476 358 q 461 340 469 346 q 439 327 453 333 q 404 315 425 321 q 358 306 381 310 q 314 303 335 303 q 117 391 188 301 q 44 589 46 481 q 84 739 44 667 q 208 851 124 811 q 267 876 238 867 q 325 890 296 885 q 354 893 339 892 q 383 894 369 894 q 578 835 490 894 q 700 665 665 776 q 719 581 713 622 q 725 500 725 539 q 619 178 726 313 q 385 -35 513 44 q 281 -92 332 -68 q 186 -131 229 -117 q 140 -144 160 -140 q 106 -149 121 -149 q 70 -137 78 -149 q 71 -110 63 -125 q 90 -91 76 -100 q 121 -76 103 -82 q 370 82 278 -35 q 500 331 463 199 q 519 424 513 378 q 525 513 525 469 q 519 576 525 538 q 500 654 513 614 q 440 774 479 719 q 339 829 400 829 l 339 831 z "}," ":{"ha":393,"x_min":0,"x_max":0,"o":""},"!":{"ha":393,"x_min":63,"x_max":319,"o":"m 65 88 q 106 158 69 133 q 185 183 142 182 q 187 183 186 183 q 189 183 188 183 q 269 160 233 185 q 306 86 306 135 q 306 83 306 85 q 306 78 306 81 q 270 1 307 26 q 189 -22 233 -24 q 187 -22 188 -22 q 185 -22 186 -22 q 103 4 140 -21 q 65 78 65 29 q 65 83 65 81 q 65 86 65 85 l 65 88 m 153 274 l 65 743 q 63 755 64 749 q 63 767 63 761 q 101 852 63 822 q 185 885 139 882 q 190 885 188 885 q 193 885 192 885 q 281 858 242 886 q 319 769 319 829 q 319 756 319 764 q 317 742 318 749 l 240 285 q 224 236 236 253 q 200 217 213 219 q 197 217 199 217 q 194 217 196 217 q 169 231 181 217 q 153 272 157 244 l 153 274 z "},"\"":{"ha":558,"x_min":88,"x_max":471,"o":"m 121 525 l 88 776 q 88 781 88 778 q 88 788 88 785 q 109 855 88 831 q 157 883 131 879 q 161 885 158 885 q 167 885 164 885 q 210 867 190 886 q 229 810 229 849 q 229 803 229 807 q 229 797 229 800 l 186 525 q 176 491 186 503 q 156 479 167 479 q 152 479 154 479 q 147 481 150 479 q 131 493 139 482 q 121 524 124 504 l 121 525 m 361 525 l 328 776 q 328 778 328 776 q 328 782 328 781 q 328 785 328 783 q 328 789 328 788 q 348 862 326 838 q 396 889 369 886 q 398 889 397 889 q 400 889 399 889 q 449 868 428 889 q 471 808 471 847 q 471 806 471 807 q 471 803 471 804 q 471 800 471 801 q 471 797 471 799 l 426 525 q 416 491 426 503 q 392 479 406 479 q 371 489 381 478 q 361 524 361 500 l 361 525 z "},"#":{"ha":776,"x_min":4,"x_max":744,"o":"m 197 514 l 131 514 q 101 514 110 513 q 93 525 93 515 q 94 538 92 531 q 99 557 96 546 l 121 624 q 124 630 122 626 q 125 636 125 633 q 139 652 131 650 q 175 654 147 654 l 274 656 q 280 656 276 654 q 286 660 283 657 q 294 666 290 663 q 300 674 297 669 q 304 681 303 678 q 306 688 306 685 l 372 875 q 373 877 372 874 q 379 885 374 881 q 395 892 385 889 q 426 896 406 896 q 463 891 451 896 q 478 879 474 886 q 481 871 481 875 q 481 864 482 867 q 481 863 481 864 q 481 863 481 863 l 415 689 q 408 658 407 663 q 426 654 410 654 l 471 656 q 496 656 489 654 q 507 668 503 657 q 510 676 508 671 q 514 688 511 681 l 579 875 q 580 877 579 874 q 586 885 581 881 q 603 892 592 889 q 635 896 614 896 q 670 894 658 896 q 682 876 682 892 q 681 866 682 872 q 678 851 681 860 l 624 700 q 619 676 621 685 q 617 664 617 668 q 621 656 617 657 q 635 654 625 654 l 722 656 q 738 650 733 654 q 744 640 743 646 q 744 638 744 639 q 744 635 744 636 q 744 630 744 632 q 744 626 744 628 q 743 623 743 624 q 743 622 743 622 l 722 547 q 710 521 722 529 q 656 513 697 513 l 590 514 q 567 510 575 513 q 550 496 558 508 q 549 493 550 494 q 547 490 549 492 l 525 438 q 529 417 525 419 q 558 414 533 414 l 635 415 q 665 404 667 414 q 656 371 664 394 l 635 306 q 632 297 633 300 q 629 290 631 293 q 613 267 624 274 q 568 261 603 261 l 492 263 q 485 260 489 261 q 479 258 482 260 q 466 250 472 256 q 460 239 460 244 l 383 22 q 381 15 382 18 q 378 10 379 13 q 363 1 372 1 q 328 0 354 0 l 296 0 q 285 5 288 0 q 282 15 282 10 q 283 22 282 18 q 283 26 283 25 q 284 31 283 29 q 285 32 285 32 l 361 251 q 361 252 361 250 q 358 256 361 254 q 352 260 357 258 q 339 261 347 261 l 296 263 q 281 258 288 261 q 271 250 275 254 q 265 242 267 246 q 263 239 263 239 l 175 11 q 173 8 175 10 q 165 4 171 7 q 151 1 160 3 q 131 0 143 0 l 88 0 q 77 3 82 0 q 72 15 72 7 q 74 22 72 18 q 76 32 75 26 l 153 240 q 153 242 153 240 q 153 244 153 243 q 151 256 154 251 q 121 261 147 261 l 43 263 q 14 263 22 261 q 6 274 6 264 q 6 285 4 278 q 11 304 8 293 l 33 372 q 53 408 40 403 q 99 414 65 414 l 186 415 q 211 419 204 414 q 222 436 218 424 q 225 447 224 442 q 229 458 226 451 l 240 492 q 235 506 240 499 q 197 513 229 513 l 197 514 m 426 514 l 393 514 q 360 506 369 513 q 350 490 350 499 l 328 438 q 328 431 328 433 q 326 425 328 428 q 328 415 325 417 q 350 414 331 414 l 383 415 q 392 414 388 414 q 399 414 396 414 q 404 413 401 413 q 408 413 407 413 q 415 413 413 413 q 419 418 417 414 q 422 425 421 421 q 426 436 424 429 l 449 492 q 449 491 449 490 q 450 493 449 492 q 450 497 450 494 q 450 501 450 499 q 444 509 449 506 q 426 513 439 513 l 426 514 z "},"$":{"ha":776,"x_min":110,"x_max":692,"o":"m 372 1028 q 376 1042 372 1035 q 404 1049 381 1049 l 426 1050 q 455 1042 449 1049 q 461 1026 461 1036 q 461 1021 461 1024 q 461 1015 461 1018 q 460 1010 460 1013 q 460 1004 460 1007 l 460 897 q 477 876 460 883 q 517 861 494 868 q 533 856 525 858 q 547 851 540 854 q 574 841 561 846 q 596 832 586 836 q 624 813 614 822 q 635 786 635 803 l 635 689 q 625 653 635 665 q 601 640 615 640 q 594 641 597 640 q 586 643 590 642 q 565 663 575 649 q 547 699 554 676 q 493 779 529 754 q 417 807 457 804 q 413 807 415 807 q 410 807 411 807 q 307 774 354 807 q 260 696 260 740 q 261 679 260 688 q 267 664 263 671 q 292 631 275 647 q 339 600 310 615 q 360 590 349 594 q 382 579 371 585 q 424 562 403 571 q 465 544 444 553 q 621 449 550 506 q 692 288 692 393 q 688 244 692 267 q 678 196 685 221 q 637 109 668 144 q 571 53 606 74 q 528 32 549 40 q 492 21 507 24 q 476 18 483 19 q 464 15 469 17 q 434 1 442 10 q 426 -33 426 -7 l 426 -131 q 422 -175 426 -164 q 393 -186 418 -186 l 372 -186 q 343 -174 347 -186 q 339 -121 339 -161 l 339 -43 q 335 -8 339 -17 q 314 6 332 0 q 289 12 304 8 q 251 21 274 15 q 162 52 203 29 q 121 108 121 75 l 110 263 q 118 278 110 272 q 136 283 126 283 q 142 283 139 283 q 149 282 144 283 q 171 269 160 279 q 186 239 182 258 q 256 111 211 151 q 350 64 301 71 q 360 63 356 64 q 371 63 365 63 q 483 102 435 63 q 533 193 532 142 q 514 251 533 222 q 449 304 494 279 q 416 321 433 313 q 381 338 399 329 q 355 349 368 343 q 329 360 342 354 q 220 420 272 386 q 142 513 168 454 q 138 524 140 518 q 133 538 136 531 q 124 577 128 556 q 119 622 119 599 q 128 684 119 651 q 164 750 138 717 q 208 795 181 772 q 274 840 235 818 q 285 846 279 843 q 299 850 292 849 q 319 857 308 854 q 339 863 331 860 q 363 872 354 867 q 372 885 372 876 l 372 1028 l 372 1028 z "},"%":{"ha":1225,"x_min":22,"x_max":1214,"o":"m 743 251 q 826 457 756 390 q 979 524 897 524 q 1141 454 1068 525 q 1214 251 1214 383 q 1214 245 1214 249 q 1214 239 1214 242 q 1139 47 1210 114 q 983 -25 1068 -21 q 980 -25 982 -25 q 975 -25 978 -25 q 819 42 890 -25 q 743 250 747 108 l 743 251 m 974 481 q 917 421 935 476 q 900 292 900 365 q 900 270 900 281 q 901 249 900 260 q 928 92 906 164 q 985 21 951 21 q 1044 89 1022 17 q 1065 249 1065 161 q 1065 251 1065 250 q 1065 253 1065 251 q 1044 409 1065 339 q 974 479 1022 479 l 974 481 m 361 0 q 344 1 351 0 q 338 8 338 1 q 341 22 338 14 q 350 42 344 29 l 810 842 q 812 843 811 842 q 813 847 813 844 q 829 867 821 860 q 853 874 838 874 l 886 875 q 907 867 901 874 q 913 854 913 861 q 913 851 913 853 q 913 849 913 850 q 908 837 911 843 q 903 826 906 831 q 900 823 901 825 q 897 819 899 821 l 426 22 q 422 13 424 17 q 419 8 421 10 q 408 1 415 1 q 383 0 401 0 l 361 0 l 361 0 m 22 613 q 98 815 26 747 q 254 882 169 882 q 256 882 256 882 q 258 882 257 882 q 419 813 346 882 q 492 611 492 743 q 417 392 488 464 q 261 319 346 321 q 97 394 172 319 q 22 611 22 468 l 22 613 m 251 831 q 189 768 208 826 q 169 636 169 710 q 169 617 169 626 q 171 599 169 608 q 200 442 175 514 q 263 371 225 371 q 323 442 303 371 q 343 599 343 514 q 323 757 343 685 q 260 831 303 829 q 258 831 258 831 q 256 831 257 831 q 253 829 254 829 q 251 829 253 829 l 251 831 z "},"&":{"ha":1061,"x_min":21,"x_max":1039,"o":"m 601 121 q 574 94 593 115 q 519 46 554 72 q 444 5 489 24 q 339 -22 400 -14 q 319 -24 329 -24 q 297 -25 308 -25 q 97 51 169 -25 q 21 218 24 126 q 21 223 21 221 q 21 226 21 225 q 37 310 21 269 q 88 382 53 350 q 117 405 101 394 q 147 424 132 415 q 222 457 186 444 q 276 481 257 469 q 291 491 286 486 q 296 501 296 496 q 280 522 296 506 q 246 565 264 539 q 212 626 228 592 q 196 703 196 661 q 196 708 196 706 q 197 713 196 710 q 197 717 197 714 q 197 721 197 719 q 260 826 203 786 q 386 883 318 867 q 435 893 411 890 q 481 896 458 896 q 697 842 621 896 q 774 718 774 788 q 772 697 774 708 q 767 676 769 686 q 757 655 763 665 q 743 633 751 644 q 706 598 729 613 q 657 572 682 583 q 589 549 619 557 q 558 535 558 540 q 559 530 558 532 q 561 526 560 528 q 569 517 564 522 q 579 501 574 513 l 678 383 q 690 366 682 374 q 704 354 697 358 q 715 348 710 350 q 725 346 721 346 q 727 346 726 346 q 728 346 728 346 q 731 347 729 346 q 733 349 733 347 q 744 364 736 353 q 760 390 751 375 q 762 394 761 392 q 764 399 763 396 q 781 428 774 414 q 788 447 788 443 q 769 463 783 458 q 736 469 754 467 q 734 469 735 469 q 733 469 733 469 q 695 478 713 472 q 678 501 678 485 q 697 530 678 525 q 739 535 717 535 q 741 535 740 535 q 743 535 742 535 l 963 536 q 1014 525 997 535 q 1031 503 1031 515 q 1031 500 1031 501 q 1031 499 1031 499 q 1017 481 1029 489 q 985 469 1006 472 q 923 452 949 464 q 875 418 897 440 q 858 402 867 411 q 842 382 850 393 q 788 316 810 340 q 765 283 765 292 q 791 250 765 283 q 851 176 817 217 q 860 165 856 171 q 869 154 865 160 q 915 106 893 128 q 951 75 936 85 q 985 60 969 64 q 1011 53 1000 56 q 1032 44 1025 50 q 1039 21 1039 39 q 1020 -3 1039 3 q 976 -10 1001 -10 q 968 -10 972 -10 q 958 -10 964 -10 q 936 -7 947 -8 q 915 -6 925 -6 q 890 -1 901 -3 q 875 0 879 0 q 856 -1 867 0 q 833 -4 846 -3 q 809 -7 822 -6 q 783 -8 796 -8 q 731 -1 757 -8 q 689 32 706 7 q 675 48 685 35 q 653 75 665 61 q 647 82 650 79 q 642 89 644 85 q 619 110 631 101 q 601 119 608 119 l 601 121 m 328 438 q 263 372 282 407 q 243 300 243 336 q 301 172 242 229 q 431 110 360 114 q 435 110 433 110 q 439 110 438 110 q 502 124 471 110 q 558 174 533 139 l 328 438 l 328 438 m 514 590 q 575 636 557 607 q 593 696 593 665 q 593 699 593 697 q 593 704 593 701 q 555 794 590 753 q 479 839 519 836 q 477 839 478 839 q 475 839 476 839 q 444 832 460 839 q 415 808 429 825 q 406 790 410 800 q 403 768 403 779 q 408 736 403 753 q 419 703 413 719 q 455 646 433 674 q 500 600 476 618 q 508 594 504 596 q 514 589 511 592 l 514 590 z "},"'":{"ha":361,"x_min":65,"x_max":290,"o":"m 186 722 q 181 724 185 724 q 174 724 178 724 q 167 724 171 725 q 158 724 163 724 q 154 724 156 724 q 150 724 153 724 q 140 724 144 724 q 129 725 135 725 q 113 731 121 728 q 99 742 106 735 q 73 777 81 760 q 65 811 65 794 q 95 872 65 847 q 164 899 125 897 q 172 899 168 899 q 179 897 175 899 q 223 881 201 894 q 263 840 244 867 q 283 795 276 819 q 290 746 290 771 q 290 731 290 739 q 288 717 289 724 q 242 608 281 660 q 142 524 204 556 q 124 516 132 518 q 108 514 115 514 q 93 518 99 513 q 88 531 88 524 q 88 536 88 533 q 89 542 89 539 q 97 556 92 549 q 110 567 103 563 q 116 571 113 568 q 124 576 119 574 q 156 607 140 589 q 183 643 172 625 q 196 667 192 656 q 200 690 200 679 q 197 708 200 700 q 186 721 193 715 l 186 722 z "},"(":{"ha":558,"x_min":22,"x_max":550,"o":"m 218 415 q 278 56 218 193 q 503 -131 339 -82 q 529 -144 519 -136 q 543 -161 539 -153 q 544 -165 543 -162 q 544 -169 544 -168 q 535 -185 544 -179 q 507 -192 526 -192 q 491 -190 500 -192 q 471 -186 482 -189 q 434 -175 453 -181 q 397 -162 415 -169 q 139 33 256 -107 q 22 447 22 172 q 134 765 22 624 q 379 964 246 906 q 436 984 408 976 q 492 994 464 992 q 538 985 525 994 q 546 965 550 976 q 532 950 543 957 q 503 939 521 943 q 270 735 314 882 q 218 414 226 588 l 218 415 z "},")":{"ha":558,"x_min":-18,"x_max":525,"o":"m 306 328 q 308 384 308 357 q 308 438 308 411 q 242 787 310 678 q 33 939 174 896 q 7 949 17 943 q -8 961 -3 956 q -6 985 -18 975 q 40 996 7 996 q 53 996 47 996 q 65 994 60 996 q 391 798 257 954 q 525 399 525 642 q 525 391 525 394 q 525 385 525 388 q 525 378 525 382 q 525 371 525 375 q 426 72 518 196 q 224 -117 333 -51 q 153 -152 188 -137 q 88 -175 119 -167 q 56 -183 69 -181 q 31 -185 42 -185 q 2 -178 11 -185 q -7 -164 -7 -172 q -5 -156 -7 -160 q 0 -147 -3 -151 q 22 -133 8 -140 q 54 -121 35 -125 q 229 -12 178 -93 q 296 161 281 69 q 304 247 303 204 q 306 326 306 289 l 306 328 z "},"*":{"ha":471,"x_min":35,"x_max":446,"o":"m 218 689 q 189 694 204 690 q 157 700 174 697 q 113 707 135 704 q 76 710 92 710 q 44 731 54 717 q 35 760 35 744 q 35 762 35 761 q 35 764 35 763 q 49 802 35 785 q 85 819 64 819 q 107 815 96 819 q 131 797 118 810 q 145 783 138 790 q 160 767 153 775 q 163 764 161 765 q 165 761 164 763 q 201 726 183 742 q 229 710 218 710 q 222 738 229 721 q 206 774 214 754 q 200 786 203 779 q 194 800 197 793 q 185 827 189 814 q 182 851 182 840 q 183 863 182 858 q 186 874 185 868 q 205 894 193 886 q 229 903 217 901 q 233 904 231 904 q 236 904 235 904 q 270 892 256 904 q 285 851 285 879 q 280 808 285 826 q 268 772 275 789 q 262 756 265 764 q 256 739 258 747 q 253 724 254 732 q 251 710 251 717 q 253 710 253 710 q 256 711 254 711 q 278 734 267 718 q 301 769 289 750 q 338 810 318 792 q 383 829 357 829 q 419 813 407 829 q 435 776 432 796 q 435 774 435 775 q 435 772 435 774 q 430 749 435 760 q 415 732 425 739 q 382 717 403 724 q 339 706 361 711 q 296 696 317 700 q 263 688 275 692 q 283 677 267 681 q 322 671 300 674 q 335 670 329 671 q 349 668 342 669 q 394 660 372 665 q 426 644 415 656 q 434 635 431 640 q 440 625 438 631 q 443 615 442 619 q 444 606 444 610 q 430 569 446 583 q 390 553 414 554 q 370 556 381 553 q 350 567 360 560 q 328 587 339 574 q 307 613 317 600 q 304 617 306 615 q 301 621 303 618 q 276 649 289 636 q 251 665 264 661 q 258 635 251 653 q 274 596 265 618 q 288 554 282 576 q 296 508 294 532 q 296 505 296 507 q 296 501 296 503 q 279 467 296 481 q 243 454 263 454 q 240 454 242 454 q 239 454 239 454 q 206 469 221 456 q 186 513 190 482 q 192 544 186 526 q 206 579 199 561 q 208 583 207 582 q 208 586 208 585 q 224 624 217 606 q 231 656 231 642 q 231 658 231 657 q 231 661 231 660 q 230 663 231 661 q 229 665 229 664 q 215 654 222 661 q 201 640 208 647 q 173 605 188 625 q 138 564 158 585 q 134 560 136 563 q 131 557 132 558 q 122 550 126 553 q 111 546 117 547 q 106 545 108 546 q 101 544 104 544 q 61 562 79 544 q 42 601 43 579 q 64 641 42 622 q 142 665 86 660 q 189 672 167 665 q 218 688 211 679 l 218 689 z "},"+":{"ha":776,"x_min":76,"x_max":700,"o":"m 700 503 l 700 372 l 449 372 l 449 121 l 328 121 l 328 372 l 76 372 l 76 503 l 328 503 l 328 743 l 449 743 l 449 503 l 700 503 l 700 503 z "},",":{"ha":393,"x_min":63,"x_max":314,"o":"m 208 0 q 193 5 203 4 q 171 7 183 6 q 153 7 163 7 q 133 10 143 7 q 95 28 114 14 q 65 75 76 42 q 65 80 65 78 q 64 85 64 82 q 63 90 63 88 q 63 94 63 92 q 97 167 63 138 q 176 197 132 197 q 187 197 182 197 q 196 196 192 196 q 236 182 217 193 q 274 151 256 171 q 304 97 294 125 q 314 36 314 68 q 313 12 314 24 q 308 -11 311 0 q 258 -119 296 -67 q 164 -208 219 -172 q 138 -222 150 -218 q 115 -226 125 -226 q 97 -221 103 -226 q 89 -207 90 -215 q 94 -192 89 -200 q 110 -175 100 -183 q 131 -159 115 -172 q 163 -128 146 -146 q 184 -101 174 -115 q 203 -74 194 -87 q 214 -50 210 -61 q 218 -28 218 -39 q 216 -14 218 -21 q 208 0 214 -7 l 208 0 z "},"-":{"ha":415,"x_min":29,"x_max":382,"o":"m 54 339 q 79 357 63 354 q 121 360 96 360 l 350 361 q 381 356 382 360 q 372 326 381 351 l 350 263 q 336 242 350 244 q 306 239 322 239 l 88 240 q 43 241 57 239 q 29 254 29 243 q 31 262 29 257 q 33 272 32 267 l 54 339 l 54 339 z "},".":{"ha":393,"x_min":76,"x_max":328,"o":"m 76 99 q 119 178 81 150 q 201 208 157 206 q 203 208 203 208 q 206 208 204 208 q 287 181 250 208 q 328 97 324 154 q 328 94 328 96 q 328 89 328 92 q 289 8 328 35 q 203 -21 250 -19 q 201 -21 201 -21 q 199 -21 200 -21 q 115 9 153 -19 q 76 97 76 38 l 76 99 z "},"/":{"ha":613,"x_min":-3,"x_max":593,"o":"m 481 951 q 500 979 489 975 q 536 983 511 983 l 568 985 q 590 982 588 983 q 592 972 593 981 q 590 967 590 969 q 590 961 590 964 l 99 -54 q 89 -74 94 -67 q 76 -83 83 -81 q 65 -87 71 -86 q 54 -87 58 -87 l 33 -87 q 7 -86 15 -87 q -3 -76 -1 -85 q 1 -60 -3 -71 q 11 -33 4 -50 l 481 951 l 481 951 z "},":":{"ha":393,"x_min":65,"x_max":317,"o":"m 65 99 q 108 178 69 150 q 190 208 146 206 q 192 208 192 208 q 194 208 193 208 q 276 181 239 208 q 317 97 313 154 q 317 94 317 96 q 317 89 317 92 q 278 8 317 35 q 192 -21 239 -19 q 190 -21 190 -21 q 188 -21 189 -21 q 103 9 142 -19 q 65 97 65 38 l 65 99 m 65 449 q 108 528 69 500 q 190 558 146 556 q 192 558 192 558 q 194 558 193 558 q 276 531 239 558 q 317 447 313 504 q 317 444 317 446 q 317 439 317 442 q 278 357 317 385 q 192 328 239 329 q 190 328 190 328 q 188 328 189 328 q 103 358 142 329 q 65 447 65 388 l 65 449 z "},";":{"ha":393,"x_min":63,"x_max":317,"o":"m 208 -11 q 193 -5 203 -6 q 171 -3 183 -4 q 153 -3 163 -3 q 133 0 143 -3 q 95 17 114 3 q 65 64 76 31 q 65 69 65 67 q 64 74 64 71 q 63 78 63 76 q 63 83 63 81 q 97 156 63 126 q 176 186 132 186 q 187 185 182 186 q 196 185 192 185 q 236 171 217 182 q 274 140 256 160 q 304 86 294 115 q 314 26 314 57 q 313 3 314 14 q 308 -21 311 -8 q 258 -129 296 -76 q 164 -218 219 -182 q 138 -233 150 -229 q 115 -236 125 -236 q 92 -226 97 -237 q 96 -199 86 -214 q 102 -192 99 -196 q 110 -186 106 -189 q 131 -170 115 -183 q 163 -139 146 -157 q 184 -112 174 -126 q 203 -85 194 -99 q 214 -61 210 -72 q 218 -39 218 -50 q 216 -25 218 -32 q 208 -11 214 -18 l 208 -11 m 65 449 q 108 528 69 500 q 190 558 146 556 q 192 558 192 558 q 194 558 193 558 q 276 531 239 558 q 317 447 313 504 q 317 444 317 446 q 317 439 317 442 q 278 357 317 385 q 192 328 239 329 q 190 328 190 328 q 188 328 189 328 q 103 358 142 329 q 65 447 65 388 l 65 449 z "},"<":{"ha":776,"x_min":54,"x_max":722,"o":"m 175 438 l 722 186 l 722 65 l 54 383 l 54 492 l 722 799 l 722 678 l 175 438 l 175 438 z "},"=":{"ha":776,"x_min":88,"x_max":711,"o":"m 88 404 l 711 404 l 711 274 l 88 274 l 88 404 l 88 404 m 88 590 l 711 590 l 711 460 l 88 460 l 88 590 l 88 590 z "},">":{"ha":776,"x_min":54,"x_max":711,"o":"m 590 438 l 54 667 l 54 788 l 711 492 l 711 383 l 54 76 l 54 197 l 590 438 l 590 438 z "},"?":{"ha":579,"x_min":68,"x_max":525,"o":"m 99 88 q 140 163 103 139 q 219 189 176 188 q 301 163 264 189 q 339 86 339 136 q 302 5 339 31 q 222 -22 265 -21 q 220 -22 221 -22 q 218 -22 219 -22 q 136 3 174 -22 q 99 76 99 28 q 99 79 99 78 q 99 82 99 81 q 99 83 99 82 q 99 86 99 85 l 99 88 m 175 251 l 142 426 q 140 433 140 429 q 140 440 140 438 q 147 469 140 456 q 165 497 153 483 q 201 531 179 514 q 251 567 224 547 q 319 624 288 592 q 367 692 351 657 q 376 715 372 703 q 379 739 379 728 q 367 783 379 763 q 328 819 356 803 q 311 827 319 825 q 296 829 303 829 q 263 817 278 829 q 235 786 249 806 q 224 773 229 781 q 214 758 219 765 q 173 713 194 733 q 121 688 151 692 q 83 715 99 688 q 68 776 68 743 q 68 779 68 778 q 68 782 68 781 q 83 837 69 811 q 131 874 97 863 q 185 886 158 882 q 235 890 211 890 q 394 841 331 890 q 492 732 458 792 q 514 680 506 706 q 525 633 522 654 q 525 629 525 632 q 525 624 525 626 q 482 509 525 565 q 388 407 439 453 q 300 340 340 367 q 251 304 260 313 q 242 282 243 297 q 240 250 240 267 q 232 231 240 238 q 213 225 224 225 q 210 225 211 225 q 207 225 208 225 q 188 233 197 226 q 175 250 179 239 l 175 251 z "},"@":{"ha":996,"x_min":72,"x_max":933,"o":"m 525 240 q 494 214 510 225 q 463 196 478 203 q 431 184 447 188 q 400 181 415 181 q 302 224 343 181 q 260 346 261 267 q 263 388 260 365 q 274 436 267 411 q 343 581 297 526 q 439 658 389 635 q 480 672 460 667 q 519 676 500 676 q 575 666 551 678 q 613 633 599 654 l 624 656 l 754 656 l 635 317 q 632 301 633 307 q 629 289 631 294 q 635 270 629 276 q 653 264 642 264 q 690 276 668 264 q 738 308 713 288 q 810 397 776 343 q 843 513 843 451 q 843 518 843 515 q 843 524 843 521 q 842 529 843 526 q 842 535 842 532 q 731 725 831 657 q 513 793 631 793 q 416 781 464 793 q 328 742 368 768 q 207 610 246 689 q 168 444 168 531 q 168 442 168 443 q 168 439 168 440 q 246 207 168 315 q 460 75 324 99 q 503 69 482 71 q 546 67 525 67 q 735 113 656 67 q 842 228 815 160 l 929 229 q 775 40 888 104 q 532 -26 663 -25 q 522 -26 526 -26 q 513 -26 517 -26 q 235 73 364 -21 q 76 360 107 167 q 74 376 75 368 q 74 390 74 383 q 72 405 72 397 q 72 421 72 413 q 73 442 72 432 q 74 463 74 453 q 202 756 88 622 q 514 896 317 889 q 535 895 525 896 q 557 893 546 894 q 816 776 699 879 q 933 511 933 672 q 927 442 933 478 q 908 371 921 407 q 897 346 904 358 q 881 319 890 333 q 802 239 850 278 q 701 183 754 200 q 671 175 686 178 q 640 172 656 172 q 576 188 606 172 q 525 239 547 203 l 525 240 m 558 579 q 556 578 557 578 q 554 579 554 579 q 551 581 553 581 q 549 581 550 581 q 524 570 538 581 q 497 542 511 560 q 466 489 482 519 q 436 426 450 458 q 409 349 419 386 q 399 292 399 313 q 400 280 399 285 q 404 272 401 275 q 410 269 407 271 q 417 268 414 268 q 444 279 429 268 q 474 310 458 290 q 509 363 492 332 q 540 424 526 393 q 565 492 556 460 q 574 547 574 525 q 571 568 575 560 q 558 578 567 576 l 558 579 z "},"A":{"ha":918,"x_min":-43,"x_max":951,"o":"m 503 263 q 500 267 501 264 q 497 272 499 269 q 483 282 492 281 q 449 283 474 283 l 274 285 q 233 275 249 283 q 218 250 218 267 l 186 153 q 183 140 185 146 q 182 128 182 135 q 182 124 182 126 q 182 121 182 122 q 198 82 185 100 q 240 64 211 64 q 301 51 286 64 q 317 25 315 39 q 317 23 317 24 q 317 21 317 22 q 292 -1 313 4 q 243 -6 271 -6 q 233 -6 238 -6 q 224 -6 228 -6 q 205 -3 214 -4 q 186 -3 196 -3 q 162 -1 174 -1 q 142 0 150 0 q 107 -1 124 0 q 74 -3 90 -1 q 44 -3 58 -3 q 17 -4 29 -4 q -26 1 -10 -4 q -43 22 -42 6 q -43 24 -43 24 q -43 26 -43 25 q -42 29 -42 28 q -42 32 -42 31 q -27 53 -39 49 q 0 57 -15 57 q 2 57 0 57 q 6 57 4 57 q 12 57 8 57 q 19 57 15 57 q 53 64 38 57 q 76 97 69 71 l 383 842 q 410 876 392 863 q 449 890 428 889 q 485 879 468 890 q 514 840 503 868 l 831 99 q 854 65 838 72 q 889 56 871 57 q 895 56 892 56 q 903 54 899 56 q 937 49 922 54 q 951 21 951 44 q 935 -7 951 0 q 893 -14 919 -14 q 856 -12 876 -14 q 815 -7 836 -10 q 810 -6 813 -7 q 804 -6 807 -6 q 768 -1 786 -3 q 733 0 750 0 q 708 -1 721 0 q 683 -1 696 -1 q 658 -3 671 -3 q 633 -6 646 -4 q 587 -8 610 -7 q 544 -10 564 -10 q 491 -3 511 -10 q 471 21 471 3 q 490 47 474 40 q 524 56 506 53 q 528 56 526 56 q 533 56 531 56 q 564 61 550 57 q 578 79 578 65 q 576 92 578 85 q 568 108 574 99 l 503 263 l 503 263 m 361 635 l 263 383 q 260 372 261 376 q 258 364 258 367 q 269 351 258 353 q 306 349 281 349 l 415 350 q 454 357 449 349 q 460 382 460 365 l 361 635 l 361 635 z "},"B":{"ha":886,"x_min":0,"x_max":864,"o":"m 590 471 q 801 392 739 469 q 864 217 864 315 q 790 67 864 115 q 628 1 717 19 q 538 -8 582 -6 q 460 -11 493 -11 l 33 0 q 8 10 15 0 q 4 32 0 19 q 20 51 8 42 q 54 64 32 60 q 63 64 58 64 q 74 65 68 64 q 113 82 94 68 q 131 129 131 96 l 131 733 q 117 783 131 765 q 68 800 104 800 q 52 799 61 800 q 33 797 43 799 q 12 803 19 797 q 3 815 4 808 q 6 826 3 819 q 15 838 8 832 q 35 851 22 844 q 65 863 47 857 q 168 881 106 874 q 299 893 231 889 q 358 895 328 894 q 415 896 388 896 q 697 856 572 896 q 821 676 821 817 q 771 533 821 569 q 621 476 721 497 q 606 473 614 475 q 590 469 599 471 l 590 471 m 361 415 l 361 153 q 398 76 361 104 q 481 47 435 47 q 515 51 499 47 q 547 64 532 56 q 604 127 586 85 q 622 218 622 169 q 622 231 622 225 q 621 244 622 238 q 588 353 615 301 q 514 425 560 404 q 486 434 503 431 q 453 439 469 438 q 442 440 447 440 q 432 440 438 440 q 383 434 404 440 q 361 414 361 428 l 361 415 m 361 788 l 361 514 q 371 509 361 511 q 397 507 381 507 q 432 509 413 507 q 471 517 451 511 q 545 556 511 528 q 579 642 579 585 q 579 648 579 644 q 579 654 579 651 q 535 791 579 753 q 426 829 492 829 q 378 820 394 829 q 361 786 361 811 l 361 788 z "},"C":{"ha":918,"x_min":22,"x_max":886,"o":"m 864 689 q 865 684 865 686 q 865 679 865 682 q 856 658 865 665 q 836 651 847 651 q 833 651 835 651 q 828 651 831 651 q 806 663 817 654 q 788 688 794 671 q 706 788 761 756 q 585 819 650 819 q 565 819 575 819 q 544 817 556 818 q 415 765 478 807 q 317 654 353 724 q 285 562 296 613 q 275 456 275 511 q 276 428 275 442 q 278 403 276 415 q 351 171 289 278 q 525 42 414 64 q 563 35 544 38 q 597 33 581 33 q 717 72 667 32 q 814 193 768 113 q 817 201 815 197 q 821 207 819 204 q 833 224 824 217 q 851 233 842 232 q 856 235 853 235 q 860 235 858 235 q 878 228 871 235 q 886 207 886 222 l 875 76 q 781 5 875 36 q 560 -26 688 -26 q 509 -25 535 -26 q 457 -19 483 -24 q 276 29 364 -8 q 131 140 189 67 q 75 223 97 181 q 40 307 53 265 q 27 368 32 338 q 22 428 22 399 q 50 581 22 510 q 121 699 78 651 q 254 807 181 767 q 404 865 328 847 q 499 883 451 878 q 589 888 546 888 q 726 876 665 888 q 818 850 788 864 q 835 839 829 844 q 842 829 842 833 l 864 689 l 864 689 z "},"D":{"ha":1061,"x_min":3,"x_max":1022,"o":"m 131 722 q 110 760 131 744 q 33 775 90 775 q 12 785 15 775 q 17 808 8 796 q 40 827 25 818 q 76 840 54 836 q 197 863 135 854 q 322 876 258 872 q 364 878 343 878 q 406 879 385 879 q 687 844 554 879 q 897 732 819 810 q 969 642 942 689 q 1010 550 996 596 q 1019 503 1015 526 q 1022 457 1022 481 q 872 142 1022 281 q 543 -10 722 4 q 524 -10 533 -10 q 506 -11 515 -11 q 502 -11 504 -11 q 499 -11 500 -11 q 495 -11 497 -11 q 492 -11 493 -11 l 142 0 q 131 -1 139 0 q 113 -4 124 -3 q 95 -6 104 -4 q 76 -7 86 -7 q 70 -7 74 -7 q 64 -7 67 -7 q 30 -3 46 -7 q 11 10 14 0 q 18 44 3 33 q 65 64 33 56 q 110 82 90 64 q 131 140 131 100 l 131 722 l 131 722 m 372 743 l 372 153 q 406 78 372 106 q 492 51 440 51 q 538 58 514 51 q 588 76 563 64 q 665 137 628 97 q 733 239 703 176 q 760 331 750 279 q 771 438 771 382 q 770 467 771 453 q 768 497 769 482 q 733 627 760 564 q 656 742 707 690 q 599 781 633 764 q 529 806 565 797 q 499 810 514 808 q 471 813 485 813 q 401 796 429 813 q 372 742 372 779 l 372 743 z "},"E":{"ha":831,"x_min":-3,"x_max":799,"o":"m 131 733 q 112 777 125 767 q 76 794 99 788 q 57 800 68 797 q 33 808 46 803 q 15 818 22 813 q 4 829 7 824 q 3 833 4 831 q 3 836 3 835 q 17 856 1 847 q 61 864 32 864 q 74 864 68 864 q 88 863 81 864 q 133 861 108 863 q 185 857 157 860 q 242 853 211 856 q 306 851 272 851 q 378 853 331 851 q 476 857 425 856 q 481 857 479 857 q 485 857 482 857 q 581 861 535 860 q 656 863 628 863 q 672 863 664 863 q 688 864 681 864 q 702 865 694 864 q 715 865 710 865 q 735 863 728 865 q 743 851 743 860 l 743 667 q 735 650 743 657 q 717 643 728 643 q 697 651 707 643 q 678 676 686 658 q 592 768 646 750 q 481 786 539 786 q 390 771 408 786 q 372 732 372 756 l 372 503 q 388 483 372 488 q 426 478 404 478 q 435 478 431 478 q 444 478 440 478 q 449 478 447 478 q 454 479 451 478 q 468 479 461 479 q 481 479 475 479 q 554 497 533 479 q 583 536 575 515 q 587 547 585 542 q 590 557 589 551 q 606 589 596 578 q 625 604 615 600 q 631 606 628 606 q 636 607 633 607 q 658 597 649 607 q 668 569 668 586 q 668 563 668 567 q 667 557 668 560 q 664 545 665 551 q 663 533 663 539 q 658 497 660 515 q 657 463 657 479 q 658 418 657 439 q 663 379 660 397 q 665 348 664 361 q 667 326 667 335 q 667 324 667 325 q 668 322 667 324 q 668 320 668 321 q 668 319 668 319 q 658 298 668 306 q 635 290 647 290 q 608 299 621 290 q 590 326 594 307 q 544 404 582 383 q 449 425 506 425 q 394 418 415 425 q 372 403 372 411 l 372 153 q 410 76 372 100 q 499 51 447 51 q 522 53 510 51 q 546 56 533 54 q 646 96 599 65 q 711 174 693 126 q 728 203 719 192 q 746 221 736 215 q 760 229 753 226 q 772 232 767 232 q 791 225 783 232 q 799 207 799 218 l 765 22 q 753 -4 763 3 q 722 -11 744 -11 q 688 -9 708 -11 q 638 -6 667 -7 q 567 -1 607 -3 q 476 0 528 0 q 433 0 456 0 q 383 0 410 0 l 76 -11 q 15 -2 33 -11 q -3 19 -3 7 q -2 24 -3 22 q -1 28 -1 26 q 18 50 3 40 q 54 64 33 60 q 117 88 104 72 q 131 151 131 103 l 131 733 l 131 733 z "},"F":{"ha":776,"x_min":15,"x_max":754,"o":"m 142 743 q 123 787 142 775 q 82 803 104 799 q 73 803 78 803 q 64 806 68 804 q 35 813 47 808 q 22 829 22 817 q 40 869 22 860 q 85 878 58 878 q 104 877 94 878 q 124 876 114 876 q 131 875 128 875 q 138 875 133 875 q 151 874 144 874 q 164 874 157 874 q 220 872 186 874 q 289 868 254 871 q 294 868 292 868 q 300 868 297 868 q 372 865 338 867 q 426 863 406 863 q 468 863 447 863 q 510 864 489 864 q 531 865 521 865 q 553 867 542 865 q 613 868 583 867 q 668 869 643 869 q 731 866 707 869 q 754 851 754 863 l 754 678 q 747 653 754 661 q 728 646 739 646 q 723 646 725 646 q 718 647 721 646 q 697 660 707 650 q 678 688 686 669 q 597 779 646 761 q 492 797 549 797 q 401 793 418 797 q 383 764 383 789 l 383 514 q 407 486 383 492 q 458 479 431 481 q 469 479 464 479 q 481 479 475 479 q 558 497 533 479 q 593 536 582 515 q 598 547 596 542 q 601 557 600 551 q 617 589 607 578 q 636 604 626 600 q 642 606 639 606 q 647 607 644 607 q 669 597 660 607 q 679 569 679 586 q 679 563 679 567 q 678 557 679 560 q 675 545 676 551 q 674 533 674 539 q 669 497 671 515 q 668 463 668 479 q 669 418 668 439 q 674 379 671 397 q 676 348 675 361 q 678 326 678 335 q 678 324 678 325 q 679 322 678 324 q 679 320 679 321 q 679 319 679 319 q 669 298 679 306 q 646 290 658 290 q 619 299 632 290 q 601 326 606 307 q 555 404 593 383 q 460 425 517 425 q 405 421 426 425 q 383 392 383 417 l 383 164 q 402 91 383 107 q 443 72 421 75 q 449 72 446 72 q 453 71 451 71 q 485 62 471 68 q 503 32 499 56 q 482 4 503 11 q 429 -3 461 -3 q 400 -2 415 -3 q 369 0 385 -1 q 352 1 361 0 q 335 3 343 1 q 295 8 314 6 q 263 10 276 10 q 224 8 246 10 q 179 4 203 7 q 170 3 175 4 q 161 3 165 3 q 123 1 142 1 q 88 0 104 0 q 32 8 49 0 q 15 29 15 17 q 15 32 15 31 q 17 35 15 33 q 32 51 19 43 q 65 64 44 60 q 128 93 114 72 q 142 163 142 114 l 142 743 l 142 743 z "},"G":{"ha":996,"x_min":22,"x_max":1017,"o":"m 908 317 l 918 121 q 858 40 918 68 q 728 0 799 13 q 647 -8 686 -6 q 579 -11 607 -11 q 269 42 407 -11 q 65 250 131 94 q 33 343 43 299 q 22 431 22 388 q 142 705 22 592 q 407 861 263 818 q 484 878 446 872 q 558 885 522 885 q 598 883 578 885 q 639 881 618 882 q 738 866 690 875 q 814 847 786 857 q 835 838 828 843 q 842 829 842 833 l 864 689 q 853 667 864 675 q 828 657 843 658 q 817 658 822 657 q 806 663 811 660 q 784 678 794 667 q 765 710 774 690 q 718 778 747 756 q 657 810 689 801 q 610 818 633 817 q 568 819 586 819 q 368 708 450 819 q 286 435 286 596 q 296 328 286 383 q 328 217 306 274 q 399 119 353 158 q 497 61 446 81 q 544 47 521 51 q 588 43 567 43 q 660 62 632 43 q 689 119 689 81 l 689 296 q 653 361 689 351 q 568 371 618 371 q 543 377 551 371 q 535 393 535 383 q 535 398 535 396 q 536 401 536 400 q 560 426 542 415 q 613 436 579 436 l 940 438 q 951 436 946 436 q 961 438 957 436 q 971 438 967 438 q 979 438 975 438 q 1007 431 997 438 q 1017 403 1017 425 q 1004 383 1017 389 q 975 371 992 376 q 969 370 972 371 q 963 368 965 369 q 925 351 942 361 q 908 315 908 340 l 908 317 z "},"H":{"ha":1083,"x_min":0,"x_max":1072,"o":"m 700 393 q 690 421 700 417 q 624 425 681 425 l 393 426 q 365 419 369 425 q 361 382 361 414 l 361 131 q 382 76 361 86 q 426 63 403 65 q 429 63 428 63 q 431 63 431 63 q 470 53 453 60 q 492 21 488 47 q 476 -7 492 0 q 433 -14 461 -14 q 392 -12 415 -14 q 344 -7 369 -10 q 289 -2 318 -4 q 229 0 260 0 q 199 -1 215 0 q 168 -3 183 -1 q 160 -3 164 -3 q 153 -4 157 -4 q 115 -7 133 -6 q 79 -8 96 -8 q 22 -1 44 -8 q 0 32 0 7 q 15 58 0 53 q 50 64 29 63 q 58 65 54 64 q 65 65 61 65 q 110 83 90 69 q 131 140 131 96 l 131 733 q 110 781 131 768 q 65 799 90 793 q 60 799 63 799 q 54 800 57 800 q 16 811 32 804 q 0 840 0 818 q 14 866 0 860 q 54 872 28 872 q 92 871 71 872 q 139 868 113 869 q 196 864 165 865 q 263 863 226 863 q 313 864 289 863 q 358 867 338 865 q 397 869 379 868 q 429 871 415 871 q 476 863 460 871 q 492 829 492 854 q 479 811 492 817 q 449 801 467 806 q 438 800 443 801 q 426 797 432 799 q 381 778 401 792 q 361 732 361 765 l 361 525 q 367 494 361 499 q 404 490 372 490 l 667 492 q 696 494 692 490 q 700 524 700 499 l 700 733 q 681 777 700 765 q 640 794 663 789 q 635 795 638 794 q 632 797 633 796 q 595 810 611 801 q 579 840 579 818 q 604 863 579 857 q 667 868 629 868 q 703 867 683 868 q 742 865 722 867 q 745 865 743 865 q 750 865 747 865 q 792 863 771 864 q 831 863 813 863 q 881 863 857 863 q 928 865 906 864 q 969 867 950 867 q 1004 868 988 868 q 1054 863 1036 868 q 1072 840 1072 857 q 1058 811 1072 819 q 1022 797 1043 803 q 1015 794 1018 796 q 1007 792 1011 793 q 961 767 982 783 q 940 710 940 751 l 940 131 q 961 76 940 89 q 1007 58 982 63 q 1013 58 1010 58 q 1021 57 1017 57 q 1057 48 1042 54 q 1072 21 1072 42 q 1051 -3 1072 3 q 997 -10 1029 -10 q 955 -8 978 -10 q 910 -6 932 -7 q 863 -1 886 -3 q 821 0 840 0 q 768 -1 794 0 q 718 -6 742 -3 q 673 -8 694 -7 q 633 -10 651 -10 q 585 -3 603 -10 q 568 21 568 3 q 585 50 568 43 q 622 61 601 57 q 628 62 625 61 q 635 63 631 63 q 679 81 658 68 q 700 129 700 93 l 700 393 l 700 393 z "},"I":{"ha":503,"x_min":22,"x_max":514,"o":"m 142 142 l 142 733 q 123 778 142 765 q 82 799 104 792 q 74 801 78 800 q 68 803 71 801 q 36 816 50 808 q 22 840 22 824 q 37 866 22 860 q 78 872 51 872 q 114 871 94 872 q 157 868 133 869 q 207 864 181 865 q 263 863 233 863 q 320 863 293 863 q 371 865 347 864 q 414 867 394 867 q 449 868 433 868 q 497 863 481 868 q 514 840 514 857 q 497 810 514 818 q 457 797 479 801 q 453 795 456 796 q 449 794 451 794 q 403 777 424 789 q 383 732 383 765 l 383 142 q 403 87 383 101 q 449 65 424 72 q 459 63 454 64 q 468 61 464 63 q 500 51 486 57 q 514 28 514 44 q 514 25 514 26 q 514 21 514 24 q 488 -1 510 4 q 431 -6 465 -6 q 393 -5 413 -6 q 351 -3 374 -4 q 308 -1 331 -1 q 263 0 286 0 q 219 -1 240 0 q 179 -3 199 -1 q 142 -3 160 -3 q 108 -4 124 -4 q 46 3 69 -4 q 22 32 22 10 q 35 55 22 49 q 65 65 49 61 q 74 67 69 67 q 82 69 78 68 q 123 89 104 75 q 142 140 142 103 l 142 142 z "},"J":{"ha":558,"x_min":-168,"x_max":536,"o":"m 175 743 q 154 785 175 775 q 110 800 133 796 q 105 800 107 800 q 100 800 103 800 q 60 811 78 804 q 43 840 43 818 q 65 866 43 860 q 118 872 86 872 q 160 871 138 872 q 207 868 183 869 q 208 867 207 867 q 210 867 210 867 q 254 864 232 865 q 296 863 276 863 q 322 863 308 863 q 350 865 336 864 q 368 866 358 865 q 386 868 378 867 q 429 871 408 869 q 468 872 450 872 q 517 866 499 872 q 536 840 536 860 q 519 808 536 814 q 482 800 503 801 q 479 800 481 800 q 476 800 478 800 q 434 788 453 797 q 415 742 415 779 l 415 175 q 331 -60 415 51 q 131 -229 246 -172 q 56 -258 92 -249 q -11 -268 19 -268 q -122 -231 -81 -268 q -168 -151 -164 -194 q -168 -147 -168 -149 q -168 -143 -168 -144 q -158 -102 -168 -122 q -129 -65 -149 -82 q -100 -51 -117 -56 q -65 -46 -83 -46 q -60 -46 -62 -46 q -57 -46 -58 -46 q 8 -65 -21 -47 q 43 -110 38 -83 q 68 -164 50 -150 q 107 -167 86 -178 q 153 -97 132 -151 q 175 53 175 -42 l 175 743 l 175 743 z "},"K":{"ha":1028,"x_min":-10,"x_max":1050,"o":"m 579 514 l 908 131 q 971 76 942 86 q 1019 63 1000 65 q 1042 54 1033 60 q 1050 32 1050 49 q 1020 -1 1050 7 q 950 -8 990 -8 q 933 -8 942 -8 q 918 -7 925 -8 q 891 -6 904 -7 q 865 -4 878 -6 q 828 -1 846 -3 q 799 0 811 0 q 773 -1 789 0 q 738 -4 757 -3 q 713 -6 726 -6 q 688 -7 700 -7 q 672 -8 679 -8 q 658 -8 665 -8 q 589 -1 619 -8 q 558 32 558 7 q 571 55 558 49 q 599 64 583 61 q 603 65 600 64 q 608 65 606 65 q 628 69 619 67 q 638 81 638 72 q 634 92 638 86 q 624 108 631 99 l 404 372 q 361 413 372 411 q 350 382 350 414 l 350 131 q 370 84 350 96 q 415 67 390 72 q 420 66 418 67 q 424 64 422 65 q 463 51 446 60 q 481 21 481 43 q 463 -3 481 3 q 414 -10 444 -10 q 375 -8 396 -10 q 332 -6 354 -7 q 310 -3 321 -4 q 289 -1 300 -3 q 264 -1 276 -1 q 240 0 251 0 q 227 0 233 0 q 214 0 221 0 q 183 -2 199 -1 q 151 -4 167 -3 q 109 -7 129 -6 q 72 -8 89 -8 q 20 -2 40 -8 q 0 25 0 4 q 0 28 0 26 q 0 32 0 31 q 20 60 4 54 q 56 68 36 65 q 58 68 57 68 q 60 68 58 68 q 102 81 83 71 q 121 129 121 90 l 121 733 q 100 787 121 776 q 56 799 79 797 q 51 799 53 799 q 47 799 49 799 q 8 804 25 799 q -10 840 -10 810 q 7 863 -10 857 q 57 868 24 868 q 95 867 74 868 q 140 865 117 867 q 193 863 165 864 q 251 863 221 863 q 295 863 274 863 q 338 865 317 864 q 376 867 357 867 q 410 868 394 868 q 461 863 442 868 q 481 840 481 857 q 462 806 481 813 q 419 796 443 799 q 417 796 418 796 q 415 796 417 796 q 370 783 390 792 q 350 742 350 775 l 350 503 q 352 483 350 489 q 360 478 354 478 q 381 490 367 478 q 415 524 396 503 l 646 754 q 651 759 649 756 q 656 767 654 763 q 658 773 657 769 q 658 779 658 776 q 640 808 660 796 q 590 819 621 819 q 566 828 574 819 q 560 847 558 836 q 571 865 561 857 q 601 874 581 874 l 929 875 q 960 867 950 874 q 974 850 971 860 q 974 849 974 850 q 974 847 974 849 q 963 828 974 838 q 933 818 953 819 q 926 818 931 818 q 918 819 922 818 q 867 811 896 819 q 807 788 838 803 q 780 772 793 781 q 754 753 767 763 l 568 590 q 566 586 567 588 q 564 583 565 585 q 557 572 560 579 q 554 556 554 564 q 560 535 554 546 q 579 513 565 524 l 579 514 z "},"L":{"ha":754,"x_min":0,"x_max":765,"o":"m 131 142 l 131 733 q 110 778 131 765 q 65 797 90 792 q 54 800 60 799 q 43 801 49 801 q 13 811 25 806 q 0 829 0 817 q 17 863 0 854 q 68 871 35 871 q 104 869 85 871 q 147 867 124 868 q 197 864 171 865 q 251 863 222 863 q 287 864 268 863 q 325 867 306 865 q 328 867 326 867 q 329 867 329 867 q 369 869 350 868 q 407 871 389 871 q 467 863 443 871 q 492 829 492 854 q 477 803 492 808 q 442 797 463 799 q 434 797 438 797 q 426 796 431 796 q 381 778 401 792 q 361 721 361 765 l 361 164 q 394 82 361 107 q 475 56 428 57 q 499 57 486 56 q 524 61 511 58 q 613 101 571 72 q 678 174 656 131 q 693 197 685 188 q 710 214 701 207 q 724 221 717 218 q 736 224 731 224 q 757 215 749 225 q 765 185 765 204 l 733 11 q 707 -3 733 0 q 638 -7 681 -7 q 575 -6 608 -7 q 507 -4 542 -4 q 499 -3 503 -3 q 493 -3 496 -3 q 431 -1 461 -1 q 372 0 400 0 q 283 -1 325 0 q 206 -6 242 -3 q 139 -8 169 -7 q 83 -10 108 -10 q 22 -3 43 -10 q 0 21 0 3 q 15 49 0 42 q 50 61 31 57 q 58 63 54 61 q 65 64 61 64 q 110 85 90 71 q 131 140 131 100 l 131 142 z "},"M":{"ha":1192,"x_min":0,"x_max":1181,"o":"m 601 328 l 810 842 q 814 848 813 844 q 817 853 815 851 q 828 861 821 860 q 853 863 835 863 l 1093 864 q 1143 853 1129 863 q 1158 832 1157 843 q 1158 830 1158 831 q 1158 828 1158 829 q 1144 807 1156 817 q 1115 797 1132 797 q 1067 785 1085 797 q 1043 760 1050 774 q 1040 751 1042 756 q 1039 742 1039 746 l 1050 142 q 1070 77 1050 93 q 1115 57 1090 61 q 1126 55 1121 56 q 1138 54 1132 54 q 1168 47 1156 51 q 1181 28 1181 43 q 1181 25 1181 26 q 1181 21 1181 24 q 1161 -3 1181 3 q 1111 -10 1142 -10 q 1072 -8 1093 -10 q 1028 -6 1050 -7 q 1021 -4 1024 -4 q 1014 -4 1018 -4 q 977 -1 996 -3 q 940 0 958 0 q 892 -1 915 0 q 844 -6 868 -3 q 801 -8 822 -7 q 764 -10 781 -10 q 717 -3 735 -10 q 700 21 700 3 q 717 54 700 49 q 757 60 735 60 q 759 60 758 60 q 761 61 760 60 q 802 68 783 61 q 821 108 821 75 l 810 667 l 558 43 q 538 10 550 21 q 511 0 525 0 q 489 8 500 0 q 471 32 478 17 l 208 667 l 186 131 q 210 83 186 93 q 263 68 233 72 q 269 68 265 68 q 275 68 272 68 q 319 60 300 65 q 339 32 339 54 q 323 -1 339 7 q 281 -8 307 -8 q 253 -7 268 -8 q 224 -4 239 -6 q 214 -3 219 -4 q 204 -3 208 -3 q 183 -1 193 -1 q 164 0 174 0 q 143 -1 156 0 q 115 -6 131 -3 q 103 -6 110 -6 q 89 -8 96 -7 q 73 -9 81 -8 q 57 -10 65 -10 q 17 -3 33 -10 q 0 21 0 3 q 16 50 0 43 q 53 61 32 57 q 56 61 54 61 q 61 63 58 61 q 102 76 83 67 q 121 119 121 86 l 153 754 q 126 792 153 786 q 65 797 99 797 q 33 806 43 797 q 21 825 22 815 q 21 827 21 826 q 21 829 21 828 q 37 852 22 842 q 76 863 51 863 l 328 864 q 351 861 343 863 q 364 853 358 860 q 372 840 368 849 q 383 819 376 832 l 601 328 l 601 328 z "},"N":{"ha":996,"x_min":0,"x_max":985,"o":"m 788 339 l 788 743 q 765 787 788 775 q 717 803 743 799 q 706 803 711 803 q 696 806 700 804 q 660 813 675 808 q 646 829 646 817 q 664 863 646 854 q 708 871 682 871 q 738 869 722 871 q 769 867 753 868 q 772 867 771 867 q 775 867 774 867 q 803 864 789 865 q 831 863 817 863 q 861 864 846 863 q 892 868 876 865 q 919 871 906 869 q 943 872 932 872 q 974 866 963 872 q 985 840 985 860 q 985 837 985 839 q 985 832 985 835 q 971 808 985 813 q 938 804 957 804 q 931 804 935 804 q 925 803 928 804 q 883 792 901 803 q 864 742 864 781 l 864 -11 q 854 -28 864 -22 q 829 -35 844 -35 q 824 -35 826 -35 q 817 -33 821 -35 q 794 -26 806 -32 q 776 -11 783 -21 l 197 700 l 197 164 q 223 87 197 106 q 279 64 249 68 q 293 63 286 64 q 306 63 300 63 q 345 56 329 60 q 361 32 361 51 q 345 4 361 11 q 306 -3 329 -3 q 282 -2 294 -3 q 258 0 269 -1 q 245 1 251 0 q 232 3 239 1 q 201 8 215 6 q 175 10 186 10 q 149 8 164 10 q 117 3 133 6 q 108 1 113 1 q 99 0 103 0 q 74 -1 86 0 q 51 -3 63 -3 q 15 3 29 -3 q 0 32 0 10 q 15 58 0 53 q 50 64 29 63 q 58 65 54 64 q 65 65 61 65 q 110 83 90 69 q 131 140 131 96 l 131 743 q 112 791 131 779 q 71 807 93 803 q 60 808 65 807 q 51 808 56 808 q 23 813 35 810 q 11 829 11 817 q 28 864 11 854 q 76 874 44 874 l 317 875 q 349 872 339 874 q 367 864 358 871 q 374 854 369 860 q 383 840 378 849 l 788 339 l 788 339 z "},"O":{"ha":1061,"x_min":22,"x_max":1029,"o":"m 22 460 q 187 784 33 676 q 521 892 340 892 q 523 892 522 892 q 525 892 524 892 q 867 778 711 890 q 1028 447 1024 667 q 1028 443 1028 446 q 1028 438 1028 440 q 876 97 1029 211 q 538 -18 724 -17 q 531 -18 535 -18 q 525 -18 528 -18 q 183 104 339 -14 q 22 458 26 222 l 22 460 m 274 449 q 363 159 288 258 q 525 44 438 60 q 540 42 532 43 q 554 42 547 42 q 717 131 644 42 q 789 392 789 219 q 789 400 789 396 q 789 408 789 404 q 788 417 788 413 q 788 425 788 421 q 702 722 779 619 q 533 836 625 824 q 522 837 528 836 q 510 838 515 838 q 346 749 419 839 q 272 481 272 658 q 272 472 272 476 q 274 464 272 468 q 274 456 274 460 q 274 447 274 451 l 274 449 z "},"P":{"ha":831,"x_min":0,"x_max":843,"o":"m 361 372 l 361 142 q 381 87 361 101 q 426 65 401 72 q 437 63 432 64 q 446 61 442 63 q 478 51 464 57 q 492 28 492 44 q 492 25 492 26 q 492 21 492 24 q 472 -3 488 3 q 428 -10 456 -10 q 392 -8 411 -10 q 350 -6 372 -7 q 303 -1 328 -3 q 251 0 279 0 q 207 -1 229 0 q 164 -4 185 -3 q 124 -7 143 -6 q 88 -8 104 -8 q 32 -1 53 -8 q 11 32 11 7 q 26 56 11 50 q 61 65 42 61 q 66 66 64 65 q 71 67 68 67 q 112 81 93 71 q 131 119 131 90 l 131 754 q 110 790 131 782 q 65 800 90 797 q 60 800 63 800 q 56 800 58 800 q 17 806 35 801 q 0 829 0 811 q 19 863 0 854 q 68 871 38 871 q 101 869 83 871 q 138 867 118 868 q 171 864 154 865 q 204 863 188 863 q 212 863 208 863 q 218 863 215 863 q 295 864 263 863 q 358 867 328 865 q 367 868 363 868 q 374 868 371 868 q 449 872 410 871 q 547 874 489 874 q 604 867 571 874 q 674 849 638 861 q 771 793 725 829 q 831 699 817 757 q 839 660 836 679 q 842 622 842 642 q 763 435 843 511 q 571 358 682 358 q 563 358 567 358 q 554 358 558 358 q 544 359 549 358 q 536 360 540 360 q 477 367 503 363 q 433 379 451 372 q 374 399 388 393 q 361 371 361 406 l 361 372 m 361 492 q 363 483 361 488 q 365 476 364 479 q 399 449 375 461 q 453 435 424 436 q 478 438 465 435 q 503 447 490 442 q 581 529 560 479 q 601 644 601 579 q 560 747 597 708 q 481 799 524 786 q 458 804 469 803 q 438 806 447 806 q 384 790 407 806 q 361 742 361 774 l 361 492 l 361 492 z "},"Q":{"ha":1061,"x_min":28,"x_max":1051,"o":"m 393 -11 q 205 72 276 14 q 94 194 133 131 q 61 263 74 229 q 43 326 49 297 q 33 385 36 356 q 29 442 29 414 q 128 726 28 603 q 383 885 229 850 q 455 899 419 894 q 525 903 490 903 q 879 778 724 903 q 1035 454 1035 654 q 1033 414 1035 435 q 1028 371 1032 393 q 1027 368 1028 369 q 1026 365 1026 367 q 995 241 1014 294 q 931 138 976 188 q 906 112 919 125 q 875 86 892 99 q 751 17 810 33 q 674 -11 693 0 q 667 -17 669 -14 q 667 -22 665 -19 q 669 -25 668 -24 q 671 -28 669 -26 q 713 -64 683 -42 q 788 -153 743 -86 q 832 -185 803 -174 q 892 -200 861 -196 q 906 -201 899 -200 q 919 -201 913 -201 q 942 -201 931 -201 q 963 -197 953 -200 q 978 -194 971 -196 q 993 -193 986 -193 q 1039 -210 1026 -193 q 1014 -246 1051 -226 q 958 -267 994 -257 q 864 -285 921 -278 q 850 -287 857 -286 q 836 -287 843 -287 q 822 -287 829 -287 q 808 -287 815 -287 q 786 -287 797 -287 q 764 -286 775 -287 q 547 -224 646 -278 q 449 -86 449 -169 q 449 -83 449 -85 q 449 -82 449 -82 q 449 -79 449 -81 q 449 -76 449 -78 q 449 -70 449 -74 q 450 -64 450 -67 q 451 -58 450 -61 q 451 -50 451 -54 q 441 -27 451 -37 q 393 -11 431 -17 l 393 -11 m 285 438 q 378 148 307 247 q 532 33 450 49 q 547 31 539 32 q 561 31 554 31 q 719 124 650 31 q 789 393 789 217 q 789 420 789 407 q 788 447 789 433 q 702 729 779 631 q 535 839 625 828 q 524 840 529 839 q 514 840 519 840 q 354 753 425 840 q 283 488 283 665 q 283 463 283 475 q 285 436 283 450 l 285 438 z "},"R":{"ha":918,"x_min":11,"x_max":951,"o":"m 590 460 q 697 390 656 449 q 771 263 739 331 q 786 232 779 247 q 800 201 793 217 q 826 151 813 175 q 853 108 839 126 q 863 97 858 101 q 874 88 868 92 q 900 73 888 78 q 924 64 913 68 q 944 53 936 60 q 951 32 951 47 q 940 7 951 14 q 908 0 928 0 q 883 1 896 0 q 856 6 869 3 q 847 6 851 6 q 839 7 843 7 q 819 9 829 8 q 799 10 808 10 q 773 8 786 10 q 746 6 760 7 q 741 6 743 6 q 736 6 739 6 q 706 1 721 3 q 678 0 690 0 q 657 2 665 0 q 646 10 649 4 l 449 383 q 432 408 442 399 q 411 419 422 417 q 405 420 408 419 q 399 421 401 421 q 381 415 389 421 q 372 403 372 410 l 372 131 q 392 85 372 96 q 438 68 413 74 q 445 67 442 67 q 451 65 449 67 q 488 56 472 61 q 503 32 503 50 q 484 4 503 11 q 436 -3 465 -3 q 390 -1 415 -3 q 340 3 365 0 q 339 3 340 3 q 338 3 338 3 q 293 8 315 6 q 251 10 271 10 q 217 8 238 10 q 174 3 196 6 q 158 1 165 1 q 142 0 150 0 q 110 -2 126 -1 q 81 -3 94 -3 q 31 3 50 -3 q 11 26 11 8 q 11 29 11 28 q 11 32 11 31 q 30 59 15 53 q 63 68 44 65 q 67 69 65 68 q 71 69 68 69 q 112 85 93 74 q 131 140 131 97 l 131 754 q 112 795 131 785 q 71 810 93 806 q 65 810 68 810 q 60 811 63 811 q 26 821 40 815 q 11 843 11 826 q 11 846 11 844 q 11 849 11 847 q 11 851 11 850 q 11 851 11 851 q 32 874 11 868 q 92 879 53 879 q 135 878 111 879 q 185 876 158 878 q 242 874 213 875 q 306 874 272 874 q 358 874 332 874 q 411 876 385 875 q 463 877 438 876 q 514 878 489 878 q 731 840 642 878 q 821 654 821 803 q 751 516 821 565 q 590 458 681 467 l 590 460 m 372 514 q 385 488 372 496 q 417 479 397 479 q 440 481 428 479 q 467 489 453 483 q 479 494 472 492 q 492 501 486 497 q 553 560 529 519 q 579 646 578 601 q 579 650 579 649 q 579 653 579 651 q 577 682 579 668 q 568 710 575 696 q 531 763 551 742 q 488 796 510 785 q 459 808 474 804 q 432 811 444 811 q 390 799 407 811 q 372 764 372 786 l 372 514 l 372 514 z "},"S":{"ha":722,"x_min":33,"x_max":685,"o":"m 33 240 q 42 266 33 257 q 63 275 50 275 q 71 274 67 275 q 79 271 75 272 q 105 242 93 263 q 121 185 117 221 q 182 74 126 110 q 304 39 238 39 q 362 45 333 39 q 415 64 390 51 q 476 117 456 83 q 496 186 496 150 q 496 191 496 189 q 496 194 496 193 q 472 263 494 231 q 404 315 449 296 q 337 345 374 329 q 261 381 300 361 q 107 478 176 421 q 36 624 38 536 q 38 649 36 636 q 43 676 39 663 q 179 840 76 783 q 438 896 282 896 q 468 894 451 896 q 501 890 485 893 q 578 868 543 883 q 613 829 613 853 l 613 689 q 605 652 613 664 q 586 640 597 640 q 581 641 583 640 q 574 643 578 642 q 551 666 563 649 q 536 710 540 683 q 476 801 521 768 q 381 835 432 833 q 378 835 379 835 q 375 835 376 835 q 315 823 344 835 q 263 786 285 811 q 235 745 244 764 q 226 711 226 726 q 278 639 226 667 q 397 586 331 611 q 410 581 404 583 q 424 576 417 579 q 517 538 472 558 q 590 490 563 518 q 654 403 632 449 q 682 311 676 358 q 683 298 682 304 q 683 285 683 292 q 613 107 685 190 q 404 -11 542 24 q 355 -19 381 -17 q 301 -22 329 -22 q 288 -22 294 -22 q 276 -22 282 -22 q 109 10 185 -18 q 33 86 33 39 l 33 240 l 33 240 z "},"T":{"ha":831,"x_min":-11,"x_max":831,"o":"m 296 788 q 284 800 296 796 q 253 804 272 804 q 237 803 246 804 q 219 801 228 803 q 208 799 214 800 q 197 797 203 799 q 175 790 186 794 q 153 776 164 785 q 106 735 129 761 q 65 676 82 710 q 51 659 60 665 q 35 650 43 653 q 28 649 31 650 q 22 649 25 649 q -1 656 8 649 q -11 678 -11 664 q -11 681 -11 679 q -11 683 -11 682 q -10 685 -11 683 q -10 688 -10 686 l 43 886 q 54 907 43 899 q 79 915 65 915 q 99 911 90 915 q 110 896 107 907 q 112 891 111 893 q 113 886 113 889 q 129 865 121 868 q 153 863 138 863 l 700 864 q 711 863 706 863 q 724 864 717 863 q 748 872 736 865 q 765 896 760 879 q 779 913 769 907 q 799 918 789 918 q 821 910 811 918 q 831 885 831 903 l 810 678 q 809 671 810 674 q 807 665 808 668 q 792 651 801 658 q 772 644 783 644 q 767 645 769 644 q 761 646 764 646 q 745 660 753 650 q 733 688 738 669 q 692 767 717 744 q 635 797 667 789 q 605 805 618 803 q 582 807 592 807 q 548 798 558 807 q 536 779 538 789 q 536 777 536 778 q 536 775 536 776 l 536 142 q 555 81 536 96 q 596 60 574 65 q 603 59 600 60 q 611 57 607 58 q 642 48 629 54 q 656 21 656 42 q 640 -7 656 0 q 596 -14 624 -14 q 557 -12 578 -14 q 514 -7 536 -10 q 502 -5 508 -6 q 490 -4 496 -4 q 458 -1 474 -3 q 426 0 442 0 q 408 0 417 0 q 389 0 399 0 q 341 -1 364 0 q 297 -6 318 -3 q 258 -9 276 -7 q 225 -11 240 -11 q 189 -5 203 -11 q 175 21 175 1 q 189 49 175 42 q 222 61 203 57 q 228 63 225 61 q 236 64 232 64 q 277 85 258 71 q 296 140 296 100 l 296 788 l 296 788 z "},"U":{"ha":974,"x_min":-21,"x_max":996,"o":"m 110 754 q 89 792 110 782 q 44 806 68 801 q 39 806 42 806 q 33 807 36 806 q -5 816 11 810 q -21 840 -21 822 q -1 866 -21 860 q 50 872 18 872 q 91 871 69 872 q 136 868 113 869 q 151 866 143 867 q 167 865 160 865 q 199 863 183 864 q 229 863 214 863 q 285 864 258 863 q 335 868 311 865 q 378 871 358 869 q 414 872 397 872 q 456 866 442 872 q 471 840 471 860 q 455 811 471 818 q 418 800 439 804 q 415 800 417 800 q 411 800 413 800 q 369 785 388 796 q 350 742 350 775 l 350 285 q 419 93 350 150 q 571 36 488 36 q 574 36 572 36 q 579 36 576 36 q 730 86 661 39 q 799 207 799 133 l 799 743 q 776 790 799 779 q 728 803 754 800 q 718 803 722 803 q 710 803 714 803 q 672 808 689 804 q 656 829 656 813 q 672 863 656 854 q 714 871 688 871 q 741 869 726 871 q 771 867 756 868 q 781 866 775 867 q 790 865 786 865 q 811 863 801 864 q 831 863 821 863 q 865 863 849 863 q 897 865 882 864 q 924 867 911 867 q 949 868 938 868 q 984 863 972 868 q 996 840 996 857 q 982 812 996 817 q 950 806 968 807 q 942 806 946 806 q 936 806 939 806 q 894 788 913 803 q 875 721 875 774 l 875 208 q 794 48 875 103 q 615 -24 713 -7 q 563 -31 589 -29 q 514 -33 538 -33 q 213 41 317 -33 q 110 304 110 115 l 110 754 l 110 754 z "},"V":{"ha":886,"x_min":-32,"x_max":929,"o":"m 536 296 l 722 765 q 720 798 733 792 q 686 804 707 804 q 681 804 683 804 q 676 804 679 804 q 674 804 675 804 q 674 804 674 804 q 639 808 654 806 q 624 829 624 811 q 624 831 624 831 q 624 833 624 832 q 622 835 622 835 q 622 838 622 836 q 636 864 622 857 q 669 871 650 871 q 690 870 679 871 q 710 868 700 869 q 715 867 713 868 q 718 867 717 867 q 743 864 731 865 q 765 863 756 863 q 790 864 776 863 q 819 868 804 865 q 824 868 822 868 q 829 868 826 868 q 853 871 842 869 q 876 872 865 872 q 915 866 900 872 q 929 840 929 860 q 914 813 929 817 q 879 808 899 808 q 876 808 878 808 q 874 808 875 808 q 871 808 872 808 q 868 808 869 808 q 833 802 850 807 q 810 775 817 797 l 481 0 q 467 -12 478 -8 q 443 -17 456 -17 q 419 -12 431 -17 q 404 0 408 -8 l 76 765 q 56 791 68 783 q 32 800 44 799 q 22 801 26 801 q 11 801 17 801 q 9 801 10 801 q 7 801 8 801 q -20 808 -8 803 q -32 840 -32 813 q -17 866 -32 860 q 22 872 -3 872 q 59 871 39 872 q 103 868 79 869 q 153 864 126 865 q 208 863 179 863 q 260 864 235 863 q 306 868 285 865 q 347 871 328 869 q 382 872 367 872 q 423 866 408 872 q 438 840 438 860 q 424 807 438 814 q 393 800 411 800 q 385 800 389 800 q 379 801 382 800 q 372 801 375 801 q 364 801 368 801 q 342 798 351 801 q 333 781 333 794 q 335 768 333 775 q 339 753 336 761 l 536 296 l 536 296 z "},"W":{"ha":1301,"x_min":-33,"x_max":1347,"o":"m 678 328 l 503 0 q 487 -19 499 -12 q 460 -25 475 -25 q 433 -19 446 -25 q 415 0 419 -12 l 88 754 q 64 792 76 779 q 38 807 51 804 q 22 810 29 810 q 7 811 14 811 q -22 813 -10 810 q -33 839 -33 817 q -33 842 -33 840 q -33 846 -33 843 q -32 849 -32 847 q -32 851 -32 850 q -16 866 -32 863 q 24 869 0 869 q 59 869 40 869 q 96 867 78 868 q 98 867 97 867 q 100 865 99 867 q 139 864 119 865 q 175 863 158 863 q 213 865 192 863 q 254 869 233 867 q 295 873 275 871 q 332 875 315 875 q 369 870 356 875 q 383 851 383 865 q 374 819 383 826 q 354 810 365 811 q 350 810 351 810 q 347 810 349 810 q 326 810 335 811 q 317 794 317 808 q 319 778 317 789 q 328 753 322 768 l 547 251 l 613 361 q 616 368 614 364 q 619 375 618 372 q 622 382 621 379 q 625 388 624 385 q 631 404 628 396 q 633 422 633 413 q 631 440 633 431 q 624 458 629 449 l 492 754 q 475 785 485 774 q 456 803 465 797 q 439 812 447 808 q 424 817 431 815 q 408 825 414 821 q 403 840 403 829 q 403 846 403 843 q 404 851 403 849 q 425 871 404 868 q 471 874 446 874 l 951 875 q 993 867 979 874 q 1011 854 1007 861 q 1015 847 1014 850 q 1017 840 1017 843 q 1008 815 1017 819 q 986 808 999 810 q 973 806 979 807 q 960 801 967 804 q 944 792 951 799 q 929 775 936 786 l 831 613 q 823 590 826 597 q 818 576 819 583 q 817 573 817 575 q 817 568 817 571 q 818 558 817 564 q 821 546 819 553 l 940 274 l 1138 743 q 1144 761 1142 753 q 1146 775 1146 769 q 1133 798 1146 793 q 1103 804 1119 803 q 1074 811 1088 807 q 1061 832 1061 815 q 1061 835 1061 833 q 1061 838 1061 836 q 1061 840 1061 839 q 1061 840 1061 840 q 1076 866 1065 860 q 1104 872 1088 872 q 1126 871 1115 872 q 1150 868 1138 869 q 1176 864 1163 865 q 1203 863 1189 863 q 1210 863 1207 863 q 1217 863 1214 863 q 1235 863 1226 863 q 1253 865 1244 864 q 1276 866 1265 865 q 1297 867 1288 867 q 1333 861 1319 867 q 1347 839 1346 856 q 1347 836 1347 838 q 1347 835 1347 835 q 1346 832 1346 833 q 1346 829 1346 831 q 1338 810 1344 815 q 1322 804 1331 804 q 1315 805 1318 804 q 1307 806 1311 806 q 1300 806 1304 806 q 1292 807 1296 807 q 1281 806 1286 807 q 1269 803 1275 806 q 1246 783 1257 797 q 1225 742 1235 769 l 908 0 q 893 -17 904 -11 q 871 -25 882 -24 q 868 -25 869 -25 q 865 -25 867 -25 q 838 -19 851 -25 q 821 0 825 -12 l 678 328 l 678 328 m 765 635 l 831 754 q 835 765 833 760 q 838 775 838 769 q 819 802 838 793 q 779 811 801 811 q 777 811 778 811 q 775 811 776 811 q 773 811 774 811 q 771 811 772 811 q 729 801 749 810 q 710 775 710 792 q 710 770 710 774 q 711 764 710 767 l 765 635 l 765 635 z "},"X":{"ha":974,"x_min":-21,"x_max":1006,"o":"m 438 361 l 285 142 q 279 131 282 136 q 275 121 276 126 q 272 110 272 115 q 271 101 271 106 q 281 75 271 86 q 317 64 292 64 q 376 60 358 64 q 393 32 393 56 q 370 0 390 8 q 322 -8 350 -8 q 290 -7 307 -8 q 256 -4 274 -6 q 254 -3 256 -3 q 251 -3 253 -3 q 219 -1 235 -1 q 189 0 204 0 q 177 0 183 0 q 164 0 171 0 q 140 -1 154 0 q 111 -4 126 -3 q 94 -6 103 -6 q 78 -7 86 -7 q 62 -8 69 -8 q 47 -8 54 -8 q -1 -2 19 -8 q -21 25 -21 4 q -21 28 -21 26 q -21 32 -21 31 q -3 54 -17 49 q 33 63 11 60 q 72 67 51 64 q 113 81 92 71 q 145 99 129 88 q 175 129 161 111 l 350 361 q 370 385 363 375 q 381 403 378 394 q 378 421 382 411 q 361 447 374 431 l 110 776 q 85 795 99 789 q 57 804 71 801 q 42 806 49 806 q 28 808 35 807 q -7 815 7 810 q -21 840 -21 819 q 3 871 -21 864 q 67 878 28 878 q 101 877 83 878 q 139 876 119 876 q 178 874 158 875 q 218 874 197 874 q 281 874 251 874 q 336 876 310 875 q 384 878 361 878 q 425 879 407 879 q 483 874 463 879 q 503 851 503 868 q 497 818 503 828 q 460 808 492 808 q 415 803 428 808 q 400 789 401 799 q 401 783 400 786 q 404 775 403 779 l 547 568 l 667 743 q 667 743 667 742 q 669 744 668 744 q 674 757 672 750 q 676 771 676 764 q 676 773 676 772 q 676 775 676 774 q 666 798 675 788 q 635 808 657 808 q 589 813 610 808 q 568 840 568 817 q 587 871 568 864 q 639 878 606 878 q 668 877 653 878 q 701 876 683 876 q 737 874 718 875 q 776 874 756 874 q 818 874 799 874 q 854 876 838 875 q 885 877 871 876 q 913 878 900 878 q 958 871 943 878 q 974 840 974 864 q 958 817 974 821 q 921 813 943 813 q 892 812 907 813 q 864 808 878 811 q 819 791 838 803 q 789 767 801 779 q 776 753 782 760 q 765 742 771 747 l 613 558 q 600 538 604 544 q 596 524 596 531 q 600 510 596 518 q 613 490 604 503 l 908 99 q 927 77 917 83 q 949 68 938 71 q 959 66 954 67 q 969 64 964 65 q 995 58 985 63 q 1006 32 1006 53 q 984 -1 1006 7 q 926 -8 963 -8 q 888 -7 908 -8 q 844 -4 867 -6 q 808 -1 826 -3 q 771 0 790 0 q 763 0 767 0 q 754 0 758 0 q 716 -1 736 0 q 675 -4 696 -3 q 633 -7 654 -6 q 594 -8 613 -8 q 537 -2 560 -8 q 514 25 514 4 q 514 27 514 26 q 514 29 514 28 q 514 30 514 29 q 514 32 514 31 q 531 56 517 50 q 563 63 546 61 q 568 63 565 63 q 574 64 571 64 q 610 74 599 65 q 590 129 622 83 l 438 361 l 438 361 z "},"Y":{"ha":940,"x_min":-42,"x_max":974,"o":"m 558 492 l 722 743 q 728 755 726 749 q 731 768 731 761 q 715 803 731 788 q 667 819 699 819 q 656 819 661 819 q 647 819 651 819 q 639 818 643 818 q 631 818 635 818 q 609 824 617 818 q 601 851 601 829 q 617 874 601 868 q 658 879 632 879 q 687 878 671 879 q 721 876 703 878 q 758 874 739 875 q 799 874 778 874 q 838 874 819 874 q 872 876 856 875 q 901 878 888 878 q 926 879 915 879 q 962 874 950 879 q 974 851 974 868 q 963 818 974 824 q 935 813 953 813 q 892 804 917 811 q 842 764 868 797 l 590 415 l 590 142 q 611 87 590 100 q 657 69 632 74 q 663 69 660 69 q 671 68 667 68 q 707 59 692 65 q 722 32 722 53 q 708 7 722 14 q 667 0 693 0 q 630 1 650 0 q 586 6 610 3 q 536 8 563 7 q 481 10 510 10 q 418 8 447 10 q 364 3 389 6 q 318 -1 339 0 q 281 -3 297 -3 q 242 3 256 -3 q 229 32 229 10 q 247 61 229 54 q 288 71 264 68 q 291 72 289 71 q 296 72 293 72 q 340 86 319 76 q 361 129 361 96 l 361 383 l 76 776 q 65 788 71 782 q 53 797 58 793 q 23 808 38 806 q -3 814 8 811 q -31 821 -19 815 q -42 851 -42 826 q -22 877 -42 871 q 28 883 -3 883 q 69 882 47 883 q 115 879 92 881 q 129 877 122 878 q 143 876 136 876 q 176 874 160 875 q 208 874 193 874 q 275 875 244 874 q 332 879 306 876 q 378 882 357 881 q 417 883 400 883 q 458 877 444 883 q 471 851 471 871 q 458 824 471 828 q 404 819 446 819 q 368 804 381 819 q 372 764 356 789 l 558 492 l 558 492 z "},"Z":{"ha":864,"x_min":17,"x_max":858,"o":"m 514 765 q 531 799 531 789 q 481 808 531 808 l 404 810 q 275 789 324 808 q 186 721 226 769 q 144 676 164 690 q 111 663 124 663 q 92 670 99 661 q 86 693 86 679 q 86 701 86 697 q 88 710 86 706 l 142 886 q 154 915 142 904 q 181 925 167 925 q 198 921 190 925 q 208 907 206 917 q 226 878 215 882 q 263 874 238 874 l 776 875 q 842 858 825 874 q 842 819 858 843 l 383 164 q 336 90 342 106 q 372 75 331 75 l 590 76 q 698 106 647 75 q 765 217 749 136 q 779 245 768 232 q 803 263 790 258 q 808 265 806 264 q 814 265 811 265 q 833 252 825 265 q 842 207 842 239 l 842 43 q 832 5 842 10 q 765 0 822 0 l 65 0 q 28 7 39 0 q 18 28 18 14 q 24 56 17 40 q 43 86 32 71 l 514 765 l 514 765 z "},"[":{"ha":393,"x_min":43,"x_max":389,"o":"m 43 940 q 53 974 43 964 q 88 983 63 983 l 339 985 q 375 972 363 983 q 388 946 388 961 q 376 919 389 932 q 339 907 364 907 l 251 908 q 217 893 226 907 q 208 863 208 879 l 208 -54 q 219 -94 208 -79 q 263 -110 229 -110 l 350 -110 q 374 -122 365 -110 q 382 -147 382 -133 q 374 -174 382 -162 q 350 -186 367 -186 l 88 -186 q 53 -178 63 -186 q 43 -153 43 -169 l 43 940 l 43 940 z "},"\\":{"ha":754,"x_min":88,"x_max":601,"o":"m 471 0 l 88 985 l 218 985 l 601 0 l 471 0 l 471 0 z "},"]":{"ha":393,"x_min":-6,"x_max":328,"o":"m 328 940 l 328 -131 q 317 -175 328 -164 q 274 -186 306 -186 l 43 -186 q 8 -175 19 -186 q -4 -149 -4 -164 q 6 -122 -6 -135 q 43 -110 18 -110 l 121 -110 q 158 -97 153 -110 q 164 -43 164 -85 l 164 842 q 157 890 164 874 q 110 907 150 907 l 43 908 q 6 917 17 907 q -4 940 -4 926 q -4 942 -4 942 q -4 944 -4 943 q 10 971 -3 958 q 43 983 22 983 l 263 985 q 319 974 311 983 q 328 939 328 964 l 328 940 z "},"^":{"ha":776,"x_min":33,"x_max":765,"o":"m 393 743 l 153 208 l 33 208 l 339 875 l 449 875 l 765 208 l 646 208 l 393 743 l 393 743 z "},"_":{"ha":700,"x_min":-11,"x_max":700,"o":"m -11 -110 l 700 -110 l 700 -186 l -11 -186 l -11 -110 l -11 -110 z "},"`":{"ha":558,"x_min":83,"x_max":465,"o":"m 438 810 q 449 797 444 803 q 458 786 454 792 q 463 775 461 781 q 465 764 465 769 q 456 745 465 753 q 428 738 447 738 q 413 739 421 738 q 393 742 404 740 l 153 799 q 101 826 118 804 q 85 872 85 847 q 103 923 83 900 q 160 946 124 946 q 192 942 175 946 q 229 928 210 938 l 438 810 l 438 810 z "},"a":{"ha":722,"x_min":35,"x_max":744,"o":"m 415 415 l 415 536 q 401 579 415 563 q 364 597 388 596 q 328 587 347 597 q 289 553 308 576 q 264 517 276 538 q 240 469 251 496 q 238 466 239 468 q 235 463 238 464 q 197 438 224 450 q 139 419 169 426 q 115 415 126 417 q 92 414 103 414 q 53 421 69 414 q 38 446 38 428 q 39 458 38 451 q 43 469 40 464 q 167 599 74 551 q 365 653 260 646 q 385 653 375 653 q 404 654 394 654 q 565 620 494 654 q 635 513 635 586 l 635 142 q 640 113 635 121 q 651 104 644 106 q 669 109 660 104 q 689 121 679 114 q 690 122 689 122 q 692 124 692 122 q 725 141 710 135 q 743 129 740 147 q 743 127 743 128 q 744 125 743 126 q 744 123 744 124 q 744 121 744 122 q 742 105 744 113 q 735 89 739 97 q 665 28 715 56 q 558 0 615 0 q 555 0 557 0 q 551 -1 553 0 q 547 -1 549 -1 q 543 -1 546 -1 q 488 14 508 -1 q 457 47 468 29 q 445 71 450 60 q 436 89 440 82 q 431 95 433 93 q 426 97 429 97 q 399 80 418 97 q 353 43 381 63 q 285 6 324 22 q 197 -11 246 -11 q 78 29 122 -11 q 35 125 35 69 q 37 150 35 138 q 44 175 39 163 q 93 245 58 211 q 186 304 128 279 q 221 317 203 311 q 257 329 239 324 q 263 331 260 331 q 268 333 265 332 q 349 364 310 346 q 415 414 389 382 l 415 415 m 415 306 q 413 342 415 338 q 393 338 410 346 l 339 306 q 273 254 301 282 q 235 199 244 226 q 232 186 233 192 q 231 175 231 181 q 231 167 231 171 q 233 158 232 163 q 235 149 233 153 q 240 140 238 144 q 270 117 250 125 q 313 108 290 108 q 316 108 314 108 q 319 108 318 108 q 385 132 356 111 q 415 196 415 153 l 415 306 l 415 306 z "},"b":{"ha":831,"x_min":-21,"x_max":811,"o":"m 306 590 q 338 608 322 600 q 371 624 354 617 q 437 644 404 638 q 501 651 469 651 q 710 569 621 653 q 810 349 799 485 q 810 340 810 344 q 810 333 810 336 q 692 87 811 183 q 431 -11 574 -10 q 428 -11 429 -11 q 426 -11 428 -11 q 323 -1 365 -11 q 253 21 281 8 q 210 42 225 32 q 186 53 194 53 q 169 40 178 53 q 150 13 160 28 q 149 11 149 13 q 147 10 149 10 q 128 -19 138 -6 q 110 -33 118 -33 q 80 -27 88 -33 q 72 -11 72 -21 q 72 -6 72 -8 q 74 0 72 -3 q 74 1 74 0 q 75 4 74 3 q 76 13 75 8 q 76 21 76 17 l 76 810 q 61 845 76 838 q 28 854 46 853 q 24 854 25 854 q 21 856 22 854 q -8 861 4 857 q -21 885 -21 865 q -9 908 -21 903 q 25 917 3 914 q 71 924 44 919 q 131 939 97 928 q 148 945 139 942 q 167 951 157 949 q 176 956 171 954 q 185 960 181 957 q 228 978 207 969 q 267 986 250 986 q 295 973 285 986 q 306 928 306 960 l 306 590 l 306 590 m 306 503 l 306 153 q 336 67 306 96 q 406 39 367 39 q 412 39 408 39 q 418 40 415 39 q 458 51 439 42 q 492 75 476 60 q 555 174 536 119 q 574 288 574 229 q 561 388 574 339 q 525 479 549 438 q 481 531 510 513 q 421 553 453 549 q 408 555 414 554 q 394 556 401 556 q 335 542 361 556 q 306 501 310 529 l 306 503 z "},"c":{"ha":700,"x_min":18,"x_max":682,"o":"m 240 361 q 240 357 240 358 q 240 354 240 356 q 240 351 240 353 q 240 349 240 350 q 244 311 240 331 q 257 271 249 292 q 352 140 285 200 q 500 81 419 81 q 556 89 528 79 q 613 119 585 99 q 645 139 632 133 q 667 144 658 144 q 678 140 674 144 q 682 129 682 136 q 676 105 682 119 q 656 75 669 90 q 553 9 621 32 q 407 -14 485 -14 q 384 -13 396 -14 q 361 -11 372 -12 q 191 35 272 -4 q 65 151 110 75 q 44 193 53 172 q 29 235 36 214 q 21 276 24 256 q 18 317 18 296 q 132 553 18 453 q 439 654 246 654 q 449 654 444 654 q 460 654 454 654 q 495 651 476 654 q 532 644 514 649 q 606 621 571 636 q 656 589 640 606 q 660 579 658 586 q 661 564 661 572 q 659 538 661 553 q 653 510 657 524 q 629 452 644 478 q 593 426 614 426 q 581 428 588 426 q 568 436 575 431 q 540 468 554 446 q 511 515 526 490 q 467 574 490 547 q 413 600 443 600 q 409 600 411 600 q 404 600 407 600 q 391 597 397 599 q 378 593 385 596 q 283 515 326 575 q 240 360 240 454 l 240 361 z "},"d":{"ha":831,"x_min":26,"x_max":853,"o":"m 514 646 l 514 810 q 499 853 514 844 q 467 863 485 863 q 461 863 464 863 q 456 863 458 863 q 450 863 453 863 q 444 863 447 863 q 424 867 432 863 q 415 885 415 871 q 433 916 415 908 q 483 928 451 924 q 537 935 507 931 q 601 950 567 939 q 606 952 604 951 q 611 954 608 953 q 628 962 619 957 q 644 971 636 967 q 678 989 663 981 q 706 997 694 997 q 726 984 718 997 q 733 939 733 971 l 733 164 q 748 119 733 122 q 788 140 763 117 q 812 163 800 153 q 833 172 824 172 q 848 163 843 172 q 853 129 853 153 q 850 95 853 104 q 831 81 847 86 q 822 78 826 79 q 810 75 817 76 l 579 0 q 571 -3 575 -3 q 564 -3 567 -3 q 542 9 547 -3 q 536 35 536 21 q 535 42 535 39 q 535 47 535 44 q 533 67 535 58 q 525 75 532 75 q 503 63 517 75 q 467 38 490 51 q 407 11 443 22 q 317 0 371 0 q 106 92 175 6 q 28 281 38 179 q 27 299 28 290 q 26 315 26 307 q 28 354 26 335 q 33 392 29 374 q 163 594 60 524 q 389 664 267 664 q 410 663 400 664 q 431 663 421 663 q 473 656 451 660 q 514 644 494 651 l 514 646 m 514 131 l 514 514 q 513 521 514 517 q 513 529 513 525 q 478 583 506 558 q 414 608 451 608 q 394 606 404 608 q 372 600 383 604 q 287 513 315 574 q 254 385 258 453 q 254 376 254 381 q 254 367 254 371 q 268 265 254 314 q 306 185 282 217 q 367 125 333 147 q 438 103 400 103 q 476 109 457 103 q 514 129 494 115 l 514 131 z "},"e":{"ha":722,"x_min":19,"x_max":700,"o":"m 251 393 q 243 384 246 392 q 240 361 240 376 q 247 308 240 340 q 271 243 254 276 q 344 149 296 193 q 471 97 393 106 q 475 97 474 97 q 479 97 476 97 q 483 96 481 96 q 486 96 485 96 q 551 108 522 96 q 601 136 579 121 q 640 164 624 151 q 668 176 656 176 q 680 173 675 176 q 689 163 685 169 q 692 156 692 160 q 693 149 693 153 q 684 123 693 136 q 658 96 675 110 q 583 46 629 69 q 485 10 536 22 q 444 2 464 4 q 404 0 424 0 q 336 3 372 0 q 263 18 300 7 q 114 106 183 40 q 22 304 44 171 q 20 324 21 314 q 19 343 19 333 q 21 369 19 356 q 24 394 22 382 q 129 576 42 493 q 383 665 217 658 q 445 660 410 665 q 517 644 481 656 q 617 594 569 628 q 689 501 665 560 q 691 496 690 499 q 693 489 692 493 q 697 474 694 482 q 700 457 699 465 q 700 453 700 456 q 700 449 700 451 q 687 409 700 426 q 635 392 674 392 l 251 393 l 251 393 m 263 460 q 288 452 267 454 q 336 450 310 450 q 347 450 342 450 q 356 450 351 450 q 401 453 379 451 q 438 458 424 456 q 483 484 468 465 q 497 525 497 503 q 497 528 497 526 q 497 532 497 531 q 467 587 494 563 q 389 611 440 611 q 381 611 385 611 q 372 611 376 611 q 315 584 339 607 q 276 535 292 561 q 263 502 268 518 q 257 475 257 486 q 258 465 257 469 q 263 458 260 460 l 263 460 z "},"f":{"ha":503,"x_min":11,"x_max":628,"o":"m 131 131 l 131 525 q 131 533 131 529 q 132 542 131 538 q 132 549 132 546 q 132 554 132 551 q 126 565 132 564 q 99 567 121 567 q 49 571 65 567 q 33 600 33 575 q 45 635 33 625 q 99 644 57 644 q 123 651 115 644 q 131 699 131 658 q 131 701 131 700 q 131 703 131 701 q 220 881 133 799 q 411 972 307 963 q 413 972 413 972 q 415 972 414 972 q 445 972 429 972 q 476 969 461 971 q 564 953 522 965 q 624 917 606 942 q 627 911 626 915 q 628 901 628 907 q 621 864 628 888 q 600 815 614 840 q 590 801 596 808 q 579 786 585 793 q 570 776 575 781 q 560 768 565 771 q 549 764 554 765 q 540 763 544 763 q 510 775 524 763 q 489 803 497 788 q 484 811 486 807 q 481 819 482 815 q 458 871 469 851 q 433 900 446 890 q 422 908 428 906 q 410 910 415 910 q 367 872 385 911 q 350 764 350 832 l 350 678 q 353 649 350 653 q 372 644 356 644 l 481 646 q 518 643 510 644 q 526 633 526 642 q 526 629 526 632 q 526 624 526 626 q 525 618 525 621 q 525 611 525 615 q 525 603 525 607 q 526 596 525 599 q 526 589 526 592 q 526 583 526 586 q 519 569 526 571 q 481 567 511 567 l 383 568 q 354 561 358 567 q 350 524 350 556 l 350 142 q 370 82 350 96 q 415 64 390 68 q 422 63 418 64 q 428 63 425 63 q 465 53 449 60 q 481 21 481 46 q 464 0 481 6 q 419 -6 447 -6 q 385 -4 403 -6 q 349 0 367 -3 q 335 0 342 0 q 324 1 329 0 q 277 7 299 4 q 240 10 256 10 q 208 7 228 10 q 165 1 188 4 q 149 0 157 0 q 135 -1 142 0 q 102 -4 118 -3 q 72 -6 86 -6 q 28 0 46 -6 q 11 21 11 6 q 28 55 11 47 q 65 67 44 63 q 68 67 67 67 q 71 67 69 67 q 112 82 93 71 q 131 129 131 93 l 131 131 z "},"g":{"ha":754,"x_min":10,"x_max":758,"o":"m 646 536 q 674 471 665 500 q 683 415 683 442 q 648 315 683 356 q 571 249 613 275 q 541 231 556 239 q 514 217 526 224 q 463 201 492 206 q 404 196 433 197 q 383 196 393 196 q 361 196 372 196 q 349 196 356 196 q 338 196 343 196 q 276 192 301 194 q 251 174 251 189 q 251 172 251 172 q 251 169 251 171 q 296 138 250 144 q 400 131 342 131 q 415 131 407 131 q 429 131 422 131 q 441 131 435 131 q 454 131 447 131 q 518 132 488 132 q 568 129 549 132 q 708 67 658 119 q 758 -49 758 15 q 758 -62 758 -56 q 756 -76 757 -69 q 723 -158 750 -118 q 646 -229 696 -197 q 519 -280 596 -261 q 358 -300 442 -299 q 349 -300 354 -300 q 340 -300 344 -300 q 120 -265 219 -300 q 11 -153 21 -229 q 10 -142 10 -147 q 10 -132 10 -137 q 35 -66 10 -90 q 92 -28 61 -42 q 148 -10 122 -15 q 175 0 174 -4 q 175 0 175 0 q 175 0 175 0 q 154 27 175 11 q 110 60 133 43 q 94 71 101 65 q 79 82 86 76 q 53 106 64 94 q 43 129 43 118 q 72 167 47 153 q 125 189 96 181 q 158 197 142 193 q 186 204 174 201 q 202 210 196 207 q 208 217 208 213 q 208 219 208 218 q 206 221 207 219 q 174 237 199 228 q 121 263 149 246 q 60 317 88 282 q 33 414 33 353 q 33 417 33 415 q 33 419 33 418 q 33 422 33 421 q 33 425 33 424 q 126 603 33 551 q 331 660 219 656 q 344 661 338 661 q 357 661 350 661 q 476 650 419 661 q 568 622 532 639 q 584 617 575 619 q 601 614 593 615 q 628 611 615 611 q 646 611 640 611 l 711 613 q 739 606 735 611 q 743 567 743 600 q 739 539 743 543 q 711 535 735 535 l 646 536 l 646 536 m 240 -33 q 234 -32 238 -32 q 228 -32 231 -32 q 192 -53 206 -32 q 178 -103 179 -74 q 180 -123 178 -112 q 185 -143 182 -133 q 225 -201 196 -174 q 306 -240 254 -228 q 341 -247 324 -244 q 374 -249 358 -249 q 453 -238 417 -250 q 525 -208 490 -226 q 560 -181 547 -196 q 576 -151 572 -167 q 577 -144 576 -147 q 578 -136 578 -140 q 550 -85 579 -107 q 468 -64 521 -64 q 464 -64 467 -64 q 458 -65 461 -64 q 454 -65 457 -65 q 449 -65 451 -65 q 333 -61 383 -65 q 240 -33 282 -57 l 240 -33 m 251 438 q 251 428 251 432 q 251 422 251 425 q 286 298 251 342 q 363 253 321 254 q 438 294 404 251 q 471 431 471 338 q 471 439 471 435 q 471 447 471 443 q 434 565 467 522 q 363 613 401 607 q 356 614 358 614 q 350 614 353 614 q 281 578 311 614 q 250 468 250 542 q 250 453 250 461 q 251 436 250 444 l 251 438 z "},"h":{"ha":918,"x_min":22,"x_max":929,"o":"m 131 799 q 114 840 131 831 q 76 853 97 850 q 71 853 74 853 q 67 854 68 854 q 35 862 49 857 q 22 885 22 867 q 41 910 22 903 q 90 924 60 918 q 149 933 117 928 q 218 950 182 939 q 238 955 228 951 q 257 963 247 958 q 260 963 258 963 q 265 965 263 964 q 297 976 282 971 q 324 982 313 982 q 343 975 336 982 q 350 950 350 968 l 350 590 q 352 578 350 582 q 357 574 354 575 q 384 586 365 574 q 433 614 403 599 q 496 640 460 628 q 579 654 532 651 q 758 593 694 654 q 821 392 821 532 l 821 121 q 838 76 821 86 q 875 63 854 67 q 878 61 876 61 q 882 61 881 61 q 915 50 900 57 q 929 21 929 43 q 914 -3 929 3 q 871 -10 899 -10 q 835 -8 854 -10 q 794 -6 817 -7 q 749 -1 772 -3 q 700 0 725 0 q 657 -1 678 0 q 617 -6 636 -3 q 582 -8 599 -7 q 551 -10 565 -10 q 516 -3 529 -10 q 503 21 503 3 q 514 49 503 43 q 539 57 525 54 q 542 57 540 57 q 547 58 544 57 q 576 72 563 61 q 590 119 590 82 l 590 471 q 561 533 590 514 q 493 551 532 551 q 485 551 489 551 q 476 551 481 551 q 397 525 433 547 q 361 469 361 503 l 361 121 q 376 74 361 86 q 411 58 392 63 q 415 56 413 57 q 421 54 418 56 q 448 44 436 51 q 460 21 460 38 q 440 -3 460 3 q 390 -10 421 -10 q 353 -8 372 -10 q 313 -6 333 -7 q 310 -6 311 -6 q 310 -6 310 -6 q 267 -1 288 -3 q 229 0 247 0 q 186 -1 207 0 q 144 -6 165 -3 q 108 -8 125 -7 q 75 -10 90 -10 q 37 -3 51 -10 q 22 21 22 3 q 36 49 22 43 q 67 57 50 54 q 72 57 69 57 q 76 58 74 57 q 114 72 97 61 q 131 119 131 82 l 131 799 l 131 799 z "},"i":{"ha":449,"x_min":22,"x_max":460,"o":"m 131 438 l 131 99 q 114 62 131 68 q 76 56 97 56 q 74 54 75 54 q 74 54 74 54 q 38 49 54 54 q 22 21 22 44 q 41 -1 22 4 q 89 -6 60 -6 q 119 -5 103 -6 q 151 -3 135 -4 q 163 -2 157 -3 q 174 -1 168 -1 q 196 -1 185 -1 q 218 0 207 0 q 240 0 229 0 q 264 -1 251 0 q 283 -2 274 -1 q 303 -3 293 -3 q 344 -5 324 -4 q 381 -6 364 -6 q 438 -1 417 -6 q 460 21 460 4 q 441 51 460 46 q 400 60 422 57 q 358 67 376 61 q 339 97 339 72 l 339 624 q 313 673 339 688 q 250 628 286 658 q 236 616 243 622 q 222 606 229 610 q 210 596 217 600 q 197 589 203 592 q 125 561 160 571 q 65 543 90 551 q 34 531 46 538 q 22 513 22 524 q 33 494 22 499 q 60 489 44 490 q 68 488 64 488 q 76 486 72 488 q 112 474 96 483 q 131 436 128 464 l 131 438 m 110 821 q 152 900 114 872 q 235 931 190 928 q 237 931 236 931 q 239 931 238 931 q 320 903 283 931 q 361 819 357 876 q 361 816 361 818 q 361 811 361 814 q 322 728 361 757 q 236 700 283 700 q 234 700 235 700 q 232 700 233 700 q 148 731 186 701 q 110 819 110 760 l 110 821 z "},"j":{"ha":415,"x_min":-36,"x_max":317,"o":"m 99 426 q 81 468 99 458 q 44 481 64 478 q 36 481 40 481 q 29 481 32 481 q 1 485 13 482 q -10 501 -10 489 q 6 531 -10 522 q 49 546 22 540 q 83 554 65 550 q 121 565 101 558 q 142 576 132 569 q 164 589 153 582 q 184 605 172 594 q 210 626 196 615 q 219 636 214 632 q 231 644 225 640 q 257 661 244 654 q 281 668 269 668 q 299 658 292 668 q 306 622 306 647 l 306 33 q 282 -96 306 -49 q 231 -174 258 -143 q 219 -185 225 -179 q 208 -197 214 -192 q 163 -237 188 -218 q 111 -272 138 -256 q 47 -306 78 -293 q -4 -318 15 -318 q -22 -316 -15 -319 q -32 -306 -29 -312 q -35 -297 -35 -301 q -36 -290 -36 -293 q -31 -272 -36 -281 q -15 -257 -25 -264 q 6 -241 -6 -249 q 31 -224 18 -233 q 77 -176 56 -204 q 99 -99 99 -147 l 99 426 l 99 426 m 65 831 q 108 910 69 882 q 190 940 146 939 q 192 940 192 940 q 194 940 193 940 q 276 913 239 940 q 317 829 313 886 q 317 826 317 828 q 317 821 317 824 q 278 739 317 767 q 192 710 239 711 q 190 710 190 710 q 188 710 189 710 q 103 740 142 711 q 65 829 65 769 l 65 831 z "},"k":{"ha":831,"x_min":10,"x_max":864,"o":"m 121 810 q 103 840 121 832 q 65 850 86 847 q 62 851 64 850 q 57 851 60 851 q 24 858 39 854 q 10 878 10 863 q 10 878 10 878 q 11 881 10 879 q 11 883 11 882 q 11 885 11 883 q 32 906 11 899 q 85 919 53 914 q 133 928 107 924 q 186 939 160 932 q 217 947 201 942 q 247 960 233 953 q 281 975 265 968 q 310 982 297 982 q 331 972 324 983 q 339 928 339 960 l 339 438 q 343 410 339 418 q 353 400 347 401 q 356 399 354 399 q 358 399 357 399 q 363 399 361 399 q 368 401 365 400 q 371 402 369 401 q 372 403 372 403 l 536 547 q 544 560 553 554 q 503 567 536 567 q 464 576 479 567 q 449 611 449 586 q 462 628 449 624 q 496 633 475 633 q 529 632 511 633 q 565 628 547 631 q 601 624 583 626 q 635 622 619 622 q 660 624 647 622 q 688 626 674 625 q 693 627 690 626 q 699 628 696 628 q 730 632 714 631 q 758 633 746 633 q 788 629 776 633 q 799 611 799 625 q 776 576 799 586 q 722 560 753 567 q 714 558 718 558 q 706 556 710 557 q 674 547 689 551 q 646 535 658 542 l 547 471 q 532 455 535 461 q 531 442 529 449 q 535 433 532 438 q 542 424 538 429 q 544 419 543 422 q 547 414 546 417 l 776 99 q 813 61 796 69 q 843 49 831 53 q 858 40 853 46 q 864 21 864 35 q 851 -1 864 4 q 814 -6 838 -6 q 788 -5 801 -6 q 758 -3 774 -4 q 726 -1 743 -1 q 689 0 708 0 q 653 -1 671 0 q 619 -3 636 -1 q 588 -5 603 -4 q 560 -6 572 -6 q 518 -1 533 -6 q 503 21 503 4 q 506 35 503 29 q 513 44 508 40 q 513 46 513 46 q 514 47 514 46 q 519 56 517 51 q 522 67 522 61 q 518 84 522 74 q 503 108 514 94 l 372 296 q 347 326 356 326 q 339 294 339 326 l 339 142 q 339 138 339 139 q 339 135 339 136 q 346 106 340 119 q 358 82 351 92 q 366 72 363 76 q 372 64 369 67 q 383 58 378 60 q 394 54 389 56 q 403 52 399 53 q 414 51 408 51 q 438 45 428 50 q 449 21 449 40 q 429 -1 449 4 q 378 -6 410 -6 q 345 -5 363 -6 q 311 -3 328 -4 q 303 -3 307 -3 q 296 -1 300 -3 q 268 -1 282 -1 q 240 0 254 0 q 206 -1 224 0 q 168 -3 188 -1 q 165 -3 167 -3 q 160 -3 163 -3 q 126 -5 143 -4 q 94 -6 110 -6 q 35 -1 60 -6 q 11 21 11 4 q 26 52 11 47 q 58 57 40 57 q 62 57 60 57 q 67 58 64 57 q 103 68 86 58 q 121 119 121 78 l 121 810 l 121 810 z "},"l":{"ha":449,"x_min":11,"x_max":481,"o":"m 131 799 q 114 834 131 826 q 76 846 97 842 q 74 846 75 846 q 72 846 74 846 q 38 855 53 849 q 22 885 22 861 q 36 903 22 897 q 74 913 50 908 q 133 922 99 917 q 208 939 167 926 q 231 946 219 942 q 251 954 242 950 q 290 969 272 963 q 321 976 308 976 q 342 966 335 976 q 350 928 350 956 l 350 121 q 370 70 350 82 q 415 54 390 58 q 424 52 419 53 q 432 51 428 51 q 466 43 451 49 q 481 21 481 38 q 467 -3 481 3 q 429 -10 454 -10 q 397 -8 415 -10 q 356 -6 378 -7 q 306 -1 332 -3 q 251 0 281 0 q 237 0 244 0 q 222 0 229 0 q 188 -3 204 -1 q 154 -6 171 -4 q 109 -8 131 -7 q 71 -10 88 -10 q 28 -5 44 -10 q 11 14 11 0 q 11 16 11 15 q 11 18 11 17 q 11 20 11 19 q 11 21 11 21 q 31 49 15 43 q 65 57 46 54 q 68 57 67 57 q 71 57 69 57 q 112 70 93 60 q 131 119 131 81 l 131 799 l 131 799 z "},"m":{"ha":1301,"x_min":22,"x_max":1324,"o":"m 339 568 q 451 626 397 610 q 551 644 504 643 q 656 624 611 644 q 726 576 701 603 q 736 567 732 572 q 743 557 740 563 q 799 597 771 581 q 856 624 826 613 q 913 638 885 633 q 968 643 942 643 q 1142 588 1069 643 q 1214 458 1214 533 l 1214 110 q 1231 67 1214 75 q 1269 57 1249 58 q 1272 56 1271 56 q 1275 56 1274 56 q 1309 49 1294 54 q 1324 21 1324 43 q 1313 -3 1324 3 q 1279 -10 1301 -10 q 1249 -8 1265 -10 q 1211 -6 1232 -7 q 1167 -1 1190 -3 q 1115 0 1143 0 q 1101 0 1108 0 q 1086 -1 1093 0 q 1058 -4 1072 -3 q 1032 -7 1044 -6 q 993 -12 1011 -10 q 960 -14 975 -14 q 923 -7 938 -14 q 908 21 908 0 q 922 51 908 46 q 953 60 936 57 q 982 67 968 61 q 996 97 996 72 l 996 449 q 965 526 996 501 q 894 551 933 550 q 892 551 893 551 q 890 551 892 551 q 812 525 847 550 q 776 458 776 500 l 776 131 q 792 79 776 93 q 826 58 807 65 q 833 57 829 58 q 839 54 836 56 q 865 44 854 50 q 875 21 875 38 q 861 -7 875 0 q 824 -14 847 -14 q 790 -12 808 -14 q 751 -7 771 -10 q 726 -4 739 -6 q 703 -1 714 -3 q 684 -1 693 -1 q 667 0 675 0 q 624 -1 644 0 q 585 -6 604 -3 q 550 -8 567 -7 q 519 -10 533 -10 q 484 -3 497 -10 q 471 21 471 3 q 485 48 471 42 q 515 58 499 54 q 544 69 531 63 q 558 97 558 76 l 558 460 q 528 527 558 504 q 458 550 497 550 q 451 550 454 550 q 444 549 447 550 q 372 516 404 544 q 339 436 339 488 l 339 131 q 355 77 339 90 q 389 60 371 64 q 397 58 393 58 q 404 57 400 57 q 428 49 418 54 q 439 31 439 44 q 439 28 439 29 q 439 26 439 28 q 438 24 438 25 q 438 21 438 22 q 422 -3 438 3 q 381 -10 407 -10 q 347 -8 365 -10 q 310 -6 329 -7 q 281 -3 296 -4 q 253 0 267 -1 q 241 0 247 0 q 229 0 235 0 q 199 -2 217 0 q 164 -7 182 -4 q 153 -8 158 -7 q 140 -10 147 -8 q 115 -12 128 -11 q 90 -12 103 -12 q 42 -5 61 -12 q 22 25 22 3 q 22 28 22 26 q 22 32 22 31 q 35 53 22 49 q 64 58 47 57 q 70 58 67 58 q 76 60 74 58 q 114 72 97 61 q 131 119 131 82 l 131 438 q 114 468 131 461 q 76 479 97 475 q 74 479 75 479 q 72 479 74 479 q 38 488 53 482 q 22 513 22 493 q 35 531 22 525 q 67 540 47 536 q 115 551 88 544 q 169 569 142 557 q 206 592 188 579 q 240 622 224 604 q 249 630 244 626 q 257 638 253 633 q 290 660 274 651 q 318 668 307 668 q 333 663 328 668 q 339 644 339 657 l 339 568 l 339 568 z "},"n":{"ha":918,"x_min":33,"x_max":929,"o":"m 350 558 q 412 598 381 581 q 476 626 443 615 q 540 643 508 638 q 601 649 571 649 q 749 603 688 649 q 810 469 810 557 l 810 121 q 828 76 810 86 q 869 64 847 67 q 875 63 872 63 q 882 61 878 63 q 915 55 900 60 q 929 32 929 50 q 905 3 929 10 q 842 -4 881 -4 q 809 -3 826 -4 q 774 -3 792 -3 q 753 -1 764 -1 q 733 0 743 -1 q 717 0 725 0 q 700 0 708 0 q 670 -1 686 0 q 638 -3 654 -1 q 633 -3 636 -3 q 628 -3 631 -3 q 600 -5 614 -4 q 574 -6 586 -6 q 523 -1 543 -6 q 503 21 503 4 q 517 55 503 47 q 547 67 531 63 q 550 67 549 67 q 553 67 551 67 q 586 82 571 71 q 601 129 601 93 l 601 449 q 567 526 601 501 q 488 550 532 550 q 482 550 485 550 q 476 550 479 550 q 390 520 429 547 q 350 447 350 493 l 350 131 q 365 76 350 89 q 400 58 381 63 q 404 58 401 58 q 410 57 407 57 q 437 48 425 54 q 449 21 449 42 q 434 -3 449 3 q 394 -10 419 -10 q 361 -8 379 -10 q 322 -6 343 -7 q 278 -1 301 -3 q 229 0 254 0 q 190 -1 208 0 q 153 -4 171 -3 q 120 -7 136 -6 q 92 -8 104 -8 q 49 -1 65 -8 q 33 32 33 7 q 47 55 33 50 q 76 61 60 60 q 82 63 79 63 q 88 64 85 63 q 125 76 108 67 q 142 119 142 86 l 142 426 q 125 473 142 463 q 88 486 108 483 q 81 486 85 486 q 75 486 78 486 q 46 492 58 488 q 33 513 33 496 q 47 535 33 529 q 83 546 61 542 q 140 559 108 551 q 207 588 172 567 q 229 603 218 594 q 251 622 240 611 q 295 658 275 646 q 329 671 315 671 q 344 665 339 671 q 350 644 350 658 l 350 558 l 350 558 z "},"o":{"ha":831,"x_min":22,"x_max":803,"o":"m 22 350 q 157 570 42 499 q 407 642 272 642 q 678 563 556 642 q 803 333 801 483 q 802 308 803 321 q 799 283 801 296 q 660 63 776 138 q 411 -15 544 -12 q 406 -15 408 -15 q 401 -15 404 -15 q 140 69 258 -15 q 22 326 22 154 q 22 332 22 329 q 22 338 22 335 q 22 343 22 340 q 22 349 22 346 l 22 350 m 240 339 q 298 126 249 200 q 404 39 347 51 q 415 38 410 39 q 425 38 419 38 q 532 103 485 36 q 579 306 579 171 q 579 316 579 311 q 579 326 579 321 q 527 518 579 450 q 413 590 475 586 q 408 590 410 590 q 404 590 406 590 q 294 529 344 590 q 240 338 244 468 l 240 339 z "},"p":{"ha":886,"x_min":22,"x_max":864,"o":"m 372 568 q 453 623 411 603 q 540 647 496 643 q 553 649 546 649 q 565 649 560 649 q 772 556 681 649 q 864 315 864 464 q 766 91 864 193 q 503 -11 668 -11 q 471 -8 486 -11 q 440 -1 456 -6 q 414 4 426 1 q 392 7 401 7 q 377 3 382 7 q 372 -11 372 0 l 372 -186 q 391 -229 372 -219 q 432 -243 410 -239 q 435 -244 433 -243 q 439 -244 438 -244 q 476 -255 460 -249 q 492 -285 492 -261 q 481 -302 492 -297 q 449 -307 469 -307 q 413 -306 433 -307 q 369 -301 393 -304 q 319 -298 346 -300 q 263 -296 292 -296 q 211 -297 236 -296 q 163 -301 186 -299 q 120 -304 140 -303 q 83 -306 100 -306 q 39 -299 56 -306 q 22 -274 22 -293 q 35 -254 22 -260 q 67 -244 49 -249 q 74 -244 71 -244 q 82 -242 78 -243 q 123 -226 104 -236 q 142 -186 142 -215 l 142 449 q 132 478 142 471 q 110 485 122 485 q 102 485 106 485 q 96 485 99 485 q 90 483 93 483 q 83 483 86 483 q 63 489 71 483 q 54 513 54 494 q 72 534 54 526 q 115 549 89 542 q 149 558 131 553 q 188 568 168 563 q 233 585 211 575 q 274 611 256 596 q 326 651 304 636 q 358 667 347 667 q 369 663 365 668 q 372 644 372 657 l 372 568 l 372 568 m 372 481 l 372 175 q 374 149 372 163 q 379 121 375 135 q 404 69 386 93 q 458 46 422 46 q 499 53 476 46 q 547 75 521 60 q 615 159 592 100 q 639 288 639 218 q 638 307 639 297 q 638 326 638 317 q 625 394 633 361 q 601 458 617 428 q 554 517 582 497 q 496 544 526 538 q 481 547 489 546 q 467 547 474 547 q 400 528 428 547 q 372 479 372 510 l 372 481 z "},"q":{"ha":831,"x_min":19,"x_max":864,"o":"m 514 33 q 497 42 514 50 q 446 21 481 35 q 393 6 424 13 q 324 -1 363 -1 q 310 -1 318 -1 q 296 0 303 -1 q 97 104 174 8 q 19 317 19 200 q 19 326 19 321 q 19 335 19 331 q 74 495 24 418 q 229 622 124 572 q 326 655 279 646 q 415 664 372 664 q 517 653 471 664 q 596 629 563 642 q 604 626 600 628 q 613 622 608 624 q 631 617 624 618 q 644 615 639 615 q 665 622 658 615 q 678 639 672 629 q 680 642 679 640 q 682 646 681 644 q 699 667 688 657 q 733 676 710 676 q 751 671 746 676 q 756 654 756 665 q 753 636 756 646 q 750 615 751 626 q 745 592 747 604 q 743 567 743 579 l 743 -164 q 762 -222 743 -210 q 804 -236 781 -233 q 808 -236 806 -236 q 814 -236 811 -236 q 849 -243 833 -237 q 864 -274 864 -249 q 851 -299 864 -293 q 811 -306 838 -306 q 776 -304 796 -306 q 733 -301 757 -303 q 683 -297 710 -299 q 624 -296 656 -296 q 566 -297 593 -296 q 517 -301 539 -299 q 475 -304 493 -303 q 442 -306 457 -306 q 406 -299 418 -306 q 393 -274 393 -293 q 409 -244 393 -251 q 446 -233 425 -237 q 449 -233 447 -233 q 454 -233 451 -233 q 495 -219 476 -229 q 514 -175 514 -208 l 514 33 l 514 33 m 514 536 q 492 587 514 569 q 438 604 469 604 q 410 601 424 604 q 381 592 396 597 q 292 509 332 569 q 251 344 251 449 q 251 340 251 343 q 251 336 251 338 q 251 331 251 333 q 251 326 251 329 q 292 171 251 228 q 383 93 333 114 q 415 83 399 86 q 444 79 431 79 q 494 91 475 78 q 514 129 514 104 l 514 536 l 514 536 z "},"r":{"ha":635,"x_min":22,"x_max":663,"o":"m 350 547 q 365 559 357 553 q 382 572 374 565 q 449 617 414 596 q 522 644 485 638 q 534 645 528 644 q 546 646 540 646 q 574 643 561 646 q 601 633 588 640 q 645 596 631 619 q 663 547 660 572 q 663 544 663 546 q 663 539 663 542 q 647 481 663 508 q 601 436 632 453 q 568 422 583 426 q 539 418 553 418 q 490 431 511 418 q 456 460 468 444 q 452 465 454 463 q 449 469 450 467 q 430 488 440 481 q 408 497 419 494 q 403 499 406 499 q 397 499 400 499 q 365 484 379 499 q 350 436 350 469 l 350 110 q 367 65 350 75 q 406 53 385 56 q 410 51 407 51 q 415 50 413 51 q 447 44 433 49 q 460 21 460 39 q 442 -3 460 3 q 397 -10 425 -10 q 360 -8 381 -10 q 319 -6 340 -7 q 290 -3 304 -4 q 261 -1 276 -1 q 245 0 253 0 q 229 0 238 0 q 186 -1 207 0 q 144 -6 165 -3 q 108 -8 125 -7 q 75 -10 90 -10 q 37 -3 51 -10 q 22 21 22 3 q 36 45 22 39 q 68 54 50 51 q 73 56 71 56 q 76 57 75 56 q 114 70 97 61 q 131 108 131 79 l 131 438 q 115 468 131 461 q 82 479 100 475 q 80 479 81 479 q 78 479 79 479 q 47 488 61 482 q 33 513 33 493 q 46 535 33 528 q 81 546 58 542 q 167 569 115 554 q 274 633 218 583 q 285 644 279 639 q 296 653 290 649 q 333 666 317 667 q 350 633 350 665 l 350 547 l 350 547 z "},"s":{"ha":635,"x_min":33,"x_max":601,"o":"m 43 197 q 55 215 47 207 q 72 224 63 222 q 102 208 85 224 q 142 151 119 192 q 144 148 143 150 q 146 144 146 146 q 199 81 168 110 q 297 51 231 51 q 312 51 304 51 q 328 53 319 51 q 348 55 338 53 q 369 61 358 57 q 418 91 396 71 q 440 136 440 111 q 423 176 440 156 q 361 217 406 196 q 298 240 340 228 q 210 269 256 251 q 99 332 150 293 q 43 436 47 371 q 43 441 43 439 q 43 446 43 443 q 47 476 43 461 q 58 508 50 492 q 152 607 83 563 q 329 651 221 651 q 371 650 349 651 q 415 644 393 649 q 434 642 425 643 q 451 640 443 642 q 535 622 503 633 q 568 567 568 610 q 568 556 568 561 q 568 544 568 550 q 559 493 567 517 q 525 469 551 469 q 512 473 518 469 q 499 483 506 476 q 481 507 490 493 q 458 535 471 521 q 415 576 440 557 q 350 600 389 596 q 347 600 349 600 q 342 601 344 600 q 338 601 340 601 q 333 601 336 601 q 258 580 288 601 q 228 531 228 558 q 228 526 228 528 q 229 521 228 524 q 245 493 232 507 q 285 469 258 479 q 348 450 310 460 q 428 425 386 440 q 547 361 493 401 q 601 250 601 321 q 601 247 601 249 q 601 244 601 246 q 601 242 601 243 q 601 239 601 240 q 507 57 593 113 q 318 -6 421 1 q 299 -7 308 -7 q 281 -7 290 -7 q 109 22 185 -7 q 33 93 33 51 q 33 95 33 94 q 33 97 33 96 l 43 197 l 43 197 z "},"t":{"ha":471,"x_min":-10,"x_max":482,"o":"m 296 525 l 296 229 q 316 133 296 157 q 363 107 336 108 q 389 111 376 107 q 413 121 401 115 q 420 126 417 124 q 426 129 424 128 q 449 145 439 140 q 465 150 460 150 q 476 147 472 151 q 482 133 481 142 q 475 107 482 122 q 453 75 468 92 q 382 24 429 47 q 263 0 335 1 q 158 31 194 0 q 106 99 122 61 q 91 147 94 124 q 88 185 88 171 l 88 547 q 79 560 88 557 q 60 564 71 564 q 51 564 56 564 q 43 564 47 564 q 33 563 38 563 q 25 563 29 563 q 1 567 11 563 q -10 589 -10 572 q -4 603 -10 597 q 11 615 1 610 q 74 644 35 628 q 154 699 113 661 q 187 733 171 714 q 218 775 203 751 q 229 794 224 786 q 242 808 235 803 q 256 821 249 817 q 271 825 264 825 q 289 816 282 826 q 296 786 296 806 l 296 678 q 297 649 296 656 q 308 643 299 643 q 314 643 311 643 q 319 644 317 643 q 328 644 324 644 q 339 644 333 644 l 426 646 q 451 639 443 644 q 460 600 460 633 q 451 571 460 575 q 426 567 443 567 l 339 568 q 301 561 307 567 q 296 524 296 556 l 296 525 z "},"u":{"ha":831,"x_min":-10,"x_max":844,"o":"m 821 54 l 579 -11 q 576 -11 578 -11 q 572 -11 574 -11 q 554 -1 558 -11 q 550 22 550 8 q 550 30 550 26 q 550 38 550 33 q 551 43 551 40 q 551 49 551 46 q 552 60 551 54 q 553 71 553 67 q 553 82 554 78 q 547 86 551 86 q 519 71 539 86 q 468 38 499 56 q 396 3 436 18 q 306 -11 356 -11 q 269 -8 289 -11 q 229 3 250 -4 q 140 68 181 22 q 99 196 99 114 l 99 536 q 81 575 99 568 q 44 583 64 582 q 42 583 43 583 q 40 583 42 583 q 6 589 21 583 q -10 622 -10 594 q 8 644 -10 639 q 53 650 26 650 q 76 649 64 650 q 101 647 89 649 q 106 647 104 647 q 110 647 107 647 q 138 645 124 646 q 164 644 151 644 q 192 646 178 644 q 219 649 206 647 q 244 651 232 650 q 268 653 257 653 q 303 644 290 653 q 317 611 317 636 l 317 197 q 348 116 317 140 q 418 92 379 92 q 420 92 419 92 q 422 92 421 92 q 501 117 465 92 q 536 185 536 143 l 536 525 q 519 570 536 561 q 482 582 501 579 q 478 582 479 582 q 475 582 476 582 q 442 590 457 583 q 426 622 426 596 q 447 644 426 639 q 496 650 467 650 q 516 649 506 650 q 536 649 526 649 q 547 648 542 649 q 557 647 551 647 q 586 645 572 646 q 613 644 600 644 q 640 645 626 644 q 664 647 653 646 q 687 648 676 647 q 706 649 697 649 q 742 642 729 649 q 754 611 754 635 l 754 164 q 758 128 754 138 q 782 114 761 119 q 794 111 788 113 q 810 108 801 110 q 835 99 825 108 q 844 78 844 89 q 840 63 844 69 q 821 53 835 56 l 821 54 z "},"v":{"ha":754,"x_min":-32,"x_max":788,"o":"m 65 547 q 46 565 58 560 q 19 571 33 569 q 14 572 17 572 q 8 574 11 572 q -19 579 -7 575 q -32 600 -32 583 q -9 631 -32 624 q 50 638 14 638 q 79 637 64 638 q 110 636 94 636 q 128 635 119 635 q 146 633 138 635 q 160 633 153 633 q 175 633 168 633 q 195 633 185 633 q 217 635 206 633 q 237 635 226 635 q 257 636 247 636 q 297 638 278 638 q 333 639 317 639 q 392 633 369 639 q 415 611 415 628 q 399 581 415 589 q 364 569 383 572 q 358 569 361 569 q 353 568 356 568 q 326 562 338 565 q 314 547 314 558 q 315 541 314 544 q 317 535 315 538 l 426 285 q 440 252 435 263 q 449 240 444 242 q 458 247 453 239 q 471 272 463 256 l 568 503 q 572 515 571 508 q 574 528 574 522 q 564 552 575 543 q 525 567 553 561 q 480 575 500 567 q 460 600 460 583 q 478 631 460 624 q 528 638 497 638 q 552 637 539 638 q 578 636 565 636 q 606 634 592 635 q 635 633 621 633 q 663 634 649 633 q 689 636 676 635 q 715 638 703 638 q 738 639 726 639 q 774 633 760 639 q 788 611 788 628 q 776 578 788 583 q 746 572 764 572 q 730 570 739 571 q 711 567 721 569 q 688 553 700 563 q 667 524 676 543 l 415 0 q 399 -19 411 -12 q 372 -25 388 -25 q 345 -19 358 -25 q 328 0 332 -12 l 65 547 l 65 547 z "},"w":{"ha":1138,"x_min":-32,"x_max":1171,"o":"m 590 317 q 574 340 582 340 q 558 315 565 340 l 415 0 q 399 -19 411 -12 q 372 -25 388 -25 q 345 -19 358 -25 q 328 0 332 -12 l 99 503 q 74 538 88 526 q 46 556 60 550 q 25 562 35 560 q 7 564 15 564 q -20 572 -8 567 q -32 600 -32 578 q -11 626 -32 619 q 56 632 10 632 q 120 631 83 632 q 206 628 157 629 q 310 624 253 625 q 438 622 368 622 q 538 623 493 622 q 621 625 583 624 q 688 627 658 626 q 739 628 717 628 q 802 622 783 628 q 821 600 821 617 q 805 567 821 575 q 768 557 789 558 q 764 556 767 557 q 758 556 761 556 q 729 551 742 554 q 717 533 717 547 q 718 524 717 529 q 722 513 719 519 l 842 274 q 853 253 849 258 q 860 247 857 247 q 863 248 861 247 q 865 251 864 249 q 870 261 868 256 q 875 272 872 267 l 974 503 q 977 513 976 508 q 978 524 978 518 q 960 551 978 544 q 921 558 943 557 q 920 559 921 558 q 918 560 919 560 q 881 566 897 561 q 864 589 864 571 q 881 619 864 613 q 924 626 897 626 q 947 626 935 626 q 972 625 958 625 q 999 623 985 624 q 1028 622 1014 622 q 1056 623 1043 622 q 1081 625 1069 624 q 1103 626 1093 625 q 1122 626 1114 626 q 1158 619 1146 626 q 1171 589 1171 613 q 1159 566 1171 571 q 1131 560 1147 561 q 1117 558 1124 560 q 1104 556 1111 557 q 1074 544 1089 553 q 1050 513 1060 535 l 821 0 q 806 -17 817 -11 q 783 -25 794 -24 q 781 -25 782 -25 q 778 -25 779 -25 q 751 -19 764 -25 q 733 0 738 -12 l 590 317 l 590 317 m 317 514 l 438 263 q 454 246 446 244 q 471 272 463 247 l 514 361 q 533 393 526 383 q 540 410 540 403 q 540 416 540 413 q 536 425 539 419 l 492 514 q 451 556 476 546 q 393 567 426 567 q 337 556 358 567 q 314 525 315 544 q 315 519 314 522 q 317 513 315 515 l 317 514 z "},"x":{"ha":864,"x_min":-21,"x_max":864,"o":"m 558 361 l 743 99 q 765 75 753 83 q 788 63 776 67 q 806 58 797 60 q 824 54 815 56 q 853 46 842 51 q 864 21 864 40 q 851 -3 864 3 q 813 -10 838 -10 q 780 -8 799 -10 q 739 -6 761 -7 q 690 -1 715 -3 q 635 0 664 0 q 611 -1 624 0 q 586 -1 599 -1 q 565 -3 575 -3 q 543 -6 554 -4 q 500 -8 521 -7 q 461 -10 479 -10 q 412 -3 431 -10 q 393 21 393 3 q 407 44 393 38 q 438 53 421 50 q 441 53 439 53 q 444 54 443 54 q 469 60 458 57 q 481 74 481 64 q 478 84 481 78 q 471 97 476 90 l 383 218 q 369 234 375 229 q 356 236 363 239 q 343 227 350 235 q 328 207 336 219 l 274 131 q 263 109 267 119 q 258 89 258 99 q 265 67 258 76 q 285 53 271 57 q 294 53 289 53 q 304 53 299 53 q 328 45 317 51 q 339 21 339 39 q 324 -3 339 3 q 283 -10 308 -10 q 252 -8 269 -10 q 215 -6 235 -7 q 203 -3 210 -4 q 190 -3 197 -3 q 166 -1 178 -1 q 142 0 154 0 q 119 -1 132 0 q 93 -3 107 -1 q 86 -3 90 -3 q 78 -4 82 -4 q 58 -5 68 -4 q 40 -6 49 -6 q -3 -1 14 -6 q -21 21 -21 4 q 1 53 -21 46 q 54 64 24 60 q 63 64 58 64 q 72 65 68 64 q 118 74 96 68 q 153 97 140 81 l 296 274 q 308 293 304 286 q 313 303 313 300 q 313 307 313 306 q 311 310 313 308 q 309 312 310 310 q 306 315 308 314 l 131 525 q 112 544 121 536 q 93 558 103 553 q 57 572 75 569 q 25 576 39 575 q -1 581 8 578 q -11 600 -11 585 q -11 603 -11 601 q -11 606 -11 604 q -10 608 -10 607 q -10 611 -10 610 q 5 633 -7 626 q 39 639 17 639 q 78 636 56 639 q 126 631 100 633 q 185 625 153 628 q 251 622 217 622 q 303 624 278 622 q 349 628 328 625 q 390 631 371 629 q 424 632 408 632 q 458 627 446 632 q 471 607 471 622 q 471 604 471 606 q 471 600 471 603 q 458 580 468 585 q 435 572 447 575 q 430 572 432 572 q 425 571 428 572 q 406 567 414 569 q 399 557 399 565 q 402 544 399 553 q 415 524 406 536 l 492 426 q 505 413 500 417 q 514 410 510 408 q 523 417 518 411 q 536 436 528 424 l 590 525 q 595 536 593 531 q 597 546 597 542 q 588 560 597 557 q 567 567 579 564 q 564 567 565 567 q 561 568 563 568 q 536 576 547 571 q 525 600 525 582 q 536 626 525 619 q 567 632 547 632 q 594 631 579 632 q 625 628 608 629 q 660 624 642 625 q 700 622 679 622 q 731 623 717 622 q 760 625 746 624 q 786 627 774 626 q 808 628 799 628 q 841 622 829 628 q 853 600 853 617 q 842 577 853 582 q 813 571 831 572 q 761 563 790 569 q 700 524 732 556 q 676 499 689 513 q 650 471 664 486 q 644 465 647 468 q 639 458 642 463 q 583 395 607 425 q 558 360 558 365 l 558 361 z "},"y":{"ha":776,"x_min":-32,"x_max":831,"o":"m 76 536 q 55 561 69 556 q 24 568 40 567 q 18 569 21 568 q 13 569 15 569 q -18 574 -4 569 q -32 600 -32 579 q -32 603 -32 601 q -32 606 -32 604 q -32 606 -32 606 q -32 607 -32 607 q -32 609 -32 608 q -32 611 -32 610 q -15 628 -32 624 q 28 633 1 633 q 60 633 43 633 q 94 629 78 632 q 106 628 100 629 q 118 628 113 628 q 161 624 140 626 q 197 622 182 622 q 244 624 221 622 q 289 628 268 625 q 330 631 311 629 q 364 632 349 632 q 406 626 392 632 q 415 600 419 619 q 399 577 413 583 q 369 568 385 571 q 364 567 367 568 q 358 567 361 567 q 333 560 344 564 q 322 544 322 557 q 324 535 322 540 q 328 524 325 531 l 460 251 q 468 231 464 238 q 476 224 472 225 q 483 226 479 222 q 492 239 488 231 l 613 514 q 617 525 615 519 q 618 535 618 531 q 601 559 618 554 q 563 565 583 564 q 562 565 563 565 q 560 565 561 565 q 521 572 539 567 q 503 600 503 578 q 518 626 503 619 q 556 632 533 632 q 576 631 565 632 q 599 629 588 631 q 606 628 601 629 q 614 628 610 628 q 642 624 628 625 q 667 622 656 622 q 729 627 703 625 q 774 629 756 629 q 819 622 807 629 q 831 600 831 615 q 821 576 831 581 q 796 571 811 572 q 760 565 781 569 q 719 540 740 561 q 698 516 708 531 q 678 479 688 501 l 404 -87 q 370 -175 381 -137 q 351 -240 360 -212 q 324 -290 340 -274 q 267 -307 308 -307 q 254 -307 261 -307 q 240 -306 247 -307 q 151 -288 175 -306 q 124 -249 128 -271 q 121 -233 121 -240 q 121 -218 121 -225 q 121 -212 121 -215 q 121 -206 121 -208 q 147 -147 119 -161 q 206 -131 174 -133 q 213 -131 210 -131 q 219 -131 217 -131 q 225 -131 222 -131 q 231 -131 228 -131 q 237 -131 233 -131 q 243 -132 240 -131 q 254 -132 249 -132 q 264 -132 260 -132 q 276 -133 271 -133 q 285 -131 281 -132 q 333 -97 314 -125 q 353 -33 353 -69 q 352 -19 353 -26 q 350 -6 351 -12 q 345 7 347 0 q 339 21 343 14 l 76 536 l 76 536 z "},"z":{"ha":667,"x_min":15,"x_max":653,"o":"m 372 568 q 367 584 379 579 q 332 589 356 589 q 281 586 310 589 q 222 579 251 583 q 215 578 218 579 q 208 578 211 578 q 132 549 160 569 q 81 506 104 529 q 78 503 79 504 q 76 501 78 503 q 36 481 47 472 q 22 504 25 489 q 22 509 22 507 q 22 513 22 511 l 76 678 q 91 708 81 697 q 113 718 101 718 q 133 708 124 718 q 142 676 142 697 q 163 657 142 660 q 208 654 183 654 l 590 656 q 605 654 597 654 q 619 654 613 654 q 644 651 635 654 q 653 636 653 649 q 649 617 653 629 q 635 589 644 606 l 317 110 q 313 103 317 108 q 307 90 310 97 q 305 88 306 89 q 303 85 304 86 q 298 72 300 78 q 296 64 296 67 q 311 59 296 61 q 349 57 326 57 q 380 58 363 57 q 414 61 397 58 q 455 66 435 63 q 492 75 475 69 q 552 116 533 92 q 579 174 571 140 q 591 197 582 188 q 610 211 600 207 q 614 212 611 211 q 618 213 617 213 q 638 202 629 214 q 646 163 646 190 l 646 43 q 634 2 646 11 q 590 -7 622 -7 q 557 -6 576 -7 q 513 -3 538 -4 q 459 -1 489 -1 q 393 0 429 0 q 356 0 375 0 q 317 0 338 0 q 251 -1 282 0 q 193 -3 219 -1 q 142 -5 165 -4 q 99 -6 118 -6 q 37 -1 58 -6 q 15 21 15 4 q 19 40 15 29 q 33 64 24 50 l 372 568 l 372 568 z "},"{":{"ha":393,"x_min":54,"x_max":361,"o":"m 164 404 q 242 340 221 388 q 263 228 263 293 l 263 -54 q 288 -141 263 -104 q 361 -186 313 -178 l 361 -197 q 342 -199 351 -199 q 325 -199 333 -199 q 179 -157 228 -199 q 131 -33 131 -115 l 131 274 q 129 292 131 282 q 125 314 128 303 q 101 363 118 340 q 54 392 83 386 l 54 404 q 109 439 88 419 q 131 490 131 458 l 131 821 q 201 965 131 935 q 361 994 271 994 l 361 985 q 288 933 313 967 q 263 851 263 900 l 263 547 q 238 453 263 483 q 185 410 214 422 q 174 406 179 407 q 164 403 169 404 l 164 404 z "},"|":{"ha":776,"x_min":328,"x_max":449,"o":"m 328 0 l 328 996 l 449 996 l 449 0 l 328 0 l 328 0 z "},"}":{"ha":393,"x_min":33,"x_max":350,"o":"m 240 415 q 153 463 175 414 q 131 578 131 513 l 131 853 q 110 942 131 908 q 33 983 90 975 l 33 996 q 54 996 44 996 q 74 996 64 996 q 209 963 156 996 q 263 840 263 929 l 263 547 q 278 460 263 489 q 350 414 293 431 l 350 404 q 282 356 301 388 q 263 283 263 324 l 263 -33 q 193 -165 263 -132 q 33 -197 124 -197 l 33 -186 q 102 -142 74 -178 q 131 -65 131 -107 l 131 251 q 161 357 131 324 q 240 414 192 390 l 240 415 z "},"~":{"ha":776,"x_min":33,"x_max":733,"o":"m 121 328 l 33 393 q 114 483 76 449 q 188 531 151 517 q 218 539 203 536 q 249 542 233 542 q 317 531 282 542 q 393 501 353 521 q 465 471 433 483 q 521 458 496 458 q 542 460 532 458 q 561 468 551 463 q 601 499 581 478 q 646 557 622 521 l 733 492 q 682 423 706 451 q 636 376 658 394 q 592 351 614 360 q 543 343 569 343 q 486 350 517 343 q 415 371 456 357 q 316 406 354 390 q 249 422 278 422 q 234 422 242 422 q 219 418 226 421 q 174 389 197 411 q 121 326 151 367 l 121 328 z "},"":{"ha":918,"x_min":-43,"x_max":951,"o":"m 503 263 q 500 267 501 264 q 497 272 499 269 q 483 282 492 281 q 449 283 474 283 l 274 285 q 233 275 249 283 q 218 250 218 267 l 186 153 q 183 140 185 146 q 182 128 182 135 q 182 124 182 126 q 182 121 182 122 q 198 82 185 100 q 240 64 211 64 q 301 51 286 64 q 317 25 315 39 q 317 23 317 24 q 317 21 317 22 q 292 -1 313 4 q 243 -6 271 -6 q 233 -6 238 -6 q 224 -6 228 -6 q 205 -3 214 -4 q 186 -3 196 -3 q 162 -1 174 -1 q 142 0 150 0 q 107 -1 124 0 q 74 -3 90 -1 q 44 -3 58 -3 q 17 -4 29 -4 q -26 1 -10 -4 q -43 22 -42 6 q -43 24 -43 24 q -43 26 -43 25 q -42 29 -42 28 q -42 32 -42 31 q -27 53 -39 49 q 0 57 -15 57 q 2 57 0 57 q 6 57 4 57 q 12 57 8 57 q 19 57 15 57 q 53 64 38 57 q 76 97 69 71 l 383 842 q 410 876 392 863 q 449 890 428 889 q 485 879 468 890 q 514 840 503 868 l 831 99 q 854 65 838 72 q 889 56 871 57 q 895 56 892 56 q 903 54 899 56 q 937 49 922 54 q 951 21 951 44 q 935 -7 951 0 q 893 -14 919 -14 q 856 -12 876 -14 q 815 -7 836 -10 q 810 -6 813 -7 q 804 -6 807 -6 q 768 -1 786 -3 q 733 0 750 0 q 708 -1 721 0 q 683 -1 696 -1 q 658 -3 671 -3 q 633 -6 646 -4 q 587 -8 610 -7 q 544 -10 564 -10 q 491 -3 511 -10 q 471 21 471 3 q 490 47 474 40 q 524 56 506 53 q 528 56 526 56 q 533 56 531 56 q 564 61 550 57 q 578 79 578 65 q 576 92 578 85 q 568 108 574 99 l 503 263 l 503 263 m 361 635 l 263 383 q 260 372 261 376 q 258 364 258 367 q 269 351 258 353 q 306 349 281 349 l 415 350 q 454 357 449 349 q 460 382 460 365 l 361 635 l 361 635 m 251 1083 q 281 1133 256 1117 q 335 1151 306 1150 q 337 1151 336 1151 q 339 1151 338 1151 q 399 1133 372 1151 q 426 1082 426 1115 q 426 1079 426 1081 q 426 1078 426 1078 q 426 1075 426 1076 q 426 1072 426 1074 q 401 1007 428 1029 q 344 983 375 985 q 342 983 343 983 q 340 983 342 983 q 279 1004 307 982 q 251 1071 251 1026 q 251 1074 251 1072 q 251 1076 251 1075 q 251 1079 251 1078 q 251 1082 251 1081 l 251 1083 m 514 1083 q 544 1135 518 1117 q 600 1154 569 1153 q 602 1154 601 1154 q 604 1154 603 1154 q 663 1137 636 1156 q 689 1082 689 1118 q 689 1079 689 1081 q 689 1078 689 1078 q 689 1075 689 1076 q 689 1072 689 1074 q 664 1007 690 1029 q 607 983 638 985 q 605 983 606 983 q 603 983 604 983 q 542 1004 569 982 q 514 1071 514 1026 q 514 1074 514 1072 q 514 1076 514 1075 q 514 1079 514 1078 q 514 1082 514 1081 l 514 1083 z "},"":{"ha":918,"x_min":-43,"x_max":951,"o":"m 503 263 q 500 267 501 264 q 497 272 499 269 q 483 282 492 281 q 449 283 474 283 l 274 285 q 233 275 249 283 q 218 250 218 267 l 186 153 q 183 140 185 146 q 182 128 182 135 q 182 124 182 126 q 182 121 182 122 q 198 82 185 100 q 240 64 211 64 q 301 51 286 64 q 317 25 315 39 q 317 23 317 24 q 317 21 317 22 q 292 -1 313 4 q 243 -6 271 -6 q 233 -6 238 -6 q 224 -6 228 -6 q 205 -3 214 -4 q 186 -3 196 -3 q 162 -1 174 -1 q 142 0 150 0 q 107 -1 124 0 q 74 -3 90 -1 q 44 -3 58 -3 q 17 -4 29 -4 q -26 1 -10 -4 q -43 22 -42 6 q -43 24 -43 24 q -43 26 -43 25 q -42 29 -42 28 q -42 32 -42 31 q -27 53 -39 49 q 0 57 -15 57 q 2 57 0 57 q 6 57 4 57 q 12 57 8 57 q 19 57 15 57 q 53 64 38 57 q 76 97 69 71 l 383 842 q 410 876 392 863 q 449 890 428 889 q 485 879 468 890 q 514 840 503 868 l 831 99 q 854 65 838 72 q 889 56 871 57 q 895 56 892 56 q 903 54 899 56 q 937 49 922 54 q 951 21 951 44 q 935 -7 951 0 q 893 -14 919 -14 q 856 -12 876 -14 q 815 -7 836 -10 q 810 -6 813 -7 q 804 -6 807 -6 q 768 -1 786 -3 q 733 0 750 0 q 708 -1 721 0 q 683 -1 696 -1 q 658 -3 671 -3 q 633 -6 646 -4 q 587 -8 610 -7 q 544 -10 564 -10 q 491 -3 511 -10 q 471 21 471 3 q 490 47 474 40 q 524 56 506 53 q 528 56 526 56 q 533 56 531 56 q 564 61 550 57 q 578 79 578 65 q 576 92 578 85 q 568 108 574 99 l 503 263 l 503 263 m 361 635 l 263 383 q 260 372 261 376 q 258 364 258 367 q 269 351 258 353 q 306 349 281 349 l 415 350 q 454 357 449 349 q 460 382 460 365 l 361 635 l 361 635 m 317 1138 q 363 1228 321 1196 q 453 1264 404 1260 q 457 1264 454 1264 q 461 1264 460 1264 q 550 1233 510 1264 q 590 1136 590 1201 q 590 1133 590 1135 q 590 1132 590 1132 q 590 1129 590 1131 q 590 1126 590 1128 q 549 1027 592 1061 q 456 992 507 993 q 360 1028 404 992 q 317 1136 317 1064 l 317 1138 m 404 1126 q 421 1089 404 1101 q 458 1076 438 1076 q 497 1088 479 1075 q 514 1125 514 1100 q 497 1161 514 1149 q 460 1174 481 1174 q 422 1163 439 1175 q 404 1125 404 1150 l 404 1126 z "},"":{"ha":918,"x_min":22,"x_max":886,"o":"m 864 689 q 865 684 865 686 q 865 679 865 682 q 856 658 865 665 q 836 651 847 651 q 833 651 835 651 q 828 651 831 651 q 806 663 817 654 q 788 688 794 671 q 706 788 761 756 q 585 819 650 819 q 565 819 575 819 q 544 817 556 818 q 415 765 478 807 q 317 654 353 724 q 285 562 296 613 q 275 456 275 511 q 276 428 275 442 q 278 403 276 415 q 351 171 289 278 q 525 42 414 64 q 563 35 544 38 q 597 33 581 33 q 717 72 667 32 q 814 193 768 113 q 817 201 815 197 q 821 207 819 204 q 833 224 824 217 q 851 233 842 232 q 856 235 853 235 q 860 235 858 235 q 878 228 871 235 q 886 207 886 222 l 875 76 q 868 57 875 67 q 846 36 861 47 q 752 -4 815 14 q 599 -22 689 -22 q 532 -20 567 -22 q 460 -11 497 -18 l 438 -65 q 465 -61 451 -62 q 489 -60 478 -60 q 572 -87 546 -60 q 597 -153 597 -115 q 593 -186 597 -169 q 579 -218 589 -203 q 528 -260 561 -247 q 460 -272 496 -272 q 360 -251 406 -272 q 314 -197 315 -229 q 317 -181 314 -189 q 328 -164 321 -172 q 340 -152 335 -156 q 351 -149 346 -149 q 358 -150 356 -149 q 365 -153 361 -151 q 378 -167 371 -158 q 393 -183 385 -175 q 422 -207 406 -196 q 460 -218 438 -218 q 498 -201 483 -218 q 513 -165 513 -185 q 505 -140 513 -151 q 481 -121 497 -128 q 469 -118 475 -119 q 460 -115 464 -117 q 449 -114 454 -114 q 438 -114 443 -114 q 423 -115 431 -114 q 410 -115 415 -115 q 397 -116 403 -115 q 385 -117 390 -117 q 361 -111 368 -117 q 361 -87 354 -106 l 393 0 q 301 24 360 6 q 181 93 243 42 q 156 115 168 103 q 131 140 143 126 q 63 243 88 189 q 29 351 39 297 q 24 388 26 369 q 22 424 22 406 q 50 578 22 506 q 121 699 78 651 q 254 807 181 767 q 404 865 328 847 q 499 883 451 878 q 589 888 546 888 q 726 876 665 888 q 818 850 788 864 q 835 839 829 844 q 842 829 842 833 l 864 689 l 864 689 z "},"":{"ha":831,"x_min":-3,"x_max":799,"o":"m 131 733 q 112 777 125 767 q 76 794 99 788 q 57 800 68 797 q 33 808 46 803 q 15 818 22 813 q 4 829 7 824 q 3 833 4 831 q 3 836 3 835 q 17 856 1 847 q 61 864 32 864 q 74 864 68 864 q 88 863 81 864 q 133 861 108 863 q 185 857 157 860 q 242 853 211 856 q 306 851 272 851 q 378 853 331 851 q 476 857 425 856 q 481 857 479 857 q 485 857 482 857 q 581 861 535 860 q 656 863 628 863 q 672 863 664 863 q 688 864 681 864 q 702 865 694 864 q 715 865 710 865 q 735 863 728 865 q 743 851 743 860 l 743 667 q 735 650 743 657 q 717 643 728 643 q 697 651 707 643 q 678 676 686 658 q 592 768 646 750 q 481 786 539 786 q 390 771 408 786 q 372 732 372 756 l 372 503 q 388 483 372 488 q 426 478 404 478 q 435 478 431 478 q 444 478 440 478 q 449 478 447 478 q 454 479 451 478 q 468 479 461 479 q 481 479 475 479 q 554 497 533 479 q 583 536 575 515 q 587 547 585 542 q 590 557 589 551 q 606 589 596 578 q 625 604 615 600 q 631 606 628 606 q 636 607 633 607 q 658 597 649 607 q 668 569 668 586 q 668 563 668 567 q 667 557 668 560 q 664 545 665 551 q 663 533 663 539 q 658 497 660 515 q 657 463 657 479 q 658 418 657 439 q 663 379 660 397 q 665 348 664 361 q 667 326 667 335 q 667 324 667 325 q 668 322 667 324 q 668 320 668 321 q 668 319 668 319 q 658 298 668 306 q 635 290 647 290 q 608 299 621 290 q 590 326 594 307 q 544 404 582 383 q 449 425 506 425 q 394 418 415 425 q 372 403 372 411 l 372 153 q 410 76 372 100 q 499 51 447 51 q 522 53 510 51 q 546 56 533 54 q 646 96 599 65 q 711 174 693 126 q 728 203 719 192 q 746 221 736 215 q 760 229 753 226 q 772 232 767 232 q 791 225 783 232 q 799 207 799 218 l 765 22 q 753 -4 763 3 q 722 -11 744 -11 q 688 -9 708 -11 q 638 -6 667 -7 q 567 -1 607 -3 q 476 0 528 0 q 433 0 456 0 q 383 0 410 0 l 76 -11 q 15 -2 33 -11 q -3 19 -3 7 q -2 24 -3 22 q -1 28 -1 26 q 18 50 3 40 q 54 64 33 60 q 117 88 104 72 q 131 151 131 103 l 131 733 l 131 733 m 460 1138 q 492 1148 476 1144 q 522 1151 508 1151 q 580 1132 558 1151 q 601 1085 601 1113 q 601 1079 601 1082 q 600 1074 601 1076 q 576 1033 596 1051 q 514 1004 556 1014 l 274 951 q 265 949 269 949 q 257 949 261 949 q 222 958 235 949 q 210 981 210 968 q 210 984 210 982 q 211 988 210 986 q 221 1003 214 996 q 240 1015 228 1010 l 460 1138 l 460 1138 z "},"":{"ha":996,"x_min":0,"x_max":985,"o":"m 788 339 l 788 743 q 765 787 788 775 q 717 803 743 799 q 706 803 711 803 q 696 806 700 804 q 660 813 675 808 q 646 829 646 817 q 664 863 646 854 q 708 871 682 871 q 738 869 722 871 q 769 867 753 868 q 772 867 771 867 q 775 867 774 867 q 803 864 789 865 q 831 863 817 863 q 861 864 846 863 q 892 868 876 865 q 919 871 906 869 q 943 872 932 872 q 974 866 963 872 q 985 840 985 860 q 985 837 985 839 q 985 832 985 835 q 971 808 985 813 q 938 804 957 804 q 931 804 935 804 q 925 803 928 804 q 883 792 901 803 q 864 742 864 781 l 864 -11 q 854 -28 864 -22 q 829 -35 844 -35 q 824 -35 826 -35 q 817 -33 821 -35 q 794 -26 806 -32 q 776 -11 783 -21 l 197 700 l 197 164 q 223 87 197 106 q 279 64 249 68 q 293 63 286 64 q 306 63 300 63 q 345 56 329 60 q 361 32 361 51 q 345 4 361 11 q 306 -3 329 -3 q 282 -2 294 -3 q 258 0 269 -1 q 245 1 251 0 q 232 3 239 1 q 201 8 215 6 q 175 10 186 10 q 149 8 164 10 q 117 3 133 6 q 108 1 113 1 q 99 0 103 0 q 74 -1 86 0 q 51 -3 63 -3 q 15 3 29 -3 q 0 32 0 10 q 15 58 0 53 q 50 64 29 63 q 58 65 54 64 q 65 65 61 65 q 110 83 90 69 q 131 140 131 96 l 131 743 q 112 791 131 779 q 71 807 93 803 q 60 808 65 807 q 51 808 56 808 q 23 813 35 810 q 11 829 11 817 q 28 864 11 854 q 76 874 44 874 l 317 875 q 349 872 339 874 q 367 864 358 871 q 374 854 369 860 q 383 840 378 849 l 788 339 l 788 339 m 218 1017 q 274 1092 246 1063 q 331 1138 303 1122 q 369 1152 350 1147 q 407 1157 389 1157 q 496 1137 451 1157 q 579 1092 540 1117 q 626 1065 607 1074 q 660 1056 644 1056 q 668 1056 664 1056 q 678 1058 672 1057 q 703 1070 690 1061 q 733 1092 717 1079 q 749 1100 742 1097 q 763 1103 757 1103 q 774 1099 769 1103 q 779 1086 779 1094 q 779 1079 779 1083 q 776 1071 779 1075 q 699 977 743 1006 q 610 944 656 949 q 603 944 607 944 q 596 944 600 944 q 500 965 547 944 q 415 1015 453 986 q 381 1039 397 1032 q 350 1046 364 1046 q 306 1031 325 1047 q 272 996 288 1015 q 267 989 269 992 q 263 983 265 986 q 253 972 258 976 q 243 967 249 968 q 222 967 232 961 q 213 989 213 974 q 214 1001 213 994 q 218 1015 215 1008 l 218 1017 z "},"":{"ha":1061,"x_min":22,"x_max":1029,"o":"m 22 460 q 187 784 33 676 q 521 892 340 892 q 523 892 522 892 q 525 892 524 892 q 867 778 711 890 q 1028 447 1024 667 q 1028 443 1028 446 q 1028 438 1028 440 q 876 97 1029 211 q 538 -18 724 -17 q 531 -18 535 -18 q 525 -18 528 -18 q 183 104 339 -14 q 22 458 26 222 l 22 460 m 274 449 q 363 159 288 258 q 525 44 438 60 q 540 42 532 43 q 554 42 547 42 q 717 131 644 42 q 789 392 789 219 q 789 400 789 396 q 789 408 789 404 q 788 417 788 413 q 788 425 788 421 q 702 722 779 619 q 533 836 625 824 q 522 837 528 836 q 510 838 515 838 q 346 749 419 839 q 272 481 272 658 q 272 472 272 476 q 274 464 272 468 q 274 456 274 460 q 274 447 274 451 l 274 449 m 274 1093 q 303 1143 278 1126 q 357 1161 328 1160 q 359 1161 358 1161 q 361 1161 360 1161 q 422 1143 394 1161 q 449 1092 449 1125 q 449 1089 449 1090 q 449 1088 449 1088 q 449 1085 449 1086 q 449 1082 449 1083 q 424 1017 450 1039 q 367 994 397 996 q 365 994 365 994 q 363 994 364 994 q 301 1015 329 993 q 274 1081 274 1038 q 274 1083 274 1082 q 274 1086 274 1085 q 274 1089 274 1088 q 274 1092 274 1090 l 274 1093 m 536 1093 q 566 1145 540 1126 q 622 1165 592 1164 q 624 1165 624 1165 q 626 1165 625 1165 q 685 1148 658 1167 q 711 1092 711 1129 q 711 1089 711 1090 q 711 1088 711 1088 q 711 1085 711 1086 q 711 1082 711 1083 q 686 1017 713 1039 q 629 994 660 996 q 627 994 628 994 q 625 994 626 994 q 564 1015 592 993 q 536 1081 536 1038 q 536 1083 536 1082 q 536 1086 536 1085 q 536 1089 536 1088 q 536 1092 536 1090 l 536 1093 z "},"":{"ha":974,"x_min":-21,"x_max":996,"o":"m 110 754 q 89 792 110 782 q 44 806 68 801 q 39 806 42 806 q 33 807 36 806 q -5 816 11 810 q -21 840 -21 822 q -1 866 -21 860 q 50 872 18 872 q 91 871 69 872 q 136 868 113 869 q 151 866 143 867 q 167 865 160 865 q 199 863 183 864 q 229 863 214 863 q 285 864 258 863 q 335 868 311 865 q 378 871 358 869 q 414 872 397 872 q 456 866 442 872 q 471 840 471 860 q 455 811 471 818 q 418 800 439 804 q 415 800 417 800 q 411 800 413 800 q 369 785 388 796 q 350 742 350 775 l 350 285 q 419 93 350 150 q 571 36 488 36 q 574 36 572 36 q 579 36 576 36 q 730 86 661 39 q 799 207 799 133 l 799 743 q 776 790 799 779 q 728 803 754 800 q 718 803 722 803 q 710 803 714 803 q 672 808 689 804 q 656 829 656 813 q 672 863 656 854 q 714 871 688 871 q 741 869 726 871 q 771 867 756 868 q 781 866 775 867 q 790 865 786 865 q 811 863 801 864 q 831 863 821 863 q 865 863 849 863 q 897 865 882 864 q 924 867 911 867 q 949 868 938 868 q 984 863 972 868 q 996 840 996 857 q 982 812 996 817 q 950 806 968 807 q 942 806 946 806 q 936 806 939 806 q 894 788 913 803 q 875 721 875 774 l 875 208 q 794 48 875 103 q 615 -24 713 -7 q 563 -31 589 -29 q 514 -33 538 -33 q 213 41 317 -33 q 110 304 110 115 l 110 754 l 110 754 m 339 1072 q 368 1122 343 1106 q 422 1140 393 1139 q 424 1140 424 1140 q 426 1140 425 1140 q 487 1122 460 1140 q 514 1071 514 1104 q 514 1068 514 1069 q 514 1067 514 1067 q 514 1064 514 1065 q 514 1061 514 1063 q 489 996 515 1018 q 432 972 463 974 q 430 972 431 972 q 428 972 429 972 q 367 993 394 971 q 339 1060 339 1015 q 339 1063 339 1061 q 339 1065 339 1064 q 339 1068 339 1067 q 339 1071 339 1069 l 339 1072 m 601 1072 q 631 1124 606 1106 q 688 1144 657 1143 q 690 1144 689 1144 q 692 1144 690 1144 q 750 1127 724 1146 q 776 1071 776 1108 q 776 1068 776 1069 q 776 1067 776 1067 q 776 1064 776 1065 q 776 1061 776 1063 q 751 996 778 1018 q 694 972 725 974 q 692 972 693 972 q 690 972 692 972 q 629 993 657 971 q 601 1060 601 1015 q 601 1063 601 1061 q 601 1065 601 1064 q 601 1068 601 1067 q 601 1071 601 1069 l 601 1072 z "},"":{"ha":722,"x_min":35,"x_max":744,"o":"m 415 415 l 415 536 q 401 579 415 563 q 364 597 388 596 q 328 587 347 597 q 289 553 308 576 q 264 517 276 538 q 240 469 251 496 q 238 466 239 468 q 235 463 238 464 q 197 438 224 450 q 139 419 169 426 q 115 415 126 417 q 92 414 103 414 q 53 421 69 414 q 38 446 38 428 q 39 458 38 451 q 43 469 40 464 q 167 599 74 551 q 365 653 260 646 q 385 653 375 653 q 404 654 394 654 q 565 620 494 654 q 635 513 635 586 l 635 142 q 640 113 635 121 q 651 104 644 106 q 669 109 660 104 q 689 121 679 114 q 690 122 689 122 q 692 124 692 122 q 725 141 710 135 q 743 129 740 147 q 743 127 743 128 q 744 125 743 126 q 744 123 744 124 q 744 121 744 122 q 742 105 744 113 q 735 89 739 97 q 665 28 715 56 q 558 0 615 0 q 555 0 557 0 q 551 -1 553 0 q 547 -1 549 -1 q 543 -1 546 -1 q 488 14 508 -1 q 457 47 468 29 q 445 71 450 60 q 436 89 440 82 q 431 95 433 93 q 426 97 429 97 q 399 80 418 97 q 353 43 381 63 q 285 6 324 22 q 197 -11 246 -11 q 78 29 122 -11 q 35 125 35 69 q 37 150 35 138 q 44 175 39 163 q 93 245 58 211 q 186 304 128 279 q 221 317 203 311 q 257 329 239 324 q 263 331 260 331 q 268 333 265 332 q 349 364 310 346 q 415 414 389 382 l 415 415 m 415 306 q 413 342 415 338 q 393 338 410 346 l 339 306 q 273 254 301 282 q 235 199 244 226 q 232 186 233 192 q 231 175 231 181 q 231 167 231 171 q 233 158 232 163 q 235 149 233 153 q 240 140 238 144 q 270 117 250 125 q 313 108 290 108 q 316 108 314 108 q 319 108 318 108 q 385 132 356 111 q 415 196 415 153 l 415 306 l 415 306 m 471 929 q 505 940 489 936 q 535 943 521 943 q 592 924 571 943 q 613 878 613 904 q 612 870 613 874 q 611 864 611 867 q 585 824 606 843 q 525 797 565 806 l 285 743 q 281 741 283 742 q 278 740 279 740 q 274 740 275 740 q 269 740 272 740 q 234 750 247 740 q 221 772 221 760 q 227 793 219 783 q 251 808 235 803 l 471 929 l 471 929 z "},"":{"ha":722,"x_min":35,"x_max":744,"o":"m 415 415 l 415 536 q 401 579 415 563 q 364 597 388 596 q 328 587 347 597 q 289 553 308 576 q 264 517 276 538 q 240 469 251 496 q 238 466 239 468 q 235 463 238 464 q 197 438 224 450 q 139 419 169 426 q 115 415 126 417 q 92 414 103 414 q 53 421 69 414 q 38 446 38 428 q 39 458 38 451 q 43 469 40 464 q 167 599 74 551 q 365 653 260 646 q 385 653 375 653 q 404 654 394 654 q 565 620 494 654 q 635 513 635 586 l 635 142 q 640 113 635 121 q 651 104 644 106 q 669 109 660 104 q 689 121 679 114 q 690 122 689 122 q 692 124 692 122 q 725 141 710 135 q 743 129 740 147 q 743 127 743 128 q 744 125 743 126 q 744 123 744 124 q 744 121 744 122 q 742 105 744 113 q 735 89 739 97 q 665 28 715 56 q 558 0 615 0 q 555 0 557 0 q 551 -1 553 0 q 547 -1 549 -1 q 543 -1 546 -1 q 488 14 508 -1 q 457 47 468 29 q 445 71 450 60 q 436 89 440 82 q 431 95 433 93 q 426 97 429 97 q 399 80 418 97 q 353 43 381 63 q 285 6 324 22 q 197 -11 246 -11 q 78 29 122 -11 q 35 125 35 69 q 37 150 35 138 q 44 175 39 163 q 93 245 58 211 q 186 304 128 279 q 221 317 203 311 q 257 329 239 324 q 263 331 260 331 q 268 333 265 332 q 349 364 310 346 q 415 414 389 382 l 415 415 m 415 306 q 413 342 415 338 q 393 338 410 346 l 339 306 q 273 254 301 282 q 235 199 244 226 q 232 186 233 192 q 231 175 231 181 q 231 167 231 171 q 233 158 232 163 q 235 149 233 153 q 240 140 238 144 q 270 117 250 125 q 313 108 290 108 q 316 108 314 108 q 319 108 318 108 q 385 132 356 111 q 415 196 415 153 l 415 306 l 415 306 m 514 799 q 526 786 521 792 q 535 775 532 781 q 541 763 539 768 q 543 751 543 757 q 535 734 543 742 q 507 726 526 726 q 491 728 500 726 q 471 732 482 729 l 229 788 q 178 815 194 793 q 161 861 161 836 q 180 912 160 889 q 236 936 200 935 q 269 932 251 936 q 306 917 286 928 l 514 799 l 514 799 z "},"":{"ha":722,"x_min":35,"x_max":744,"o":"m 415 415 l 415 536 q 401 579 415 563 q 364 597 388 596 q 328 587 347 597 q 289 553 308 576 q 264 517 276 538 q 240 469 251 496 q 238 466 239 468 q 235 463 238 464 q 197 438 224 450 q 139 419 169 426 q 115 415 126 417 q 92 414 103 414 q 53 421 69 414 q 38 446 38 428 q 39 458 38 451 q 43 469 40 464 q 167 599 74 551 q 365 653 260 646 q 385 653 375 653 q 404 654 394 654 q 565 620 494 654 q 635 513 635 586 l 635 142 q 640 113 635 121 q 651 104 644 106 q 669 109 660 104 q 689 121 679 114 q 690 122 689 122 q 692 124 692 122 q 725 141 710 135 q 743 129 740 147 q 743 127 743 128 q 744 125 743 126 q 744 123 744 124 q 744 121 744 122 q 742 105 744 113 q 735 89 739 97 q 665 28 715 56 q 558 0 615 0 q 555 0 557 0 q 551 -1 553 0 q 547 -1 549 -1 q 543 -1 546 -1 q 488 14 508 -1 q 457 47 468 29 q 445 71 450 60 q 436 89 440 82 q 431 95 433 93 q 426 97 429 97 q 399 80 418 97 q 353 43 381 63 q 285 6 324 22 q 197 -11 246 -11 q 78 29 122 -11 q 35 125 35 69 q 37 150 35 138 q 44 175 39 163 q 93 245 58 211 q 186 304 128 279 q 221 317 203 311 q 257 329 239 324 q 263 331 260 331 q 268 333 265 332 q 349 364 310 346 q 415 414 389 382 l 415 415 m 415 306 q 413 342 415 338 q 393 338 410 346 l 339 306 q 273 254 301 282 q 235 199 244 226 q 232 186 233 192 q 231 175 231 181 q 231 167 231 171 q 233 158 232 163 q 235 149 233 153 q 240 140 238 144 q 270 117 250 125 q 313 108 290 108 q 316 108 314 108 q 319 108 318 108 q 385 132 356 111 q 415 196 415 153 l 415 306 l 415 306 m 393 886 q 383 901 386 894 q 378 908 381 907 q 369 904 375 910 q 350 885 364 899 l 263 776 q 248 761 254 767 q 236 751 242 756 q 210 743 225 744 q 164 742 196 742 q 100 746 107 742 q 110 775 93 750 l 285 963 q 290 966 288 964 q 293 969 292 968 q 323 982 306 981 q 383 983 340 983 q 440 979 415 983 q 481 950 465 975 l 635 765 q 636 744 643 747 q 579 742 629 742 q 529 743 543 742 q 506 751 515 744 q 499 756 503 753 q 492 764 496 760 l 393 886 l 393 886 z "},"":{"ha":722,"x_min":35,"x_max":744,"o":"m 415 415 l 415 536 q 401 579 415 563 q 364 597 388 596 q 328 587 347 597 q 289 553 308 576 q 264 517 276 538 q 240 469 251 496 q 238 466 239 468 q 235 463 238 464 q 197 438 224 450 q 139 419 169 426 q 115 415 126 417 q 92 414 103 414 q 53 421 69 414 q 38 446 38 428 q 39 458 38 451 q 43 469 40 464 q 167 599 74 551 q 365 653 260 646 q 385 653 375 653 q 404 654 394 654 q 565 620 494 654 q 635 513 635 586 l 635 142 q 640 113 635 121 q 651 104 644 106 q 669 109 660 104 q 689 121 679 114 q 690 122 689 122 q 692 124 692 122 q 725 141 710 135 q 743 129 740 147 q 743 127 743 128 q 744 125 743 126 q 744 123 744 124 q 744 121 744 122 q 742 105 744 113 q 735 89 739 97 q 665 28 715 56 q 558 0 615 0 q 555 0 557 0 q 551 -1 553 0 q 547 -1 549 -1 q 543 -1 546 -1 q 488 14 508 -1 q 457 47 468 29 q 445 71 450 60 q 436 89 440 82 q 431 95 433 93 q 426 97 429 97 q 399 80 418 97 q 353 43 381 63 q 285 6 324 22 q 197 -11 246 -11 q 78 29 122 -11 q 35 125 35 69 q 37 150 35 138 q 44 175 39 163 q 93 245 58 211 q 186 304 128 279 q 221 317 203 311 q 257 329 239 324 q 263 331 260 331 q 268 333 265 332 q 349 364 310 346 q 415 414 389 382 l 415 415 m 415 306 q 413 342 415 338 q 393 338 410 346 l 339 306 q 273 254 301 282 q 235 199 244 226 q 232 186 233 192 q 231 175 231 181 q 231 167 231 171 q 233 158 232 163 q 235 149 233 153 q 240 140 238 144 q 270 117 250 125 q 313 108 290 108 q 316 108 314 108 q 319 108 318 108 q 385 132 356 111 q 415 196 415 153 l 415 306 l 415 306 m 175 853 q 204 903 179 886 q 258 921 229 919 q 260 921 260 921 q 263 921 261 921 q 323 903 296 921 q 350 851 350 885 q 350 849 350 850 q 350 847 350 847 q 350 844 350 846 q 350 842 350 843 q 325 777 351 799 q 268 754 299 756 q 266 754 267 754 q 264 754 265 754 q 203 775 231 753 q 175 840 175 797 q 175 843 175 842 q 175 846 175 844 q 175 849 175 847 q 175 851 175 850 l 175 853 m 438 853 q 467 905 442 886 q 524 925 493 924 q 526 925 525 925 q 528 925 526 925 q 586 908 560 926 q 613 851 613 889 q 613 849 613 850 q 613 847 613 847 q 613 844 613 846 q 613 842 613 843 q 588 777 614 799 q 531 754 561 756 q 528 754 529 754 q 526 754 528 754 q 465 775 493 753 q 438 840 438 797 q 438 843 438 842 q 438 846 438 844 q 438 849 438 847 q 438 851 438 850 l 438 853 z "},"":{"ha":722,"x_min":35,"x_max":744,"o":"m 415 415 l 415 536 q 401 579 415 563 q 364 597 388 596 q 328 587 347 597 q 289 553 308 576 q 264 517 276 538 q 240 469 251 496 q 238 466 239 468 q 235 463 238 464 q 197 438 224 450 q 139 419 169 426 q 115 415 126 417 q 92 414 103 414 q 53 421 69 414 q 38 446 38 428 q 39 458 38 451 q 43 469 40 464 q 167 599 74 551 q 365 653 260 646 q 385 653 375 653 q 404 654 394 654 q 565 620 494 654 q 635 513 635 586 l 635 142 q 640 113 635 121 q 651 104 644 106 q 669 109 660 104 q 689 121 679 114 q 690 122 689 122 q 692 124 692 122 q 725 141 710 135 q 743 129 740 147 q 743 127 743 128 q 744 125 743 126 q 744 123 744 124 q 744 121 744 122 q 742 105 744 113 q 735 89 739 97 q 665 28 715 56 q 558 0 615 0 q 555 0 557 0 q 551 -1 553 0 q 547 -1 549 -1 q 543 -1 546 -1 q 488 14 508 -1 q 457 47 468 29 q 445 71 450 60 q 436 89 440 82 q 431 95 433 93 q 426 97 429 97 q 399 80 418 97 q 353 43 381 63 q 285 6 324 22 q 197 -11 246 -11 q 78 29 122 -11 q 35 125 35 69 q 37 150 35 138 q 44 175 39 163 q 93 245 58 211 q 186 304 128 279 q 221 317 203 311 q 257 329 239 324 q 263 331 260 331 q 268 333 265 332 q 349 364 310 346 q 415 414 389 382 l 415 415 m 415 306 q 413 342 415 338 q 393 338 410 346 l 339 306 q 273 254 301 282 q 235 199 244 226 q 232 186 233 192 q 231 175 231 181 q 231 167 231 171 q 233 158 232 163 q 235 149 233 153 q 240 140 238 144 q 270 117 250 125 q 313 108 290 108 q 316 108 314 108 q 319 108 318 108 q 385 132 356 111 q 415 196 415 153 l 415 306 l 415 306 m 88 810 q 144 885 115 856 q 200 929 172 914 q 239 944 219 940 q 276 949 258 949 q 365 928 321 949 q 449 885 408 908 q 495 856 476 865 q 529 847 514 847 q 540 848 535 847 q 550 851 544 849 q 574 864 561 856 q 601 885 586 872 q 617 893 610 890 q 631 896 625 896 q 644 892 639 896 q 649 878 649 888 q 648 871 649 875 q 646 863 647 867 q 563 765 610 793 q 467 738 515 738 q 369 758 417 738 q 285 808 322 779 q 250 831 267 824 q 219 839 233 839 q 175 823 194 839 q 140 788 156 807 q 135 781 138 785 q 131 775 133 778 q 122 764 126 768 q 111 758 117 760 q 91 760 100 754 q 82 781 82 765 q 83 794 82 788 q 88 808 85 800 l 88 810 z "},"":{"ha":722,"x_min":35,"x_max":744,"o":"m 415 415 l 415 536 q 401 579 415 563 q 364 597 388 596 q 328 587 347 597 q 289 553 308 576 q 264 517 276 538 q 240 469 251 496 q 238 466 239 468 q 235 463 238 464 q 197 438 224 450 q 139 419 169 426 q 115 415 126 417 q 92 414 103 414 q 53 421 69 414 q 38 446 38 428 q 39 458 38 451 q 43 469 40 464 q 167 599 74 551 q 365 653 260 646 q 385 653 375 653 q 404 654 394 654 q 565 620 494 654 q 635 513 635 586 l 635 142 q 640 113 635 121 q 651 104 644 106 q 669 109 660 104 q 689 121 679 114 q 690 122 689 122 q 692 124 692 122 q 725 141 710 135 q 743 129 740 147 q 743 127 743 128 q 744 125 743 126 q 744 123 744 124 q 744 121 744 122 q 742 105 744 113 q 735 89 739 97 q 665 28 715 56 q 558 0 615 0 q 555 0 557 0 q 551 -1 553 0 q 547 -1 549 -1 q 543 -1 546 -1 q 488 14 508 -1 q 457 47 468 29 q 445 71 450 60 q 436 89 440 82 q 431 95 433 93 q 426 97 429 97 q 399 80 418 97 q 353 43 381 63 q 285 6 324 22 q 197 -11 246 -11 q 78 29 122 -11 q 35 125 35 69 q 37 150 35 138 q 44 175 39 163 q 93 245 58 211 q 186 304 128 279 q 221 317 203 311 q 257 329 239 324 q 263 331 260 331 q 268 333 265 332 q 349 364 310 346 q 415 414 389 382 l 415 415 m 415 306 q 413 342 415 338 q 393 338 410 346 l 339 306 q 273 254 301 282 q 235 199 244 226 q 232 186 233 192 q 231 175 231 181 q 231 167 231 171 q 233 158 232 163 q 235 149 233 153 q 240 140 238 144 q 270 117 250 125 q 313 108 290 108 q 316 108 314 108 q 319 108 318 108 q 385 132 356 111 q 415 196 415 153 l 415 306 l 415 306 m 251 886 q 297 976 256 944 q 388 1013 339 1008 q 392 1013 389 1013 q 396 1013 394 1013 q 485 981 444 1013 q 525 885 525 950 q 525 882 525 883 q 525 881 525 881 q 525 878 525 879 q 525 875 525 876 q 484 776 526 810 q 390 740 442 742 q 295 776 339 740 q 251 885 251 813 l 251 886 m 339 875 q 356 838 339 850 q 393 825 372 825 q 431 836 414 824 q 449 874 449 849 q 432 910 449 897 q 394 922 415 922 q 356 911 374 924 q 339 874 339 899 l 339 875 z "},"":{"ha":700,"x_min":1,"x_max":671,"o":"m 229 361 q 229 357 229 358 q 229 354 229 356 q 229 351 229 353 q 229 349 229 350 q 233 311 229 331 q 246 271 238 292 q 341 140 274 200 q 489 81 408 81 q 545 89 517 79 q 601 119 574 99 q 633 138 621 132 q 656 144 646 144 q 667 140 663 144 q 671 128 671 135 q 665 104 671 118 q 646 75 658 90 q 556 19 615 38 q 432 -3 497 0 q 419 -3 425 -3 q 406 -3 413 -3 q 378 -2 392 -3 q 350 0 364 -1 l 328 -54 q 337 -52 332 -53 q 346 -51 342 -51 q 355 -51 350 -51 q 364 -51 360 -51 q 456 -78 417 -51 q 496 -149 496 -104 q 490 -182 496 -164 q 471 -218 485 -200 q 420 -255 451 -244 q 354 -265 389 -265 q 251 -243 299 -265 q 203 -193 204 -221 q 203 -189 203 -192 q 204 -185 203 -186 q 206 -180 204 -182 q 208 -175 207 -178 q 247 -142 232 -142 q 274 -157 261 -143 q 283 -169 278 -162 q 292 -182 288 -175 q 303 -196 297 -189 q 317 -208 310 -203 q 333 -218 325 -215 q 350 -221 342 -221 q 388 -203 372 -221 q 403 -162 403 -185 q 401 -146 403 -154 q 393 -131 399 -137 q 369 -112 385 -117 q 335 -108 354 -108 q 326 -108 331 -108 q 317 -108 321 -108 q 309 -110 313 -110 q 303 -110 306 -110 q 288 -110 294 -110 q 274 -111 281 -111 q 253 -107 260 -111 q 251 -87 246 -103 l 285 0 q 244 11 265 4 q 203 28 224 18 q 124 74 163 46 q 54 151 86 103 q 15 233 28 192 q 1 317 1 275 q 118 551 1 449 q 428 654 235 654 q 438 654 433 654 q 449 654 443 654 q 484 651 465 654 q 522 644 503 649 q 595 620 561 635 q 646 589 629 606 q 650 580 649 586 q 651 565 651 574 q 649 539 651 554 q 643 508 647 524 q 619 452 635 478 q 583 426 603 426 q 572 428 578 426 q 558 436 565 431 q 556 438 557 438 q 553 440 554 439 q 528 473 540 453 q 501 515 515 493 q 456 574 481 547 q 401 600 432 600 q 398 600 400 600 q 393 600 396 600 q 380 597 386 599 q 367 593 374 596 q 272 515 315 575 q 229 360 229 454 l 229 361 z "},"":{"ha":722,"x_min":19,"x_max":700,"o":"m 251 393 q 243 384 246 392 q 240 361 240 376 q 247 308 240 340 q 271 243 254 276 q 344 149 296 193 q 471 97 393 106 q 475 97 474 97 q 479 97 476 97 q 483 96 481 96 q 486 96 485 96 q 551 108 522 96 q 601 136 579 121 q 640 164 624 151 q 668 176 656 176 q 680 173 675 176 q 689 163 685 169 q 692 156 692 160 q 693 149 693 153 q 684 123 693 136 q 658 96 675 110 q 583 46 629 69 q 485 10 536 22 q 444 2 464 4 q 404 0 424 0 q 336 3 372 0 q 263 18 300 7 q 114 106 183 40 q 22 304 44 171 q 20 324 21 314 q 19 343 19 333 q 21 369 19 356 q 24 394 22 382 q 129 576 42 493 q 383 665 217 658 q 445 660 410 665 q 517 644 481 656 q 617 594 569 628 q 689 501 665 560 q 691 496 690 499 q 693 489 692 493 q 697 474 694 482 q 700 457 699 465 q 700 453 700 456 q 700 449 700 451 q 687 409 700 426 q 635 392 674 392 l 251 393 l 251 393 m 263 460 q 288 452 267 454 q 336 450 310 450 q 347 450 342 450 q 356 450 351 450 q 401 453 379 451 q 438 458 424 456 q 483 484 468 465 q 497 525 497 503 q 497 528 497 526 q 497 532 497 531 q 467 587 494 563 q 389 611 440 611 q 381 611 385 611 q 372 611 376 611 q 315 584 339 607 q 276 535 292 561 q 263 502 268 518 q 257 475 257 486 q 258 465 257 469 q 263 458 260 460 l 263 460 m 481 940 q 513 951 497 947 q 543 954 529 954 q 602 935 581 956 q 624 889 624 915 q 624 886 624 888 q 624 883 624 885 q 601 838 621 860 q 536 808 581 817 l 296 754 q 288 751 292 751 q 279 751 283 751 q 244 761 257 751 q 232 783 232 771 q 232 789 232 786 q 233 794 232 792 q 243 808 236 801 q 263 819 250 815 l 481 940 l 481 940 z "},"":{"ha":722,"x_min":19,"x_max":700,"o":"m 251 393 q 243 384 246 392 q 240 361 240 376 q 247 308 240 340 q 271 243 254 276 q 344 149 296 193 q 471 97 393 106 q 475 97 474 97 q 479 97 476 97 q 483 96 481 96 q 486 96 485 96 q 551 108 522 96 q 601 136 579 121 q 640 164 624 151 q 668 176 656 176 q 680 173 675 176 q 689 163 685 169 q 692 156 692 160 q 693 149 693 153 q 684 123 693 136 q 658 96 675 110 q 583 46 629 69 q 485 10 536 22 q 444 2 464 4 q 404 0 424 0 q 336 3 372 0 q 263 18 300 7 q 114 106 183 40 q 22 304 44 171 q 20 324 21 314 q 19 343 19 333 q 21 369 19 356 q 24 394 22 382 q 129 576 42 493 q 383 665 217 658 q 445 660 410 665 q 517 644 481 656 q 617 594 569 628 q 689 501 665 560 q 691 496 690 499 q 693 489 692 493 q 697 474 694 482 q 700 457 699 465 q 700 453 700 456 q 700 449 700 451 q 687 409 700 426 q 635 392 674 392 l 251 393 l 251 393 m 263 460 q 288 452 267 454 q 336 450 310 450 q 347 450 342 450 q 356 450 351 450 q 401 453 379 451 q 438 458 424 456 q 483 484 468 465 q 497 525 497 503 q 497 528 497 526 q 497 532 497 531 q 467 587 494 563 q 389 611 440 611 q 381 611 385 611 q 372 611 376 611 q 315 584 339 607 q 276 535 292 561 q 263 502 268 518 q 257 475 257 486 q 258 465 257 469 q 263 458 260 460 l 263 460 m 503 810 q 515 797 510 803 q 524 786 521 792 q 530 775 528 781 q 532 764 532 769 q 523 745 532 753 q 494 738 514 738 q 479 739 488 738 q 460 742 471 740 l 218 799 q 167 826 183 804 q 150 872 150 847 q 169 923 150 900 q 226 946 189 946 q 259 942 242 946 q 296 928 276 938 l 503 810 l 503 810 z "},"":{"ha":722,"x_min":19,"x_max":700,"o":"m 251 393 q 243 384 246 392 q 240 361 240 376 q 247 308 240 340 q 271 243 254 276 q 344 149 296 193 q 471 97 393 106 q 475 97 474 97 q 479 97 476 97 q 483 96 481 96 q 486 96 485 96 q 551 108 522 96 q 601 136 579 121 q 640 164 624 151 q 668 176 656 176 q 680 173 675 176 q 689 163 685 169 q 692 156 692 160 q 693 149 693 153 q 684 123 693 136 q 658 96 675 110 q 583 46 629 69 q 485 10 536 22 q 444 2 464 4 q 404 0 424 0 q 336 3 372 0 q 263 18 300 7 q 114 106 183 40 q 22 304 44 171 q 20 324 21 314 q 19 343 19 333 q 21 369 19 356 q 24 394 22 382 q 129 576 42 493 q 383 665 217 658 q 445 660 410 665 q 517 644 481 656 q 617 594 569 628 q 689 501 665 560 q 691 496 690 499 q 693 489 692 493 q 697 474 694 482 q 700 457 699 465 q 700 453 700 456 q 700 449 700 451 q 687 409 700 426 q 635 392 674 392 l 251 393 l 251 393 m 263 460 q 288 452 267 454 q 336 450 310 450 q 347 450 342 450 q 356 450 351 450 q 401 453 379 451 q 438 458 424 456 q 483 484 468 465 q 497 525 497 503 q 497 528 497 526 q 497 532 497 531 q 467 587 494 563 q 389 611 440 611 q 381 611 385 611 q 372 611 376 611 q 315 584 339 607 q 276 535 292 561 q 263 502 268 518 q 257 475 257 486 q 258 465 257 469 q 263 458 260 460 l 263 460 m 426 886 q 416 901 419 896 q 410 908 413 907 q 402 904 407 910 q 383 885 397 899 l 296 776 q 281 761 288 767 q 269 751 275 756 q 244 743 258 744 q 197 742 229 742 q 133 746 140 742 q 142 775 126 750 l 317 963 q 322 966 319 964 q 328 971 325 968 q 358 982 340 981 q 415 983 375 983 q 473 979 449 983 q 514 950 497 975 l 667 765 q 668 744 675 747 q 613 742 661 742 q 563 743 576 742 q 539 751 549 744 q 533 756 536 753 q 525 764 529 760 l 426 886 l 426 886 z "},"":{"ha":722,"x_min":19,"x_max":700,"o":"m 251 393 q 243 384 246 392 q 240 361 240 376 q 247 308 240 340 q 271 243 254 276 q 344 149 296 193 q 471 97 393 106 q 475 97 474 97 q 479 97 476 97 q 483 96 481 96 q 486 96 485 96 q 551 108 522 96 q 601 136 579 121 q 640 164 624 151 q 668 176 656 176 q 680 173 675 176 q 689 163 685 169 q 692 156 692 160 q 693 149 693 153 q 684 123 693 136 q 658 96 675 110 q 583 46 629 69 q 485 10 536 22 q 444 2 464 4 q 404 0 424 0 q 336 3 372 0 q 263 18 300 7 q 114 106 183 40 q 22 304 44 171 q 20 324 21 314 q 19 343 19 333 q 21 369 19 356 q 24 394 22 382 q 129 576 42 493 q 383 665 217 658 q 445 660 410 665 q 517 644 481 656 q 617 594 569 628 q 689 501 665 560 q 691 496 690 499 q 693 489 692 493 q 697 474 694 482 q 700 457 699 465 q 700 453 700 456 q 700 449 700 451 q 687 409 700 426 q 635 392 674 392 l 251 393 l 251 393 m 263 460 q 288 452 267 454 q 336 450 310 450 q 347 450 342 450 q 356 450 351 450 q 401 453 379 451 q 438 458 424 456 q 483 484 468 465 q 497 525 497 503 q 497 528 497 526 q 497 532 497 531 q 467 587 494 563 q 389 611 440 611 q 381 611 385 611 q 372 611 376 611 q 315 584 339 607 q 276 535 292 561 q 263 502 268 518 q 257 475 257 486 q 258 465 257 469 q 263 458 260 460 l 263 460 m 208 864 q 238 915 211 899 q 296 932 265 932 q 298 932 297 932 q 300 932 299 932 q 357 913 331 931 q 383 863 383 894 q 383 858 383 861 q 383 853 383 856 q 357 788 385 810 q 296 765 329 765 q 294 765 294 765 q 292 765 293 765 q 235 787 261 765 q 208 851 208 808 q 208 854 208 853 q 208 857 208 856 q 208 860 208 858 q 208 863 208 861 l 208 864 m 471 864 q 499 915 474 897 q 553 936 524 933 q 558 936 556 936 q 561 936 560 936 q 619 919 593 938 q 646 863 646 900 q 646 858 646 861 q 646 853 646 856 q 619 788 647 810 q 558 765 592 765 q 556 765 557 765 q 554 765 556 765 q 497 787 524 765 q 471 851 471 808 q 471 854 471 853 q 471 857 471 856 q 471 860 471 858 q 471 863 471 861 l 471 864 z "},"":{"ha":449,"x_min":33,"x_max":525,"o":"m 142 438 l 142 99 q 125 62 142 68 q 88 56 108 56 q 85 54 86 54 q 85 54 85 54 q 49 49 65 54 q 33 21 33 44 q 52 -1 33 4 q 100 -6 71 -6 q 130 -5 114 -6 q 163 -3 146 -4 q 174 -2 168 -3 q 185 -1 179 -1 q 207 -1 196 -1 q 229 0 218 0 q 251 0 240 0 q 275 -1 263 0 q 294 -2 285 -1 q 314 -3 304 -3 q 355 -5 335 -4 q 392 -6 375 -6 q 449 -1 428 -6 q 471 21 471 4 q 452 51 471 46 q 411 60 433 57 q 369 67 388 61 q 350 97 350 72 l 350 624 q 324 673 350 688 q 261 628 297 658 q 247 616 254 622 q 233 606 240 610 q 221 596 228 600 q 208 589 214 592 q 136 561 171 571 q 76 543 101 551 q 45 531 57 538 q 33 513 33 524 q 44 494 33 499 q 71 489 56 490 q 79 487 75 488 q 88 486 83 486 q 122 472 106 482 q 142 436 138 463 l 142 438 m 383 929 q 417 940 401 936 q 447 943 433 943 q 504 924 483 943 q 525 878 525 904 q 524 870 525 874 q 524 864 524 867 q 498 824 518 843 q 438 797 478 806 l 197 743 q 194 741 196 742 q 190 740 192 740 q 186 740 188 740 q 182 740 185 740 q 147 750 160 740 q 133 772 133 760 q 140 793 132 783 q 164 808 147 803 l 383 929 l 383 929 z "},"":{"ha":449,"x_min":29,"x_max":471,"o":"m 142 438 l 142 99 q 125 62 142 68 q 88 56 108 56 q 85 54 86 54 q 85 54 85 54 q 49 49 65 54 q 33 21 33 44 q 52 -1 33 4 q 100 -6 71 -6 q 130 -5 114 -6 q 163 -3 146 -4 q 174 -2 168 -3 q 185 -1 179 -1 q 207 -1 196 -1 q 229 0 218 0 q 251 0 240 0 q 275 -1 263 0 q 294 -2 285 -1 q 314 -3 304 -3 q 355 -5 335 -4 q 392 -6 375 -6 q 449 -1 428 -6 q 471 21 471 4 q 452 51 471 46 q 411 60 433 57 q 369 67 388 61 q 350 97 350 72 l 350 624 q 324 673 350 688 q 261 628 297 658 q 247 616 254 622 q 233 606 240 610 q 221 596 228 600 q 208 589 214 592 q 136 561 171 571 q 76 543 101 551 q 45 531 57 538 q 33 513 33 524 q 44 494 33 499 q 71 489 56 490 q 79 487 75 488 q 88 486 83 486 q 122 472 106 482 q 142 436 138 463 l 142 438 m 383 810 q 395 797 390 803 q 404 786 400 792 q 409 775 407 781 q 411 764 411 769 q 402 745 411 753 q 374 738 393 738 q 358 739 367 738 q 339 742 350 740 l 99 799 q 47 826 64 804 q 29 872 29 847 q 49 923 29 900 q 106 946 69 946 q 138 942 121 946 q 175 928 156 938 l 383 810 l 383 810 z "},"":{"ha":449,"x_min":6,"x_max":556,"o":"m 142 438 l 142 99 q 125 62 142 68 q 88 56 108 56 q 85 54 86 54 q 85 54 85 54 q 49 49 65 54 q 33 21 33 44 q 52 -1 33 4 q 100 -6 71 -6 q 130 -5 114 -6 q 163 -3 146 -4 q 174 -2 168 -3 q 185 -1 179 -1 q 207 -1 196 -1 q 229 0 218 0 q 251 0 240 0 q 275 -1 263 0 q 294 -2 285 -1 q 314 -3 304 -3 q 355 -5 335 -4 q 392 -6 375 -6 q 449 -1 428 -6 q 471 21 471 4 q 452 51 471 46 q 411 60 433 57 q 369 67 388 61 q 350 97 350 72 l 350 624 q 324 673 350 688 q 261 628 297 658 q 247 616 254 622 q 233 606 240 610 q 221 596 228 600 q 208 589 214 592 q 136 561 171 571 q 76 543 101 551 q 45 531 57 538 q 33 513 33 524 q 44 494 33 499 q 71 489 56 490 q 79 487 75 488 q 88 486 83 486 q 122 472 106 482 q 142 436 138 463 l 142 438 m 306 897 q 296 912 299 906 q 290 919 293 918 q 282 915 288 921 q 263 896 276 910 l 175 788 q 160 772 167 778 q 149 763 154 767 q 123 754 138 756 q 76 753 108 753 q 13 757 19 753 q 22 786 6 761 l 197 974 q 202 977 200 975 q 206 981 204 979 q 235 993 218 992 q 296 994 253 994 q 353 990 328 994 q 393 961 378 986 l 547 776 q 549 756 556 758 q 492 753 542 753 q 442 754 456 753 q 418 763 428 756 q 412 767 415 764 q 404 775 408 771 l 306 897 l 306 897 z "},"":{"ha":449,"x_min":33,"x_max":538,"o":"m 142 438 l 142 99 q 125 62 142 68 q 88 56 108 56 q 85 54 86 54 q 85 54 85 54 q 49 49 65 54 q 33 21 33 44 q 52 -1 33 4 q 100 -6 71 -6 q 130 -5 114 -6 q 163 -3 146 -4 q 174 -2 168 -3 q 185 -1 179 -1 q 207 -1 196 -1 q 229 0 218 0 q 251 0 240 0 q 275 -1 263 0 q 294 -2 285 -1 q 314 -3 304 -3 q 355 -5 335 -4 q 392 -6 375 -6 q 449 -1 428 -6 q 471 21 471 4 q 452 51 471 46 q 411 60 433 57 q 369 67 388 61 q 350 97 350 72 l 350 624 q 324 673 350 688 q 261 628 297 658 q 247 616 254 622 q 233 606 240 610 q 221 596 228 600 q 208 589 214 592 q 136 561 171 571 q 76 543 101 551 q 45 531 57 538 q 33 513 33 524 q 44 494 33 499 q 71 489 56 490 q 79 487 75 488 q 88 486 83 486 q 122 472 106 482 q 142 436 138 463 l 142 438 m 99 864 q 128 914 103 897 q 182 932 153 931 q 184 932 183 932 q 186 932 185 932 q 247 914 219 932 q 274 863 274 896 q 274 860 274 861 q 274 858 274 858 q 274 856 274 857 q 274 853 274 854 q 249 788 275 810 q 192 765 222 767 q 190 765 190 765 q 188 765 189 765 q 126 786 154 764 q 99 851 99 808 q 99 854 99 853 q 99 857 99 856 q 99 860 99 858 q 99 863 99 861 l 99 864 m 361 864 q 391 916 365 897 q 447 936 417 935 q 449 936 449 936 q 451 936 450 936 q 510 919 483 938 q 536 863 536 900 q 536 860 536 861 q 536 858 536 858 q 536 856 536 857 q 536 853 536 854 q 511 788 538 810 q 454 765 485 767 q 452 765 453 765 q 450 765 451 765 q 389 786 417 764 q 361 851 361 808 q 361 854 361 853 q 361 857 361 856 q 361 860 361 858 q 361 863 361 861 l 361 864 z "},"":{"ha":918,"x_min":33,"x_max":929,"o":"m 350 558 q 412 598 381 581 q 476 626 443 615 q 540 643 508 638 q 601 649 571 649 q 749 603 688 649 q 810 469 810 557 l 810 121 q 828 76 810 86 q 869 64 847 67 q 875 63 872 63 q 882 61 878 63 q 915 55 900 60 q 929 32 929 50 q 905 3 929 10 q 842 -4 881 -4 q 809 -3 826 -4 q 774 -3 792 -3 q 753 -1 764 -1 q 733 0 743 -1 q 717 0 725 0 q 700 0 708 0 q 670 -1 686 0 q 638 -3 654 -1 q 633 -3 636 -3 q 628 -3 631 -3 q 600 -5 614 -4 q 574 -6 586 -6 q 523 -1 543 -6 q 503 21 503 4 q 517 55 503 47 q 547 67 531 63 q 550 67 549 67 q 553 67 551 67 q 586 82 571 71 q 601 129 601 93 l 601 449 q 567 526 601 501 q 488 550 532 550 q 482 550 485 550 q 476 550 479 550 q 390 520 429 547 q 350 447 350 493 l 350 131 q 365 76 350 89 q 400 58 381 63 q 404 58 401 58 q 410 57 407 57 q 437 48 425 54 q 449 21 449 42 q 434 -3 449 3 q 394 -10 419 -10 q 361 -8 379 -10 q 322 -6 343 -7 q 278 -1 301 -3 q 229 0 254 0 q 190 -1 208 0 q 153 -4 171 -3 q 120 -7 136 -6 q 92 -8 104 -8 q 49 -1 65 -8 q 33 32 33 7 q 47 55 33 50 q 76 61 60 60 q 82 63 79 63 q 88 64 85 63 q 125 76 108 67 q 142 119 142 86 l 142 426 q 125 473 142 463 q 88 486 108 483 q 81 486 85 486 q 75 486 78 486 q 46 492 58 488 q 33 513 33 496 q 47 535 33 529 q 83 546 61 542 q 140 559 108 551 q 207 588 172 567 q 229 603 218 594 q 251 622 240 611 q 295 658 275 646 q 329 671 315 671 q 344 665 339 671 q 350 644 350 658 l 350 558 l 350 558 m 197 788 q 259 869 228 839 q 322 914 290 900 q 353 924 338 921 q 385 926 369 926 q 470 908 428 928 q 551 867 513 889 q 556 865 554 865 q 558 863 557 864 q 605 835 586 844 q 639 826 624 826 q 649 827 644 826 q 660 831 654 828 q 683 843 671 835 q 711 863 696 851 q 727 871 719 868 q 740 874 735 874 q 752 869 747 874 q 757 857 757 865 q 757 849 757 853 q 754 840 757 844 q 671 743 718 771 q 575 715 624 715 q 478 736 525 715 q 393 786 431 757 q 358 809 375 801 q 328 817 342 817 q 284 801 303 817 q 250 765 265 785 q 245 759 247 763 q 240 753 243 756 q 234 745 238 749 q 226 740 231 742 q 219 736 222 738 q 213 735 215 735 q 198 740 204 735 q 192 758 192 746 q 192 771 190 764 q 197 786 194 778 l 197 788 z "},"":{"ha":831,"x_min":22,"x_max":803,"o":"m 22 350 q 157 570 42 499 q 407 642 272 642 q 678 563 556 642 q 803 333 801 483 q 802 308 803 321 q 799 283 801 296 q 660 63 776 138 q 411 -15 544 -12 q 406 -15 408 -15 q 401 -15 404 -15 q 140 69 258 -15 q 22 326 22 154 q 22 332 22 329 q 22 338 22 335 q 22 343 22 340 q 22 349 22 346 l 22 350 m 240 339 q 298 126 249 200 q 404 39 347 51 q 415 38 410 39 q 425 38 419 38 q 532 103 485 36 q 579 306 579 171 q 579 316 579 311 q 579 326 579 321 q 527 518 579 450 q 413 590 475 586 q 408 590 410 590 q 404 590 406 590 q 294 529 344 590 q 240 338 244 468 l 240 339 m 492 929 q 526 940 510 936 q 556 943 542 943 q 613 924 592 943 q 635 878 635 904 q 634 870 635 874 q 633 864 633 867 q 608 824 628 843 q 547 797 588 806 l 306 743 q 298 740 301 740 q 292 740 294 740 q 256 750 269 740 q 242 772 243 760 q 249 793 242 783 q 274 808 257 803 l 492 929 l 492 929 z "},"":{"ha":831,"x_min":22,"x_max":803,"o":"m 22 350 q 157 570 42 499 q 407 642 272 642 q 678 563 556 642 q 803 333 801 483 q 802 308 803 321 q 799 283 801 296 q 660 63 776 138 q 411 -15 544 -12 q 406 -15 408 -15 q 401 -15 404 -15 q 140 69 258 -15 q 22 326 22 154 q 22 332 22 329 q 22 338 22 335 q 22 343 22 340 q 22 349 22 346 l 22 350 m 240 339 q 298 126 249 200 q 404 39 347 51 q 415 38 410 39 q 425 38 419 38 q 532 103 485 36 q 579 306 579 171 q 579 316 579 311 q 579 326 579 321 q 527 518 579 450 q 413 590 475 586 q 408 590 410 590 q 404 590 406 590 q 294 529 344 590 q 240 338 244 468 l 240 339 m 568 799 q 581 786 575 792 q 589 775 586 781 q 595 763 593 768 q 597 751 597 757 q 589 734 597 742 q 561 726 581 726 q 545 728 554 726 q 525 732 536 729 l 285 788 q 233 815 250 793 q 215 861 215 836 q 235 912 215 889 q 292 936 256 935 q 324 932 307 936 q 361 917 342 928 l 568 799 l 568 799 z "},"":{"ha":831,"x_min":22,"x_max":803,"o":"m 22 350 q 157 570 42 499 q 407 642 272 642 q 678 563 556 642 q 803 333 801 483 q 802 308 803 321 q 799 283 801 296 q 660 63 776 138 q 411 -15 544 -12 q 406 -15 408 -15 q 401 -15 404 -15 q 140 69 258 -15 q 22 326 22 154 q 22 332 22 329 q 22 338 22 335 q 22 343 22 340 q 22 349 22 346 l 22 350 m 240 339 q 298 126 249 200 q 404 39 347 51 q 415 38 410 39 q 425 38 419 38 q 532 103 485 36 q 579 306 579 171 q 579 316 579 311 q 579 326 579 321 q 527 518 579 450 q 413 590 475 586 q 408 590 410 590 q 404 590 406 590 q 294 529 344 590 q 240 338 244 468 l 240 339 m 471 886 q 460 901 464 894 q 454 908 457 907 q 446 904 451 910 q 426 885 440 899 l 339 776 q 324 761 331 767 q 313 751 318 756 q 287 743 301 744 q 240 742 272 742 q 176 746 183 742 q 186 775 169 750 l 361 963 q 367 967 364 964 q 372 971 369 969 q 401 982 385 981 q 460 983 418 983 q 517 979 492 983 q 558 950 542 975 l 711 765 q 713 744 719 747 q 656 742 706 742 q 606 743 619 742 q 582 751 592 744 q 576 756 579 753 q 568 764 572 760 l 471 886 l 471 886 z "},"":{"ha":831,"x_min":22,"x_max":803,"o":"m 22 350 q 157 570 42 499 q 407 642 272 642 q 678 563 556 642 q 803 333 801 483 q 802 308 803 321 q 799 283 801 296 q 660 63 776 138 q 411 -15 544 -12 q 406 -15 408 -15 q 401 -15 404 -15 q 140 69 258 -15 q 22 326 22 154 q 22 332 22 329 q 22 338 22 335 q 22 343 22 340 q 22 349 22 346 l 22 350 m 240 339 q 298 126 249 200 q 404 39 347 51 q 415 38 410 39 q 425 38 419 38 q 532 103 485 36 q 579 306 579 171 q 579 316 579 311 q 579 326 579 321 q 527 518 579 450 q 413 590 475 586 q 408 590 410 590 q 404 590 406 590 q 294 529 344 590 q 240 338 244 468 l 240 339 m 186 831 q 215 881 190 864 q 269 899 240 897 q 272 899 271 899 q 274 899 272 899 q 334 881 307 899 q 361 829 361 863 q 361 826 361 828 q 361 825 361 825 q 361 822 361 824 q 361 819 361 821 q 336 755 363 776 q 279 732 310 733 q 277 732 278 732 q 275 732 276 732 q 214 753 242 731 q 186 818 186 775 q 186 821 186 819 q 186 824 186 822 q 186 826 186 825 q 186 829 186 828 l 186 831 m 449 831 q 478 883 453 864 q 535 903 504 901 q 537 903 536 903 q 539 903 538 903 q 597 885 571 904 q 624 829 624 867 q 624 826 624 828 q 624 825 624 825 q 624 822 624 824 q 624 819 624 821 q 599 755 625 776 q 542 732 572 733 q 540 732 540 732 q 538 732 539 732 q 476 753 504 731 q 449 818 449 775 q 449 821 449 819 q 449 824 449 822 q 449 826 449 825 q 449 829 449 828 l 449 831 z "},"":{"ha":831,"x_min":22,"x_max":803,"o":"m 22 350 q 157 570 42 499 q 407 642 272 642 q 678 563 556 642 q 803 333 801 483 q 802 308 803 321 q 799 283 801 296 q 660 63 776 138 q 411 -15 544 -12 q 406 -15 408 -15 q 401 -15 404 -15 q 140 69 258 -15 q 22 326 22 154 q 22 332 22 329 q 22 338 22 335 q 22 343 22 340 q 22 349 22 346 l 22 350 m 240 339 q 298 126 249 200 q 404 39 347 51 q 415 38 410 39 q 425 38 419 38 q 532 103 485 36 q 579 306 579 171 q 579 316 579 311 q 579 326 579 321 q 527 518 579 450 q 413 590 475 586 q 408 590 410 590 q 404 590 406 590 q 294 529 344 590 q 240 338 244 468 l 240 339 m 131 810 q 187 885 158 856 q 243 929 215 914 q 282 944 263 940 q 319 949 301 949 q 408 928 364 949 q 492 885 453 908 q 538 856 519 865 q 572 847 557 847 q 581 848 576 847 q 590 850 585 849 q 616 863 603 854 q 646 885 629 871 q 662 893 654 890 q 675 896 669 896 q 687 892 682 896 q 692 879 692 888 q 692 871 692 875 q 689 863 692 867 q 606 765 653 793 q 510 738 558 738 q 413 758 460 738 q 328 808 365 779 q 293 831 310 824 q 263 839 276 839 q 219 823 238 839 q 185 788 200 807 q 180 781 182 785 q 175 775 178 778 q 166 764 171 768 q 156 758 161 760 q 135 759 144 753 q 125 782 125 765 q 126 794 125 788 q 131 808 128 800 l 131 810 z "},"":{"ha":831,"x_min":-10,"x_max":844,"o":"m 821 54 l 579 -11 q 576 -11 578 -11 q 572 -11 574 -11 q 554 -1 558 -11 q 550 22 550 8 q 550 30 550 26 q 550 38 550 33 q 551 43 551 40 q 551 49 551 46 q 552 60 551 54 q 553 71 553 67 q 553 82 554 78 q 547 86 551 86 q 519 71 539 86 q 468 38 499 56 q 396 3 436 18 q 306 -11 356 -11 q 269 -8 289 -11 q 229 3 250 -4 q 140 68 181 22 q 99 196 99 114 l 99 536 q 81 575 99 568 q 44 583 64 582 q 42 583 43 583 q 40 583 42 583 q 6 589 21 583 q -10 622 -10 594 q 8 644 -10 639 q 53 650 26 650 q 76 649 64 650 q 101 647 89 649 q 106 647 104 647 q 110 647 107 647 q 138 645 124 646 q 164 644 151 644 q 192 646 178 644 q 219 649 206 647 q 244 651 232 650 q 268 653 257 653 q 303 644 290 653 q 317 611 317 636 l 317 197 q 348 116 317 140 q 418 92 379 92 q 420 92 419 92 q 422 92 421 92 q 501 117 465 92 q 536 185 536 143 l 536 525 q 519 570 536 561 q 482 582 501 579 q 478 582 479 582 q 475 582 476 582 q 442 590 457 583 q 426 622 426 596 q 447 644 426 639 q 496 650 467 650 q 516 649 506 650 q 536 649 526 649 q 547 648 542 649 q 557 647 551 647 q 586 645 572 646 q 613 644 600 644 q 640 645 626 644 q 664 647 653 646 q 687 648 676 647 q 706 649 697 649 q 742 642 729 649 q 754 611 754 635 l 754 164 q 758 128 754 138 q 782 114 761 119 q 794 111 788 113 q 810 108 801 110 q 835 99 825 108 q 844 78 844 89 q 840 63 844 69 q 821 53 835 56 l 821 54 m 460 940 q 492 951 476 947 q 522 954 508 954 q 580 935 558 956 q 601 889 601 915 q 601 886 601 888 q 601 883 601 885 q 578 838 599 860 q 514 808 558 817 l 274 754 q 265 751 269 751 q 257 751 261 751 q 222 761 235 751 q 210 785 210 771 q 210 788 210 786 q 211 792 210 790 q 221 807 214 800 q 240 819 228 814 l 460 940 l 460 940 z "},"":{"ha":831,"x_min":-10,"x_max":844,"o":"m 821 54 l 579 -11 q 576 -11 578 -11 q 572 -11 574 -11 q 554 -1 558 -11 q 550 22 550 8 q 550 30 550 26 q 550 38 550 33 q 551 43 551 40 q 551 49 551 46 q 552 60 551 54 q 553 71 553 67 q 553 82 554 78 q 547 86 551 86 q 519 71 539 86 q 468 38 499 56 q 396 3 436 18 q 306 -11 356 -11 q 269 -8 289 -11 q 229 3 250 -4 q 140 68 181 22 q 99 196 99 114 l 99 536 q 81 575 99 568 q 44 583 64 582 q 42 583 43 583 q 40 583 42 583 q 6 589 21 583 q -10 622 -10 594 q 8 644 -10 639 q 53 650 26 650 q 76 649 64 650 q 101 647 89 649 q 106 647 104 647 q 110 647 107 647 q 138 645 124 646 q 164 644 151 644 q 192 646 178 644 q 219 649 206 647 q 244 651 232 650 q 268 653 257 653 q 303 644 290 653 q 317 611 317 636 l 317 197 q 348 116 317 140 q 418 92 379 92 q 420 92 419 92 q 422 92 421 92 q 501 117 465 92 q 536 185 536 143 l 536 525 q 519 570 536 561 q 482 582 501 579 q 478 582 479 582 q 475 582 476 582 q 442 590 457 583 q 426 622 426 596 q 447 644 426 639 q 496 650 467 650 q 516 649 506 650 q 536 649 526 649 q 547 648 542 649 q 557 647 551 647 q 586 645 572 646 q 613 644 600 644 q 640 645 626 644 q 664 647 653 646 q 687 648 676 647 q 706 649 697 649 q 742 642 729 649 q 754 611 754 635 l 754 164 q 758 128 754 138 q 782 114 761 119 q 794 111 788 113 q 810 108 801 110 q 835 99 825 108 q 844 78 844 89 q 840 63 844 69 q 821 53 835 56 l 821 54 m 558 810 q 570 797 565 803 q 579 786 575 792 q 584 775 582 781 q 586 764 586 769 q 577 745 586 753 q 549 738 568 738 q 533 739 542 738 q 514 742 525 740 l 274 799 q 222 826 239 804 q 204 872 204 847 q 224 923 204 900 q 281 946 244 946 q 313 942 296 946 q 350 928 331 938 l 558 810 l 558 810 z "},"":{"ha":831,"x_min":-10,"x_max":844,"o":"m 821 54 l 579 -11 q 576 -11 578 -11 q 572 -11 574 -11 q 554 -1 558 -11 q 550 22 550 8 q 550 30 550 26 q 550 38 550 33 q 551 43 551 40 q 551 49 551 46 q 552 60 551 54 q 553 71 553 67 q 553 82 554 78 q 547 86 551 86 q 519 71 539 86 q 468 38 499 56 q 396 3 436 18 q 306 -11 356 -11 q 269 -8 289 -11 q 229 3 250 -4 q 140 68 181 22 q 99 196 99 114 l 99 536 q 81 575 99 568 q 44 583 64 582 q 42 583 43 583 q 40 583 42 583 q 6 589 21 583 q -10 622 -10 594 q 8 644 -10 639 q 53 650 26 650 q 76 649 64 650 q 101 647 89 649 q 106 647 104 647 q 110 647 107 647 q 138 645 124 646 q 164 644 151 644 q 192 646 178 644 q 219 649 206 647 q 244 651 232 650 q 268 653 257 653 q 303 644 290 653 q 317 611 317 636 l 317 197 q 348 116 317 140 q 418 92 379 92 q 420 92 419 92 q 422 92 421 92 q 501 117 465 92 q 536 185 536 143 l 536 525 q 519 570 536 561 q 482 582 501 579 q 478 582 479 582 q 475 582 476 582 q 442 590 457 583 q 426 622 426 596 q 447 644 426 639 q 496 650 467 650 q 516 649 506 650 q 536 649 526 649 q 547 648 542 649 q 557 647 551 647 q 586 645 572 646 q 613 644 600 644 q 640 645 626 644 q 664 647 653 646 q 687 648 676 647 q 706 649 697 649 q 742 642 729 649 q 754 611 754 635 l 754 164 q 758 128 754 138 q 782 114 761 119 q 794 111 788 113 q 810 108 801 110 q 835 99 825 108 q 844 78 844 89 q 840 63 844 69 q 821 53 835 56 l 821 54 m 426 897 q 416 913 419 907 q 410 919 413 918 q 402 915 407 921 q 383 896 397 910 l 296 788 q 281 772 288 778 q 269 763 275 767 q 244 754 258 756 q 197 753 229 753 q 133 757 140 753 q 142 786 126 761 l 317 974 q 322 977 319 975 q 328 982 325 979 q 358 993 340 992 q 415 994 375 994 q 473 990 449 994 q 514 961 497 986 l 667 776 q 668 756 675 758 q 613 753 661 753 q 563 754 576 753 q 539 763 549 756 q 533 767 536 764 q 525 775 529 771 l 426 897 l 426 897 z "},"":{"ha":831,"x_min":-10,"x_max":844,"o":"m 821 54 l 579 -11 q 576 -11 578 -11 q 572 -11 574 -11 q 554 -1 558 -11 q 550 22 550 8 q 550 30 550 26 q 550 38 550 33 q 551 43 551 40 q 551 49 551 46 q 552 60 551 54 q 553 71 553 67 q 553 82 554 78 q 547 86 551 86 q 519 71 539 86 q 468 38 499 56 q 396 3 436 18 q 306 -11 356 -11 q 269 -8 289 -11 q 229 3 250 -4 q 140 68 181 22 q 99 196 99 114 l 99 536 q 81 575 99 568 q 44 583 64 582 q 42 583 43 583 q 40 583 42 583 q 6 589 21 583 q -10 622 -10 594 q 8 644 -10 639 q 53 650 26 650 q 76 649 64 650 q 101 647 89 649 q 106 647 104 647 q 110 647 107 647 q 138 645 124 646 q 164 644 151 644 q 192 646 178 644 q 219 649 206 647 q 244 651 232 650 q 268 653 257 653 q 303 644 290 653 q 317 611 317 636 l 317 197 q 348 116 317 140 q 418 92 379 92 q 420 92 419 92 q 422 92 421 92 q 501 117 465 92 q 536 185 536 143 l 536 525 q 519 570 536 561 q 482 582 501 579 q 478 582 479 582 q 475 582 476 582 q 442 590 457 583 q 426 622 426 596 q 447 644 426 639 q 496 650 467 650 q 516 649 506 650 q 536 649 526 649 q 547 648 542 649 q 557 647 551 647 q 586 645 572 646 q 613 644 600 644 q 640 645 626 644 q 664 647 653 646 q 687 648 676 647 q 706 649 697 649 q 742 642 729 649 q 754 611 754 635 l 754 164 q 758 128 754 138 q 782 114 761 119 q 794 111 788 113 q 810 108 801 110 q 835 99 825 108 q 844 78 844 89 q 840 63 844 69 q 821 53 835 56 l 821 54 m 164 864 q 193 914 168 897 q 247 932 218 931 q 249 932 249 932 q 251 932 250 932 q 312 914 285 932 q 339 863 339 896 q 339 860 339 861 q 339 858 339 858 q 339 856 339 857 q 339 853 339 854 q 314 788 340 810 q 257 765 288 767 q 255 765 256 765 q 253 765 254 765 q 192 786 219 764 q 164 851 164 808 q 164 854 164 853 q 164 857 164 856 q 164 860 164 858 q 164 863 164 861 l 164 864 m 426 864 q 456 916 431 897 q 513 936 482 935 q 515 936 514 936 q 517 936 515 936 q 575 919 549 938 q 601 863 601 900 q 601 860 601 861 q 601 858 601 858 q 601 856 601 857 q 601 853 601 854 q 576 788 603 810 q 519 765 550 767 q 517 765 518 765 q 515 765 517 765 q 454 786 482 764 q 426 851 426 808 q 426 854 426 853 q 426 857 426 856 q 426 860 426 858 q 426 863 426 861 l 426 864 z "},"":{"ha":754,"x_min":33,"x_max":722,"o":"m 306 426 q 310 442 308 435 q 311 456 311 450 q 308 468 313 464 q 292 472 303 472 q 279 473 286 474 q 263 469 272 472 l 110 438 q 101 435 106 435 q 94 435 97 435 q 47 465 61 435 q 33 546 33 494 q 51 617 33 593 q 90 646 69 642 q 94 646 92 646 q 97 646 96 646 q 103 646 100 646 q 110 644 107 646 l 251 601 q 268 598 261 599 q 281 597 275 597 q 301 603 297 597 q 307 617 306 608 q 307 620 307 618 q 307 625 307 622 q 306 626 306 625 q 306 628 306 626 q 306 631 306 629 q 306 633 306 632 l 274 810 q 272 818 272 814 q 272 826 272 822 q 302 874 272 864 q 383 885 332 885 q 397 885 390 885 q 408 885 403 885 q 414 885 411 885 q 418 885 417 885 q 464 874 443 883 q 485 829 485 864 q 484 815 485 824 q 481 797 483 807 l 449 656 q 444 626 446 638 q 442 607 442 614 q 446 593 442 597 q 460 589 450 589 l 635 624 q 647 624 642 624 q 658 625 653 625 q 706 604 689 625 q 722 535 722 583 q 707 453 722 483 q 654 424 692 424 q 645 424 650 424 q 635 425 640 424 l 492 460 q 471 463 479 461 q 457 464 463 464 q 440 453 443 464 q 438 414 438 443 l 481 -229 q 447 -296 481 -286 q 339 -306 413 -306 q 246 -292 274 -306 q 218 -229 218 -279 l 306 426 l 306 426 z "},"":{"ha":776,"x_min":142,"x_max":669,"o":"m 404 875 q 410 889 404 882 q 449 896 415 896 q 476 889 472 896 q 481 874 481 882 l 481 743 q 489 708 481 718 q 514 699 497 699 q 531 697 522 697 q 546 694 539 696 q 618 678 588 690 q 650 615 649 667 q 649 598 650 607 q 646 578 649 589 q 628 537 638 551 q 607 522 618 522 q 579 538 594 521 q 547 589 564 554 q 506 643 532 625 q 450 661 479 661 q 441 660 446 661 q 432 660 436 660 q 381 634 406 654 q 339 578 357 614 q 333 563 336 571 q 328 549 329 556 q 322 519 324 533 q 319 490 319 504 q 374 340 319 406 q 492 261 428 275 q 497 260 494 261 q 501 260 499 260 q 506 260 503 260 q 510 260 508 260 q 515 260 513 260 q 518 260 517 260 q 563 268 542 261 q 604 282 585 275 q 646 301 629 293 q 667 304 663 308 q 669 301 668 303 q 669 300 669 300 q 669 297 669 299 q 669 294 669 296 q 663 274 669 285 q 646 250 657 263 q 603 215 629 232 q 550 190 578 199 q 531 186 540 188 q 514 185 522 185 q 485 175 489 185 q 481 140 481 165 l 481 -11 q 475 -35 481 -28 q 438 -43 469 -43 q 408 -35 413 -43 q 404 -11 404 -28 l 404 142 q 396 179 404 174 q 372 185 388 185 q 241 243 293 196 q 164 343 189 290 q 147 392 153 368 q 142 436 142 415 q 144 465 142 450 q 150 496 146 481 q 222 613 168 557 q 361 688 275 668 q 399 703 393 688 q 404 742 404 718 l 404 875 l 404 875 z "},"":{"ha":776,"x_min":11,"x_max":790,"o":"m 503 404 q 487 395 485 403 q 496 371 489 388 q 503 351 500 363 q 506 324 506 339 q 499 276 507 303 q 471 217 492 250 q 469 191 461 199 q 494 178 476 183 q 531 168 510 174 q 579 151 553 163 q 635 133 611 139 q 676 128 660 128 q 712 138 701 126 q 722 163 722 149 q 711 184 722 176 q 685 199 700 192 q 679 201 682 200 q 674 204 676 203 q 639 224 654 213 q 624 261 624 236 q 644 345 624 322 q 692 368 665 368 q 694 368 693 368 q 697 368 696 368 q 738 354 719 367 q 765 326 757 342 q 784 280 778 304 q 790 231 790 256 q 790 222 790 226 q 789 213 790 217 q 724 58 783 128 q 579 -11 664 -11 q 499 3 535 -11 q 439 38 464 18 q 397 71 413 56 q 372 86 381 86 q 349 71 364 86 q 307 38 333 56 q 240 3 279 18 q 142 -11 200 -11 q 46 25 78 -11 q 11 104 14 61 q 11 109 11 107 q 11 113 11 111 q 22 166 11 140 q 54 207 32 192 q 126 240 90 231 q 194 250 163 250 q 256 243 228 250 q 306 228 285 236 q 317 224 313 225 q 324 222 321 222 q 335 227 332 222 q 338 240 338 232 q 335 265 338 251 q 328 294 332 279 q 314 335 319 318 q 303 364 308 353 q 278 396 293 389 q 229 403 263 403 l 121 404 q 99 406 106 403 q 92 418 92 410 q 94 431 92 424 q 99 447 96 438 q 101 456 100 453 q 104 463 103 460 q 119 477 110 475 q 153 479 128 479 l 218 481 q 229 480 225 479 q 233 485 233 481 q 228 504 235 490 q 208 546 222 518 q 200 576 203 561 q 196 610 197 592 q 197 628 196 619 q 199 646 197 638 q 223 735 204 693 q 263 797 242 776 q 367 865 315 846 q 464 885 419 885 q 545 871 510 885 q 601 840 581 857 q 625 812 618 831 q 632 771 632 793 q 632 763 632 767 q 631 754 632 758 q 613 694 628 722 q 581 664 597 667 q 574 663 578 663 q 568 665 571 664 q 535 692 549 675 q 511 729 521 710 q 499 753 504 742 q 492 775 494 765 q 465 809 481 799 q 435 819 450 819 q 382 790 406 821 q 358 713 358 760 q 362 680 358 697 q 372 644 365 663 q 433 517 417 549 q 458 481 449 486 q 464 479 461 479 q 471 479 467 479 l 568 481 q 625 477 610 479 q 640 463 640 475 q 639 452 640 458 q 635 436 638 446 q 631 426 633 431 q 628 417 629 421 q 617 405 624 407 q 590 403 610 403 l 503 404 l 503 404 m 317 131 q 283 168 303 157 q 243 179 264 179 q 196 164 217 179 q 174 128 175 149 q 174 126 174 126 q 175 124 174 125 q 175 122 175 122 q 175 119 175 121 q 194 81 179 94 q 229 67 210 67 q 249 69 239 67 q 268 78 258 72 q 293 99 281 86 q 317 129 306 111 l 317 131 z "},"":{"ha":558,"x_min":-1,"x_max":508,"o":"m 142 853 q 209 881 168 871 q 294 892 250 892 q 303 892 299 892 q 310 892 307 892 q 413 869 364 889 q 492 808 463 850 q 504 783 500 796 q 508 760 508 771 q 481 703 508 726 q 417 679 454 679 q 393 681 406 679 q 368 689 381 683 q 337 709 353 696 q 306 742 321 722 q 289 757 300 751 q 265 764 278 763 q 263 764 264 764 q 260 764 261 764 q 241 760 250 764 q 232 744 232 756 q 234 733 232 739 q 240 721 236 728 q 309 597 265 679 q 426 382 353 514 q 474 276 456 333 q 500 160 493 219 q 502 131 501 146 q 503 101 503 117 q 438 -120 503 -21 q 229 -229 374 -219 q 224 -229 226 -229 q 218 -231 221 -229 q 213 -231 215 -231 q 207 -231 210 -231 q 66 -190 126 -231 q 6 -96 6 -149 q 6 -88 6 -92 q 7 -81 6 -85 q 8 -73 7 -76 q 11 -65 10 -69 q 43 -17 22 -33 q 89 0 64 0 q 130 -10 108 0 q 174 -43 151 -19 q 191 -62 182 -51 q 208 -87 200 -74 q 226 -107 214 -99 q 250 -118 238 -115 q 258 -119 254 -118 q 264 -119 261 -119 q 283 -115 275 -119 q 290 -99 290 -110 q 287 -80 290 -90 q 274 -54 283 -69 q 144 170 200 68 q 54 338 88 272 q 12 462 25 403 q -1 574 -1 521 q 36 734 -1 664 q 142 851 74 804 l 142 853 m 121 624 q 121 619 121 621 q 121 615 121 617 q 121 611 121 613 q 121 607 121 610 q 136 501 121 558 q 175 386 151 444 q 205 317 189 351 q 238 250 221 283 q 295 139 268 190 q 339 53 322 88 q 374 17 364 -3 q 383 86 383 38 q 347 279 383 168 q 229 513 311 390 q 212 542 221 525 q 193 576 203 558 q 193 578 193 578 q 192 579 193 579 q 143 663 165 632 q 121 622 121 694 l 121 624 z "},"":{"ha":918,"x_min":13,"x_max":894,"o":"m 765 788 l 765 -164 q 747 -206 765 -192 q 707 -221 729 -221 q 665 -207 685 -221 q 646 -164 646 -193 l 646 788 l 579 788 l 579 -164 q 563 -207 579 -193 q 524 -221 546 -221 q 519 -221 522 -221 q 515 -221 517 -221 q 480 -204 496 -218 q 460 -164 464 -190 l 460 285 q 135 378 242 288 q 15 578 29 469 q 13 595 14 586 q 13 614 13 604 q 82 794 13 715 q 274 874 151 874 l 853 875 q 884 860 874 874 q 894 831 894 847 q 884 800 894 814 q 853 786 874 786 l 765 788 l 765 788 m 460 350 l 460 788 q 440 788 450 788 q 418 788 429 788 q 249 736 306 789 q 193 613 193 683 q 194 590 193 601 q 199 565 196 578 q 281 435 215 496 q 460 349 347 374 l 460 350 z "},"":{"ha":886,"x_min":0,"x_max":886,"o":"m 54 558 q 19 566 31 557 q 8 585 7 575 q 17 600 8 593 q 43 611 26 607 q 121 633 100 618 q 156 679 142 649 q 160 688 158 683 q 164 699 161 693 q 279 838 197 781 q 460 896 361 896 q 700 844 632 888 q 776 742 768 800 q 778 722 778 732 q 779 703 779 713 q 741 606 779 632 q 657 568 703 579 q 640 565 649 567 q 624 561 632 563 q 567 545 592 554 q 536 513 542 536 q 547 492 535 500 q 582 475 560 483 q 641 456 607 467 q 711 432 675 446 q 828 357 775 406 q 886 217 882 308 q 886 214 886 215 q 886 213 886 213 q 886 210 886 211 q 886 207 886 208 q 809 44 886 96 q 639 -17 732 -7 q 608 -20 624 -19 q 578 -21 593 -21 q 448 -3 503 -21 q 393 42 393 15 l 383 164 q 396 208 383 190 q 422 226 408 226 q 436 222 429 226 q 449 207 443 218 q 460 181 454 194 q 474 154 467 168 q 524 68 496 107 q 590 29 551 29 q 612 33 601 29 q 635 42 622 36 q 653 53 644 47 q 668 64 661 58 q 700 96 689 79 q 711 131 711 113 q 706 157 713 143 q 689 185 700 171 q 638 226 671 208 q 565 260 604 243 q 553 265 560 263 q 540 271 546 268 q 426 333 478 297 q 374 433 374 368 q 376 460 374 446 q 383 490 378 475 q 411 528 390 515 q 457 553 432 542 q 466 556 461 554 q 475 560 471 558 q 539 600 510 575 q 568 683 568 625 q 568 688 568 686 q 568 692 568 689 q 568 695 568 693 q 568 699 568 697 q 530 798 565 765 q 453 832 494 831 q 367 793 406 832 q 328 676 328 754 l 328 43 q 319 -1 328 10 q 292 -11 311 -11 q 269 -10 282 -11 q 242 -6 257 -8 q 206 -2 225 -4 q 164 0 188 0 q 138 -1 151 0 q 111 -6 125 -3 q 107 -6 108 -6 q 103 -7 106 -7 q 72 -12 88 -10 q 44 -14 57 -14 q 13 -7 25 -14 q 0 21 0 0 q 15 51 0 46 q 50 58 31 57 q 56 58 53 58 q 61 58 58 58 q 102 73 83 61 q 121 129 121 85 l 121 492 q 104 544 121 532 q 54 557 88 557 l 54 558 z "},"":{"ha":1061,"x_min":88,"x_max":997,"o":"m 547 897 q 862 758 736 888 q 996 447 988 628 q 996 444 996 446 q 996 440 996 442 q 996 436 996 438 q 996 432 996 435 q 885 135 997 256 q 639 -14 774 14 q 601 -20 621 -18 q 564 -22 582 -22 q 556 -22 560 -22 q 547 -22 551 -22 q 215 117 342 -14 q 88 436 88 247 q 206 756 88 617 q 547 896 325 896 l 547 897 m 547 842 q 267 733 392 840 q 142 436 142 625 q 263 152 142 272 q 547 32 383 32 q 549 32 549 32 q 551 32 550 32 q 811 138 693 33 q 929 435 929 243 q 929 440 929 438 q 929 447 929 443 q 929 453 929 450 q 929 458 929 456 q 842 688 922 596 q 665 817 761 779 q 605 834 635 828 q 547 840 575 840 l 547 842 m 317 186 l 317 218 q 331 219 324 219 q 343 219 338 219 q 345 219 344 219 q 347 219 346 219 q 374 227 365 219 q 383 283 383 235 l 383 613 q 371 679 383 660 q 317 699 358 699 l 317 733 l 547 733 q 695 688 650 732 q 740 590 740 643 q 740 588 740 589 q 740 586 740 586 q 705 497 739 538 q 613 447 671 456 q 669 401 649 432 q 703 336 689 371 q 708 324 706 331 q 713 313 710 318 q 745 249 726 276 q 799 217 764 221 l 799 186 q 775 182 786 183 q 753 181 764 181 q 667 213 692 181 q 622 297 642 244 q 617 311 619 304 q 613 326 615 318 q 605 344 608 336 q 597 360 601 351 q 552 417 578 399 q 471 436 526 436 l 471 285 q 475 235 471 244 q 501 222 479 225 q 517 219 508 221 q 536 217 525 218 l 536 186 l 317 186 l 317 186 m 471 471 q 496 467 483 468 q 518 465 508 465 q 606 490 578 465 q 642 546 633 515 q 645 562 644 554 q 646 578 646 569 q 619 653 646 628 q 558 688 592 679 q 542 691 550 690 q 525 692 533 692 q 487 685 503 692 q 471 665 471 678 l 471 471 l 471 471 z "},"":{"ha":1061,"x_min":74,"x_max":985,"o":"m 525 875 q 535 874 531 874 q 546 874 540 874 q 554 874 550 874 q 561 874 558 874 q 853 752 721 868 q 985 435 985 636 q 985 424 985 429 q 985 414 985 419 q 840 85 976 201 q 540 -33 703 -32 q 538 -33 539 -33 q 536 -33 538 -33 q 522 -33 529 -33 q 508 -32 515 -33 q 217 98 350 -22 q 76 414 85 218 q 75 431 75 422 q 75 447 75 439 q 183 724 74 613 q 422 864 292 835 q 465 871 443 868 q 507 874 486 874 q 512 874 510 874 q 517 874 514 874 q 521 874 518 874 q 525 874 524 874 l 525 875 m 525 831 q 255 717 369 829 q 131 469 140 604 q 129 457 129 463 q 129 446 129 451 q 129 429 129 438 q 131 414 129 421 q 278 127 156 233 q 547 21 400 21 q 564 22 556 21 q 581 22 572 22 q 809 128 704 33 q 929 414 914 222 q 929 422 929 418 q 929 432 929 426 q 814 711 931 593 q 543 829 697 829 q 539 829 542 829 q 535 829 536 829 q 530 829 532 829 q 525 829 528 829 l 525 831 m 711 306 l 754 296 q 673 192 740 236 q 524 147 606 147 q 510 148 517 147 q 496 149 503 149 q 394 183 444 154 q 306 272 344 213 q 276 335 286 303 q 261 400 265 367 q 259 415 260 407 q 258 432 258 424 q 279 542 258 489 q 339 633 300 594 q 409 682 371 665 q 486 704 447 699 q 512 708 499 707 q 538 708 525 708 q 619 701 581 708 q 685 685 657 693 q 714 674 701 679 q 733 665 726 669 l 733 525 l 689 525 q 651 619 682 592 q 586 651 621 646 q 572 653 579 653 q 558 654 565 654 q 539 653 549 654 q 519 651 529 653 q 419 599 465 643 q 374 449 374 554 q 376 401 374 426 q 383 349 378 376 q 384 343 383 346 q 386 338 385 340 q 453 249 400 289 q 568 208 507 208 q 646 231 608 208 q 711 304 683 253 l 711 306 z "},"":{"ha":1192,"x_min":54,"x_max":1138,"o":"m 229 853 q 119 828 140 851 q 99 764 99 806 l 54 765 q 55 781 54 772 q 56 797 56 789 q 56 803 56 800 q 57 810 57 807 q 59 832 58 821 q 60 853 60 843 q 58 872 60 864 q 54 885 57 879 l 481 886 q 478 872 479 879 q 476 854 476 864 q 477 833 476 844 q 479 810 478 822 q 479 806 479 808 q 479 800 479 803 q 480 782 479 792 q 481 764 481 772 l 438 765 q 439 774 439 769 q 439 782 439 778 q 403 839 439 826 q 306 851 367 851 l 306 481 q 306 477 306 478 q 306 475 306 476 q 317 449 306 461 q 383 436 328 436 l 383 404 l 153 404 l 153 438 q 218 449 207 436 q 229 475 229 461 q 229 477 229 476 q 229 479 229 478 l 229 853 l 229 853 m 635 821 l 635 481 q 643 446 635 456 q 700 436 651 436 l 700 404 l 536 404 l 536 438 q 583 446 576 436 q 590 479 590 456 l 590 799 q 585 840 590 829 q 547 851 579 851 l 547 886 l 689 886 l 831 536 l 985 886 l 1138 886 l 1138 853 q 1081 842 1089 851 q 1072 808 1072 832 l 1072 481 q 1072 468 1072 474 q 1071 458 1072 463 q 1081 441 1071 446 q 1126 436 1090 436 l 1126 404 l 929 404 l 929 438 q 988 446 979 436 q 996 479 996 456 l 996 810 l 821 404 l 810 404 l 635 821 l 635 821 z "},"":{"ha":558,"x_min":89,"x_max":482,"o":"m 339 918 q 373 928 357 925 q 403 932 389 932 q 460 913 439 932 q 482 867 481 893 q 482 861 482 864 q 481 856 482 858 q 456 815 476 833 q 393 786 435 796 l 153 733 q 144 731 149 731 q 138 731 140 731 q 103 739 115 729 q 89 761 90 749 q 97 782 89 772 q 121 797 104 792 l 339 918 l 339 918 z "},"":{"ha":613,"x_min":76,"x_max":515,"o":"m 76 842 q 106 892 81 875 q 160 910 131 908 q 162 910 161 910 q 164 910 163 910 q 224 892 197 910 q 251 840 251 874 q 251 838 251 839 q 251 836 251 836 q 251 833 251 835 q 251 831 251 832 q 226 766 253 788 q 169 743 200 744 q 167 743 168 743 q 165 743 167 743 q 104 764 132 742 q 76 829 76 786 q 76 832 76 831 q 76 835 76 833 q 76 838 76 836 q 76 840 76 839 l 76 842 m 339 842 q 369 894 343 875 q 425 914 394 913 q 427 914 426 914 q 429 914 428 914 q 488 897 461 915 q 514 840 514 878 q 514 838 514 839 q 514 836 514 836 q 514 833 514 835 q 514 831 514 832 q 489 766 515 788 q 432 743 463 744 q 430 743 431 743 q 428 743 429 743 q 367 764 394 742 q 339 829 339 786 q 339 832 339 831 q 339 835 339 833 q 339 838 339 836 q 339 840 339 839 l 339 842 z "},"":{"ha":393,"x_min":0,"x_max":0,"o":""},"":{"ha":1335,"x_min":-64,"x_max":1301,"o":"m 635 864 l 853 864 q 923 863 875 863 q 1025 863 971 863 q 1112 863 1069 863 q 1181 863 1154 863 q 1197 863 1189 863 q 1213 864 1206 864 q 1227 865 1219 864 q 1240 865 1235 865 q 1260 863 1253 865 q 1268 851 1268 860 l 1268 678 q 1256 657 1268 665 q 1229 656 1243 649 q 1215 667 1222 660 q 1203 688 1208 674 q 1117 779 1171 761 q 1006 797 1064 797 q 915 782 933 797 q 897 742 897 767 l 897 514 q 913 494 897 499 q 949 489 928 489 q 963 489 956 489 q 978 490 969 489 q 992 490 985 490 q 1006 490 999 490 q 1078 507 1057 490 q 1107 544 1099 524 q 1112 556 1110 550 q 1115 567 1114 561 q 1131 599 1121 588 q 1150 614 1140 611 q 1156 616 1153 615 q 1161 617 1158 617 q 1183 608 1174 618 q 1193 579 1193 597 q 1193 573 1193 576 q 1192 567 1193 569 q 1184 519 1186 543 q 1182 472 1182 496 q 1183 429 1182 450 q 1188 390 1185 408 q 1190 359 1189 372 q 1192 338 1192 346 q 1192 335 1192 336 q 1193 333 1192 335 q 1193 331 1193 332 q 1193 331 1193 331 q 1183 309 1193 317 q 1160 301 1172 301 q 1133 310 1146 301 q 1115 338 1119 318 q 1069 415 1107 394 q 974 436 1031 436 q 919 429 940 436 q 897 414 897 422 l 897 164 q 933 79 897 106 q 1018 53 968 53 q 1044 54 1031 53 q 1071 58 1057 56 q 1171 103 1124 71 q 1236 185 1218 136 q 1238 190 1238 188 q 1240 193 1239 192 q 1276 228 1260 233 q 1299 207 1293 222 q 1301 201 1300 204 q 1301 196 1301 199 l 1279 43 q 1268 5 1279 10 q 1225 0 1257 0 l 601 0 q 593 0 597 0 q 585 -1 589 0 q 577 -1 581 -1 q 569 -1 574 -1 q 546 4 556 -1 q 536 32 536 10 q 548 56 536 51 q 576 63 560 60 q 585 63 581 63 q 596 64 590 64 q 637 87 618 68 q 656 163 656 106 l 656 404 q 646 422 656 419 q 579 425 636 425 l 426 426 q 388 417 404 425 q 357 390 372 410 q 353 387 356 389 q 350 382 351 385 l 208 153 q 195 126 199 138 q 192 108 192 115 q 211 82 192 89 q 256 72 231 75 q 257 72 256 72 q 260 71 258 71 q 306 59 285 67 q 328 28 328 51 q 328 26 328 26 q 328 25 328 25 q 328 23 328 24 q 328 21 328 22 q 312 -1 328 4 q 268 -6 296 -6 q 240 -5 256 -6 q 208 -3 225 -4 q 188 -2 199 -3 q 167 0 176 -1 q 153 0 160 0 q 142 0 147 0 q 115 -1 129 0 q 83 -3 100 -1 q 74 -3 79 -3 q 63 -3 68 -3 q 41 -4 51 -4 q 21 -4 31 -4 q -39 1 -14 -4 q -64 26 -64 7 q -64 29 -64 28 q -64 32 -64 31 q -51 54 -61 49 q -28 63 -42 60 q 24 79 -6 67 q 88 140 53 92 l 514 754 q 526 776 522 768 q 529 790 529 785 q 526 801 529 797 q 517 807 522 804 q 516 807 517 807 q 515 808 515 807 q 506 815 510 811 q 501 828 501 818 q 501 834 501 831 q 503 840 501 838 q 517 863 503 857 q 551 868 531 868 q 566 867 558 868 q 581 867 574 867 q 588 866 585 867 q 594 865 592 865 q 616 863 606 864 q 635 863 626 863 l 635 864 m 656 536 l 656 743 q 650 769 656 758 q 635 779 644 779 q 614 770 625 779 q 590 742 603 761 l 449 536 q 433 506 432 510 q 460 501 435 501 l 613 503 q 650 506 644 501 q 656 535 656 510 l 656 536 z "},"":{"ha":1061,"x_min":28,"x_max":1043,"o":"m 864 1006 q 874 1014 869 1010 q 882 1019 878 1018 q 899 1026 889 1025 q 929 1026 908 1026 q 957 1019 954 1026 q 951 1004 960 1013 l 831 821 q 830 817 831 818 q 829 817 829 817 q 829 815 829 815 q 829 813 829 814 q 829 810 829 811 q 829 807 829 808 q 854 779 833 794 q 908 732 875 764 q 960 675 938 704 q 997 618 982 646 q 1033 526 1022 572 q 1043 438 1043 481 q 1027 324 1043 376 q 992 232 1011 271 q 976 206 983 218 q 963 185 969 194 q 774 28 885 88 q 539 -32 663 -31 q 506 -31 522 -32 q 472 -26 489 -29 q 438 -20 454 -24 q 404 -11 421 -17 q 330 9 353 0 q 297 19 307 18 q 290 17 293 19 q 285 10 288 15 l 175 -153 q 172 -158 174 -156 q 169 -164 171 -161 q 155 -174 164 -172 q 121 -175 146 -175 q 94 -174 103 -175 q 83 -167 85 -174 q 88 -153 83 -161 q 99 -131 92 -146 l 218 43 q 221 44 219 43 q 222 47 222 46 q 215 63 226 53 q 164 108 204 74 q 69 240 110 153 q 28 432 28 326 q 33 497 28 464 q 47 564 38 531 q 79 644 58 604 q 131 721 100 683 q 229 813 176 778 q 338 868 282 849 q 426 891 382 885 q 511 897 471 897 q 603 890 563 897 q 667 874 643 883 q 737 850 719 854 q 765 857 754 846 q 771 865 768 861 q 776 874 774 868 l 864 1006 l 864 1006 m 711 635 l 383 153 q 381 148 382 150 q 381 144 381 146 q 379 140 379 142 q 379 136 379 139 q 379 133 379 135 q 381 129 379 131 q 392 111 383 121 q 415 86 400 101 q 476 46 439 64 q 556 28 513 28 q 578 29 567 28 q 600 33 589 31 q 645 52 622 39 q 689 86 668 65 q 757 215 732 129 q 785 394 782 300 q 785 405 785 400 q 785 415 785 410 q 781 500 785 458 q 765 578 776 542 q 751 624 757 607 q 739 646 744 640 q 726 649 732 653 q 711 633 719 646 l 711 635 m 678 722 q 680 725 679 724 q 682 729 681 726 q 683 733 682 731 q 683 736 683 735 q 669 763 683 747 q 613 808 654 778 q 587 824 600 818 q 560 835 574 831 q 533 841 546 839 q 507 843 519 843 q 410 815 453 843 q 350 753 367 788 q 296 617 315 692 q 275 463 276 542 q 276 438 275 450 q 276 414 276 426 q 287 342 279 378 q 306 272 294 307 q 324 229 317 242 q 338 215 332 217 q 344 219 340 215 q 350 228 347 222 l 678 722 l 678 722 z "},"":{"ha":393,"x_min":0,"x_max":0,"o":""},"":{"ha":776,"x_min":0,"x_max":0,"o":""},"":{"ha":393,"x_min":0,"x_max":0,"o":""},"":{"ha":393,"x_min":0,"x_max":0,"o":""},"":{"ha":776,"x_min":11,"x_max":765,"o":"m 438 481 l 568 754 q 570 760 569 757 q 571 767 571 764 q 556 788 571 783 q 524 796 542 793 q 522 796 522 796 q 521 796 521 796 q 487 805 503 799 q 471 829 471 811 q 489 860 471 853 q 535 867 507 867 q 558 866 546 867 q 583 865 571 865 q 592 864 588 864 q 600 864 596 864 q 618 863 610 863 q 635 863 626 863 q 653 863 644 863 q 671 864 663 863 q 687 864 679 864 q 701 864 694 864 q 748 858 731 864 q 765 829 765 851 q 749 797 761 801 q 721 792 736 792 q 719 792 719 792 q 717 792 718 792 q 708 791 713 792 q 700 790 704 790 q 676 781 688 788 q 656 753 664 774 l 558 568 q 551 549 550 551 q 568 546 553 546 l 678 547 q 684 546 681 546 q 692 544 688 546 q 705 533 699 542 q 711 501 711 524 q 705 472 711 481 q 692 460 699 463 q 684 458 688 458 q 678 458 681 458 l 536 460 q 503 451 519 458 q 471 403 486 444 q 478 365 471 371 q 525 360 485 360 l 667 361 q 697 354 683 360 q 711 315 711 349 q 697 278 711 283 q 667 272 683 272 l 514 274 q 476 268 482 272 q 471 239 471 264 l 471 121 q 486 73 471 86 q 519 56 501 60 q 531 52 525 53 q 540 50 536 51 q 560 44 553 47 q 568 32 568 40 q 558 -1 568 7 q 528 -8 549 -8 q 503 -7 517 -8 q 472 -4 489 -6 q 436 -1 456 -3 q 393 0 417 0 q 367 -1 381 0 q 339 -4 353 -3 q 332 -4 335 -4 q 326 -6 329 -4 q 293 -8 310 -7 q 263 -10 276 -10 q 224 -3 239 -10 q 208 21 208 3 q 220 44 208 39 q 247 50 232 49 q 252 51 250 51 q 257 53 254 51 q 290 65 275 56 q 306 108 306 75 l 306 251 q 299 279 306 275 q 251 283 292 283 l 110 285 q 79 289 93 283 q 65 326 65 294 q 79 356 65 351 q 110 360 93 360 l 285 361 q 300 362 296 360 q 304 368 304 364 q 299 385 306 374 q 285 414 293 396 q 265 449 276 439 q 229 458 254 458 l 99 460 q 92 458 96 458 q 85 460 89 458 q 72 472 78 463 q 65 501 65 481 q 72 533 65 524 q 85 544 78 542 q 92 546 89 546 q 99 546 96 546 l 197 547 q 213 550 213 546 q 197 578 213 554 l 99 765 q 84 785 92 778 q 68 796 76 792 q 55 800 61 799 q 42 803 49 801 q 20 810 29 804 q 11 840 11 815 q 28 863 11 857 q 71 868 44 868 q 99 867 83 868 q 131 865 114 867 q 151 865 140 865 q 172 863 163 864 q 185 863 179 863 q 197 863 192 863 q 236 863 218 863 q 269 865 254 864 q 300 867 286 867 q 325 868 314 868 q 360 863 349 868 q 372 840 372 857 q 360 810 372 818 q 332 800 347 803 q 326 800 329 800 q 319 799 322 800 q 301 795 308 797 q 293 786 293 793 q 294 781 293 785 q 296 775 294 778 l 438 481 l 438 481 z "},"":{"ha":831,"x_min":0,"x_max":0,"o":""},"":{"ha":393,"x_min":0,"x_max":0,"o":""},"":{"ha":393,"x_min":0,"x_max":0,"o":""},"":{"ha":393,"x_min":0,"x_max":0,"o":""},"":{"ha":393,"x_min":0,"x_max":0,"o":""},"":{"ha":393,"x_min":0,"x_max":0,"o":""},"":{"ha":503,"x_min":51,"x_max":492,"o":"m 65 438 l 492 438 l 492 383 l 65 383 l 65 438 l 65 438 m 285 558 q 276 544 282 551 q 263 529 271 538 q 215 503 244 515 q 142 490 186 490 q 79 516 103 490 q 56 576 56 542 q 56 590 56 583 q 58 603 57 596 q 85 649 65 626 q 142 688 106 672 l 296 754 l 296 799 q 287 833 296 822 q 264 843 278 843 q 256 842 260 843 q 247 840 251 842 q 218 824 232 836 q 200 797 204 811 q 198 792 199 794 q 197 786 197 789 q 176 759 197 771 q 129 743 154 747 q 115 741 122 742 q 101 740 108 740 q 65 751 78 740 q 65 786 51 761 q 136 860 92 835 q 228 892 181 885 q 247 894 238 893 q 267 894 257 894 q 371 875 326 894 q 415 829 415 856 l 415 613 q 428 572 415 571 q 454 582 440 572 q 477 593 467 589 q 492 578 488 597 q 492 576 492 576 q 492 572 492 575 q 491 565 492 568 q 489 557 490 561 q 449 519 479 536 q 382 501 418 501 q 330 514 356 501 q 285 557 304 526 l 285 558 m 296 700 q 231 667 257 683 q 193 635 206 651 q 188 624 190 629 q 186 613 186 618 q 189 601 186 607 q 197 589 192 594 q 212 580 204 583 q 228 576 219 576 q 233 576 231 576 q 238 576 235 576 q 278 599 260 581 q 296 644 296 618 l 296 700 l 296 700 z "},"":{"ha":503,"x_min":10,"x_max":493,"o":"m 22 438 l 492 438 l 492 383 l 22 383 l 22 438 l 22 438 m 11 711 q 88 842 15 799 q 246 886 160 885 q 248 886 247 886 q 250 886 249 886 q 413 840 339 885 q 492 710 488 796 q 492 701 492 706 q 493 693 492 697 q 419 544 493 593 q 256 496 346 496 q 253 496 254 496 q 251 496 253 496 q 85 545 161 497 q 10 686 10 593 q 10 698 10 692 q 11 710 10 704 l 11 711 m 164 689 q 196 583 171 619 q 249 539 221 547 q 256 538 253 539 q 263 538 260 538 q 319 569 294 538 q 343 663 343 601 q 342 685 343 674 q 339 710 342 697 q 306 803 331 771 q 251 842 281 836 q 247 843 249 843 q 242 843 244 843 q 187 813 211 843 q 163 721 163 782 q 163 706 163 714 q 164 688 163 697 l 164 689 z "},"":{"ha":393,"x_min":0,"x_max":0,"o":""},"":{"ha":1115,"x_min":28,"x_max":1078,"o":"m 646 404 q 637 392 640 403 q 633 361 633 381 q 639 308 633 339 q 657 244 644 276 q 726 138 679 186 q 853 86 772 90 q 933 99 900 86 q 988 126 965 111 q 1039 163 1021 149 q 1072 151 1057 176 q 1075 145 1075 149 q 1075 139 1075 142 q 1065 113 1075 126 q 1039 85 1056 99 q 970 40 1011 61 q 886 6 929 18 q 835 -6 860 -1 q 788 -11 810 -11 q 774 -12 781 -12 q 761 -12 768 -12 q 624 22 678 -12 q 539 100 571 57 q 531 109 535 104 q 525 119 528 114 q 426 29 492 69 q 229 -11 361 -11 q 84 29 131 -11 q 38 121 38 69 q 38 126 38 124 q 38 129 38 128 q 65 198 40 165 q 131 250 89 231 q 199 280 168 267 q 261 306 231 293 q 274 310 268 307 q 286 315 281 313 q 333 336 310 325 q 383 360 357 347 q 388 364 383 360 q 400 375 393 368 q 410 392 406 382 q 415 414 415 401 l 415 536 q 397 587 415 569 q 353 606 379 604 q 335 603 344 606 q 317 597 325 601 q 274 563 294 586 q 240 501 253 539 q 203 458 232 476 q 140 429 174 439 q 106 421 122 424 q 76 418 90 418 q 58 420 67 418 q 43 425 49 422 q 31 438 35 431 q 28 453 28 444 q 38 488 28 468 q 63 526 47 507 q 119 581 86 554 q 186 622 151 607 q 222 635 204 629 q 257 647 239 642 q 310 658 283 654 q 363 663 338 663 q 463 643 415 663 q 547 578 511 624 q 633 633 579 611 q 776 654 686 654 q 832 651 801 654 q 894 640 863 649 q 990 594 944 626 q 1061 501 1036 563 q 1065 493 1063 497 q 1068 483 1067 489 q 1071 474 1069 479 q 1074 464 1072 469 q 1077 453 1076 458 q 1078 442 1078 447 q 1067 414 1078 425 q 1028 403 1057 403 l 646 404 l 646 404 m 415 285 q 413 299 415 294 q 406 303 411 303 q 387 298 400 304 q 350 283 374 292 q 288 243 311 265 q 256 199 265 221 q 248 176 250 188 q 246 154 246 165 q 261 96 246 122 q 296 58 276 69 q 301 56 299 57 q 306 53 303 54 q 320 50 313 51 q 333 49 328 49 q 393 78 371 47 q 415 151 415 110 l 415 285 l 415 285 m 656 471 q 678 463 660 465 q 719 461 696 461 q 731 461 725 461 q 742 461 736 461 q 779 465 761 463 q 810 469 797 467 q 861 496 843 476 q 879 538 879 515 q 856 581 879 561 q 783 601 832 600 q 779 601 782 601 q 775 601 776 601 q 770 600 772 600 q 765 600 768 600 q 709 576 733 596 q 671 535 685 557 q 656 506 661 519 q 650 482 650 492 q 651 474 650 478 q 656 469 653 471 l 656 471 z "},"":{"ha":831,"x_min":29,"x_max":807,"o":"m 646 722 q 656 731 651 726 q 664 738 660 735 q 677 741 669 740 q 700 742 685 742 q 728 734 725 742 q 722 710 731 726 l 656 613 q 654 601 653 606 q 658 590 656 596 q 680 572 665 582 q 711 546 694 561 q 748 503 732 525 q 775 460 764 481 q 799 394 792 426 q 807 331 807 361 q 791 235 807 279 q 754 163 775 192 q 651 65 706 103 q 540 8 596 28 q 476 -6 508 -1 q 413 -11 443 -11 q 364 -8 388 -11 q 317 0 340 -6 q 311 1 314 0 q 306 1 308 1 q 281 8 292 6 q 263 11 271 11 q 250 8 256 11 q 240 0 244 6 l 175 -87 q 164 -104 168 -97 q 156 -114 160 -111 q 142 -120 150 -119 q 121 -121 135 -121 q 94 -117 103 -121 q 83 -107 85 -114 q 88 -94 83 -101 q 99 -76 92 -87 l 175 33 q 181 44 179 39 q 181 53 182 49 q 172 62 179 57 q 153 75 165 67 q 66 172 96 113 q 31 296 36 232 q 30 308 31 301 q 29 321 29 314 q 38 399 29 361 q 65 469 47 438 q 154 568 104 531 q 257 625 204 606 q 342 649 300 642 q 419 656 383 656 q 474 652 450 656 q 514 644 499 649 q 549 633 536 638 q 571 629 563 629 q 579 631 575 629 q 586 635 583 632 q 593 642 589 638 q 601 654 597 647 l 646 722 l 646 722 m 536 438 l 328 131 q 323 119 325 124 q 321 111 321 115 q 328 98 321 106 q 350 75 335 90 q 384 52 365 60 q 421 44 403 44 q 426 44 424 44 q 431 44 428 44 q 489 67 461 47 q 536 119 517 86 q 561 181 553 149 q 574 246 569 213 q 578 310 578 278 q 579 371 579 342 q 568 431 574 414 q 556 449 563 449 q 547 445 551 449 q 536 436 543 442 l 536 438 m 503 514 q 508 532 511 521 q 481 567 506 543 q 445 592 463 585 q 411 601 428 600 q 349 576 378 601 q 299 519 319 550 q 274 478 283 499 q 263 447 265 458 q 253 396 256 421 q 250 349 250 371 q 253 294 250 318 q 263 250 257 269 q 281 197 271 210 q 306 217 290 185 l 503 514 l 503 514 z "},"":{"ha":579,"x_min":60,"x_max":518,"o":"m 415 393 l 449 208 q 449 205 449 206 q 449 203 449 204 q 410 140 449 174 q 322 71 371 107 q 237 -3 276 35 q 197 -79 197 -40 q 197 -84 197 -82 q 197 -87 197 -86 q 222 -142 197 -119 q 282 -165 247 -165 q 296 -165 289 -165 q 308 -161 303 -164 q 336 -147 322 -157 q 361 -121 350 -137 q 374 -103 367 -114 q 389 -82 381 -93 q 422 -46 404 -62 q 457 -29 439 -29 q 488 -47 472 -29 q 514 -110 503 -65 q 517 -123 517 -117 q 517 -135 517 -129 q 467 -212 518 -187 q 354 -236 415 -236 q 287 -229 319 -236 q 229 -208 254 -222 q 119 -131 164 -175 q 65 -22 74 -87 q 61 3 63 -8 q 60 28 60 15 q 103 156 60 104 q 200 247 147 208 q 258 290 229 269 q 307 329 288 310 q 331 356 322 342 q 339 385 339 369 q 339 387 339 386 q 339 389 339 388 q 339 390 339 389 q 339 392 339 390 q 351 415 339 406 q 379 425 364 425 q 401 419 390 426 q 415 392 411 411 l 415 393 m 240 579 q 278 651 240 626 q 360 676 315 676 q 362 676 361 676 q 364 676 363 676 q 444 651 407 675 q 481 578 481 626 q 481 575 481 576 q 481 574 481 574 q 481 571 481 572 q 481 568 481 569 q 443 488 481 515 q 361 458 406 460 q 359 458 360 458 q 357 458 358 458 q 277 489 314 460 q 240 578 240 518 l 240 579 z "},"":{"ha":393,"x_min":64,"x_max":318,"o":"m 142 361 q 158 408 146 392 q 183 424 169 424 q 186 424 185 424 q 189 424 188 424 q 213 402 201 421 q 229 349 225 383 l 317 -121 q 318 -128 318 -125 q 318 -135 318 -132 q 277 -209 318 -183 q 188 -236 236 -235 q 185 -236 186 -236 q 183 -236 185 -236 q 101 -212 138 -236 q 64 -139 64 -189 q 64 -135 64 -137 q 64 -131 64 -132 q 65 -126 64 -128 q 65 -121 65 -124 l 142 361 l 142 361 m 76 568 q 114 640 76 615 q 196 665 151 665 q 198 665 197 665 q 200 665 199 665 q 280 640 243 664 q 317 567 317 615 q 280 485 317 511 q 200 457 243 458 q 198 457 199 457 q 196 457 197 457 q 114 483 151 457 q 76 557 76 508 q 76 560 76 558 q 76 563 76 561 q 76 564 76 563 q 76 567 76 565 l 76 568 z "},"":{"ha":393,"x_min":0,"x_max":0,"o":""},"":{"ha":393,"x_min":0,"x_max":0,"o":""},"":{"ha":481,"x_min":339,"x_max":460,"o":"m 339 985 l 460 985 l 460 0 l 339 0 l 339 985 l 339 985 z "},"":{"ha":393,"x_min":0,"x_max":0,"o":""},"":{"ha":393,"x_min":0,"x_max":0,"o":""},"":{"ha":471,"x_min":39,"x_max":440,"o":"m 175 460 q 193 473 183 467 q 218 479 203 479 q 242 478 233 479 q 251 468 251 476 q 249 455 251 463 q 240 436 247 447 l 175 339 q 170 325 172 331 q 168 314 168 319 q 172 297 168 306 q 186 272 176 288 l 251 164 q 253 159 253 161 q 254 154 254 157 q 253 150 254 153 q 253 146 253 147 q 244 132 250 138 q 226 126 238 126 q 200 134 215 126 q 164 163 185 142 l 54 274 q 47 281 50 276 q 43 289 44 285 q 40 296 40 292 q 39 304 39 300 q 42 321 39 313 q 54 338 46 329 l 175 460 l 175 460 m 361 460 q 379 473 369 467 q 404 479 389 479 q 428 478 419 479 q 438 468 438 476 q 435 455 438 463 q 426 436 433 447 l 361 339 q 356 325 358 331 q 354 314 354 319 q 358 297 354 306 q 372 272 363 288 l 438 164 q 440 159 439 161 q 440 154 440 157 q 440 150 440 153 q 439 146 439 147 q 430 132 436 138 q 413 126 424 126 q 386 134 401 126 q 350 163 371 142 l 240 274 q 233 281 236 276 q 228 289 231 285 q 225 296 226 292 q 224 304 224 300 q 228 321 224 313 q 240 338 232 329 l 361 460 l 361 460 z "},"":{"ha":471,"x_min":25,"x_max":442,"o":"m 110 460 l 240 328 q 251 315 247 319 q 256 306 256 310 q 250 293 256 300 q 229 272 244 286 l 99 142 q 88 133 94 136 q 75 128 82 129 q 67 126 71 126 q 61 125 64 125 q 46 129 51 125 q 40 143 40 133 q 43 160 40 150 q 54 185 46 171 l 110 274 q 111 274 110 272 q 115 281 113 276 q 118 288 117 283 q 119 297 119 292 q 117 311 119 304 q 110 326 115 318 l 33 449 q 34 472 25 464 q 58 481 43 481 q 67 481 63 481 q 75 479 71 481 q 94 472 85 478 q 110 458 104 467 l 110 460 m 296 460 l 426 328 q 438 315 433 319 q 442 306 442 310 q 436 293 442 300 q 415 272 431 286 l 285 142 q 274 133 281 136 q 261 128 268 129 q 253 126 257 126 q 247 125 250 125 q 232 129 238 125 q 226 143 226 133 q 229 160 226 150 q 240 185 232 171 l 296 274 q 297 274 296 272 q 301 281 299 276 q 304 288 303 283 q 306 297 306 292 q 303 311 306 304 q 296 326 301 318 l 218 449 q 215 455 217 451 q 214 460 214 458 q 223 476 214 471 q 244 481 232 481 q 253 481 249 481 q 261 479 257 481 q 281 472 271 478 q 296 458 290 467 l 296 460 z "},"":{"ha":1389,"x_min":99,"x_max":1279,"o":"m 1028 88 q 1070 167 1032 139 q 1153 197 1108 194 q 1155 197 1154 197 q 1157 197 1156 197 q 1238 170 1201 197 q 1279 86 1275 143 q 1279 83 1279 85 q 1279 78 1279 81 q 1240 -3 1279 24 q 1154 -32 1201 -31 q 1152 -32 1153 -32 q 1150 -32 1151 -32 q 1066 -2 1104 -31 q 1028 86 1028 26 l 1028 88 m 99 99 q 141 178 103 150 q 224 208 179 206 q 226 208 225 208 q 228 208 226 208 q 309 181 272 208 q 350 97 346 154 q 350 94 350 96 q 350 89 350 92 q 311 8 350 35 q 225 -21 272 -19 q 223 -21 224 -21 q 221 -21 222 -21 q 137 9 175 -19 q 99 97 99 38 l 99 99 m 568 99 q 610 178 572 150 q 693 208 649 206 q 695 208 694 208 q 697 208 696 208 q 779 181 742 208 q 821 97 817 154 q 821 94 821 96 q 821 89 821 92 q 783 8 822 35 q 694 -21 743 -19 q 692 -21 693 -21 q 690 -21 692 -21 q 606 9 644 -19 q 568 97 568 38 l 568 99 z "},"":{"ha":918,"x_min":-43,"x_max":951,"o":"m 503 263 q 500 267 501 264 q 497 272 499 269 q 483 282 492 281 q 449 283 474 283 l 274 285 q 233 275 249 283 q 218 250 218 267 l 186 153 q 183 140 185 146 q 182 128 182 135 q 182 124 182 126 q 182 121 182 122 q 198 82 185 100 q 240 64 211 64 q 301 51 286 64 q 317 25 315 39 q 317 23 317 24 q 317 21 317 22 q 292 -1 313 4 q 243 -6 271 -6 q 233 -6 238 -6 q 224 -6 228 -6 q 205 -3 214 -4 q 186 -3 196 -3 q 162 -1 174 -1 q 142 0 150 0 q 107 -1 124 0 q 74 -3 90 -1 q 44 -3 58 -3 q 17 -4 29 -4 q -26 1 -10 -4 q -43 22 -42 6 q -43 24 -43 24 q -43 26 -43 25 q -42 29 -42 28 q -42 32 -42 31 q -27 53 -39 49 q 0 57 -15 57 q 2 57 0 57 q 6 57 4 57 q 12 57 8 57 q 19 57 15 57 q 53 64 38 57 q 76 97 69 71 l 383 842 q 410 876 392 863 q 449 890 428 889 q 485 879 468 890 q 514 840 503 868 l 831 99 q 854 65 838 72 q 889 56 871 57 q 895 56 892 56 q 903 54 899 56 q 937 49 922 54 q 951 21 951 44 q 935 -7 951 0 q 893 -14 919 -14 q 856 -12 876 -14 q 815 -7 836 -10 q 810 -6 813 -7 q 804 -6 807 -6 q 768 -1 786 -3 q 733 0 750 0 q 708 -1 721 0 q 683 -1 696 -1 q 658 -3 671 -3 q 633 -6 646 -4 q 587 -8 610 -7 q 544 -10 564 -10 q 491 -3 511 -10 q 471 21 471 3 q 490 47 474 40 q 524 56 506 53 q 528 56 526 56 q 533 56 531 56 q 564 61 550 57 q 578 79 578 65 q 576 92 578 85 q 568 108 574 99 l 503 263 l 503 263 m 361 635 l 263 383 q 260 372 261 376 q 258 364 258 367 q 269 351 258 353 q 306 349 281 349 l 415 350 q 454 357 449 349 q 460 382 460 365 l 361 635 l 361 635 m 601 1039 q 614 1026 608 1032 q 622 1015 619 1021 q 628 1003 626 1008 q 631 992 631 997 q 622 974 631 982 q 594 967 614 967 q 578 968 588 967 q 558 972 569 969 l 317 1028 q 265 1055 282 1033 q 249 1101 249 1076 q 267 1152 247 1129 q 324 1176 288 1175 q 356 1172 339 1176 q 393 1158 374 1168 l 601 1039 l 601 1039 z "},"":{"ha":918,"x_min":-43,"x_max":951,"o":"m 503 263 q 500 267 501 264 q 497 272 499 269 q 483 282 492 281 q 449 283 474 283 l 274 285 q 233 275 249 283 q 218 250 218 267 l 186 153 q 183 140 185 146 q 182 128 182 135 q 182 124 182 126 q 182 121 182 122 q 198 82 185 100 q 240 64 211 64 q 301 51 286 64 q 317 25 315 39 q 317 23 317 24 q 317 21 317 22 q 292 -1 313 4 q 243 -6 271 -6 q 233 -6 238 -6 q 224 -6 228 -6 q 205 -3 214 -4 q 186 -3 196 -3 q 162 -1 174 -1 q 142 0 150 0 q 107 -1 124 0 q 74 -3 90 -1 q 44 -3 58 -3 q 17 -4 29 -4 q -26 1 -10 -4 q -43 22 -42 6 q -43 24 -43 24 q -43 26 -43 25 q -42 29 -42 28 q -42 32 -42 31 q -27 53 -39 49 q 0 57 -15 57 q 2 57 0 57 q 6 57 4 57 q 12 57 8 57 q 19 57 15 57 q 53 64 38 57 q 76 97 69 71 l 383 842 q 410 876 392 863 q 449 890 428 889 q 485 879 468 890 q 514 840 503 868 l 831 99 q 854 65 838 72 q 889 56 871 57 q 895 56 892 56 q 903 54 899 56 q 937 49 922 54 q 951 21 951 44 q 935 -7 951 0 q 893 -14 919 -14 q 856 -12 876 -14 q 815 -7 836 -10 q 810 -6 813 -7 q 804 -6 807 -6 q 768 -1 786 -3 q 733 0 750 0 q 708 -1 721 0 q 683 -1 696 -1 q 658 -3 671 -3 q 633 -6 646 -4 q 587 -8 610 -7 q 544 -10 564 -10 q 491 -3 511 -10 q 471 21 471 3 q 490 47 474 40 q 524 56 506 53 q 528 56 526 56 q 533 56 531 56 q 564 61 550 57 q 578 79 578 65 q 576 92 578 85 q 568 108 574 99 l 503 263 l 503 263 m 361 635 l 263 383 q 260 372 261 376 q 258 364 258 367 q 269 351 258 353 q 306 349 281 349 l 415 350 q 454 357 449 349 q 460 382 460 365 l 361 635 l 361 635 m 197 1039 q 259 1121 228 1090 q 322 1165 290 1151 q 353 1175 338 1172 q 385 1178 369 1178 q 470 1160 428 1179 q 551 1118 513 1140 q 556 1116 554 1117 q 558 1114 557 1115 q 605 1087 586 1096 q 639 1078 624 1078 q 649 1078 644 1078 q 660 1082 654 1079 q 683 1094 671 1086 q 711 1114 696 1103 q 727 1122 719 1119 q 740 1125 735 1125 q 752 1121 747 1125 q 757 1108 757 1117 q 757 1100 757 1104 q 754 1092 757 1096 q 671 995 718 1024 q 575 967 624 967 q 478 988 525 967 q 393 1038 431 1008 q 358 1060 375 1053 q 328 1068 342 1068 q 284 1052 303 1068 q 250 1017 265 1036 q 245 1010 247 1014 q 240 1004 243 1007 q 234 997 238 1000 q 226 992 231 993 q 219 988 222 989 q 213 986 215 986 q 198 992 204 986 q 192 1010 192 997 q 192 1022 190 1015 q 197 1038 194 1029 l 197 1039 z "}}}
